<svg id="Слой_1" data-name="Слой 1" xmlns="http://www.w3.org/2000/svg" viewBox="0 0 400 400"><defs><style>.cls-1{fill:#794c40;}.cls-2{fill:#f6f1ee;}.cls-3{fill:#fff;}</style></defs><path class="cls-1" d="M357.16,270.08c-4.45-1.68-4.79-3.68-1.2-7.25,2.25-2.23,5.16-2.93,8.15-3.27a26.89,26.89,0,0,1,18.76,4.58,15,15,0,0,1,3.2,2.95c3.24,4,2.41,9.06-2,11.87a19.6,19.6,0,0,1-8.88,2.84c-7.25.66-14.45.82-20.66-4-1.06-.82-2-1.77-3.29-2.87a4.56,4.56,0,0,1,0,1.09c-.77,2.15-.32,3.15,2.22,3.65,2.94.56,3.51,4.48,1.22,6.61a8.26,8.26,0,0,1-3.42,1.81c-14.68,4.19-29.15,4.21-43.29-2.21-2.71-1.23-3-2.4-1.15-4.62.38-.46.49-.69.13-1.08-1.07-1.17-1.4-2.67-1.89-4.29-.89,1-1.7,1.92-2.48,2.85-1.72,2.05-3.42,4.06-6.44,4.22-1.14.06-2,.95-3,1.6-3.28,2.22-6.31,4.54-10.89,4.11s-9.13-.7-13.58-1.92c-9.11-2.47-17.68-6.42-26.53-9.58-15.91-5.69-31.6-12.07-47.7-17.16a197.8,197.8,0,0,1-19.53-7.28c-24.23-10.61-38-29.41-43.08-55.08-2-9.8-2.5-19.73-3.63-29.61-.77-6.76-2.95-12.93-8.76-17-2.85-2-6.28-3.17-9.25-5C95.68,137,79.17,133.8,62.88,130c-10.57-2.49-21.19-4.77-31.33-8.79a45.55,45.55,0,0,1-9.5-5C12.32,109.26,9.6,100.05,14,89c5-12.59,16.19-18.3,30.16-15.43,8.48,1.74,16.16,5.54,23.92,9.17a500.47,500.47,0,0,1,57.41,32.17c7.7,4.93,15.9,8.9,25.14,10.1,1.9.25,3.82.24,5.73.34,8.82.48,17.66.58,26.41,2,15.58,2.63,30.33,7.91,44.61,14.47,21.4,9.83,42.86,19.55,63.82,30.31a144.17,144.17,0,0,1,12.77,7.7c11.78,7.68,17.8,18.85,19.65,32.47.3,2.21.74,2.65,3,2.13A23.55,23.55,0,0,1,341,215.82c4.53,1.85,7.65,6.3,7.54,10.33a12.48,12.48,0,0,1-1,3.73c1.58.12,3.34-.26,4.38.44,2.66,1.78,5.39,1,8.2,1.17a30.82,30.82,0,0,1,16.44,5.14c3.55,2.46,4.25,5.64,2.17,9.34-.46.83-.54,1.19.35,1.75,1.81,1.14,1.4,2.5.09,3.77a9.43,9.43,0,0,1-6.26,2.54c-7.64.45-15.28.64-22.85-.91a5.06,5.06,0,0,0-1,0c2.15,2,2,3.23-.5,4.44a20.68,20.68,0,0,1-11.88,1.7l-13.62-1.79c1.41,4.07-1.67,5.37-4.25,7.14C329.65,261.86,340,261.52,349,270c.09-1.31.12-2.27.22-3.21s0-2.18,1.44-2.2c1.19,0,1.36,1,1.55,1.93a15.55,15.55,0,0,0,3.14,6.56,3.86,3.86,0,0,0,2.29,1.54c.78,2.1,2.19,1.72,3.7.93.76.58-1.19,1-.13,1.52.78.38,1.67.93,2.54.24s1.56-1.42,2.34-2.14l.43.53c-.24.37-.46.77-.73,1.12s-1.08.76-.64,1.49,1.11.28,1.66.41c.83.18,1.13-.63,1.71-.91.74-.35.88-1.59,2-1.33.53.66-.83,1-.41,1.58,1.79.71,2.59-1.34,4.1-1.12.12.41.1.84.8.82,1.63-.06,2.31-1.28,3.16-2.34l.44.35-.54,1.47c2.52-.23,3.35-1.05,3.44-3.34,0-1.37,0-2.75.13-4.12a3.81,3.81,0,0,0-2.05-3.79,25.41,25.41,0,0,0-19.85-2.78,6.47,6.47,0,0,0-4.32,3,3.07,3.07,0,0,0,2.21.69c3.87.43,7.75.78,11.62,1.21a28.68,28.68,0,0,1,8.61,2.21c.5.23,1,.4.94,1.1,0,.37-.26.58-.59.44-2.88-1.19-2.55.89-2.62,2.56,0,.34-.29.23-.5.24,0-.67-.08-1.35-.05-2,.06-1.09-.52-1.39-1.48-1.55-1.18-.19-1.08.51-1.26,1.29-.35,1.45-.2,3.16-1.78,4.09-.44-1.21.68-1.95,1-3,.69-2.52.16-3.18-2.42-3-1.55.14-.44,1.84-1.66,2.2.28-1.46.19-2.58-1.83-2.41-1.18.09-.45,1.6-1.5,1.56,0-.93,0-1.7-1.38-1.63C360.82,270.35,359,270.15,357.16,270.08ZM257,259c0-.33-.09-.53-.47-.45-.07-.56-.28-1-1-.88.09-.38-.07-.54-.45-.47,0-.62-.41-.79-.87-1l-.41-.52c-.61-.47-1.07-1.17-1.92-1.31-2-2.05-4.57-3.21-7.14-4.4,1,1.43.84,4,3.67,3.44.26-.05.67.55,1,.89.76.85,1.51,1.71,2.27,2.57l2,2.59a2.44,2.44,0,0,0,.93,1.36l3.27,5.47a2.57,2.57,0,0,0,.92,1.84c1.56,6.26,5.14,12.43,7.77,13.1a43.27,43.27,0,0,1-6-10.08c-.49-1-.61-2.33-1.77-3,.08-.81,0-1.51-.91-1.85-.29-2.26-1.79-3.91-2.91-5.76l-1-1.41a10,10,0,0,0-2-2.54c-.29-.42-.61-.83-.87-1.27-.63-1,0-1.08.82-1,.49.67,1,1.33,1.92,1.32-.14.39.07.5.41.51,0,.56.46.74.87,1l.45.48,1,.87c0,.3.13.48.46.46,0,.32.1.51.46.45,0,.67.58,1,.85,1.45l.95.91c.29.53.48,1.43.88,1.53,3.12.75,3.34,3.88,4.91,5.87s2.65,3.94,4.06,5.85a23.49,23.49,0,0,0,10.58,8.51A6.91,6.91,0,0,0,283,284c6.09-.62,10.45-4.4,14.79-8.09,2.15-1.81,3.78-4.22,5.8-6.2,1.73-1.69,1.87-3.56,1.33-6a60.34,60.34,0,0,1-6.89,8c-1.79,1.64-2.63,4.14-4.45,5.47-5.9,4.34-12.84,3.42-19-2.15-5.74-5.19-9.49-11.76-12.65-18.69-3.5-7.69-8.21-14.31-15.57-18.79-15.17-9.22-30.3-18.51-46.07-26.68-9.44-4.89-19-9.61-27.41-16.22-6.51-5.13-12.1-11-15.47-18.76-5.45-12.47-3.15-26,5.94-34.83.67-.64,1.34-1.81,2.47-1s.36,1.87-.27,2.76c-11.17,15.78-6.12,30.15,2.16,40.47.25.31.41.87,1.12.63q1.47-16.56,2.95-33.2c.74,2.18.05,4.31.54,6.43a3.37,3.37,0,0,0-.25.86A222.62,222.62,0,0,1,170.21,185a1.59,1.59,0,0,0,1.23,2c.45-9,.9-17.88,1.34-26.78.05-2.05-.25-4.18.21-6.14,1.21-5.2,1.23-10.51,1.79-15.76,1.48.63.86,1.91.8,2.92-.54,8.94-1.16,17.86-1.66,26.8-.06.93-1.06,1.89,0,3l.21-.67c.26-.76-.37-2.24,1-2.08s.59,1.52.54,2.29A111.4,111.4,0,0,1,173.23,188c-.28,1.27.4,1.08,1,1.53.54-5.3.92-10.41,1.61-15.47,1.52-11.08,2.33-22.21,3-33.35.23-3.81.07-3.81-3.75-3.27l-.87.14c-.76.13-1.58,0-2.19.64l-.81.25c0-.35-.1-.87.08-1a17.24,17.24,0,0,1,2.06-1.27l1.52-.69,1.29-.43,1.87-.51,1.33-.21.93-.24h0A26,26,0,0,0,189,134l.79.09a7.5,7.5,0,0,0,2.82.47A102.25,102.25,0,0,1,208,139.71c15,6.42,29.42,14,44.06,21.13,12.92,6.3,26.22,11.81,38.76,18.89,4.54,2.56,9.05,5.18,12.89,8.75,6.7,6.22,11.86,13.21,11,23.06a1.12,1.12,0,0,0,.35.76c1.57,1.54,3.15,3.06,4.87,4.71-.36-2.16-.75-4.17-1-6.2-1.58-11.49-7-20.63-16.79-26.95-3.66-2.36-7.41-4.61-11.25-6.66-25.17-13.47-51.24-25-77.45-36.31a118.69,118.69,0,0,0-19-6.82,3,3,0,0,0-1.82-.5,2.77,2.77,0,0,0-1.82-.51h0l-.47-.21a137.6,137.6,0,0,0-18.66-3.75c-4.69-.65-9.42-1.66-14.14-1.27a46.14,46.14,0,0,1-16.35-1.38c-8.59-2.38-16.18-6.84-23.68-11.43C97.8,103,77.74,91.56,56.31,82.76c-5.46-2.25-10.93-4.44-16.87-5a8.13,8.13,0,0,0-4.83.38A316.83,316.83,0,0,1,72,92.74c14.73,7,33.08,17.59,34.31,20.1-3.75-2.19-7.19-4.25-10.69-6.23a319.83,319.83,0,0,0-62-26.77c-3.17-1-5.48-.72-8,1.7,16.66,2.7,32.13,8,47.39,14.7a1.12,1.12,0,0,1-1.55.21c-15-5.64-30.57-9.27-46.18-12.73-1.85-.42-2.89,0-3.53,1.85C27.18,86.88,32.86,87.42,38,90a22.78,22.78,0,0,1-4.06-.66,114.51,114.51,0,0,0-12.23-2c-.61-.07-1.4-.29-1.59.44-.29,1.14.89.84,1.39,1,2.27.69,4.58,1.2,6.86,1.85a15.75,15.75,0,0,1,5,1.81H30.72L29,92.17l-.11-.1-.13.06a5.19,5.19,0,0,0-2.52-.42,5.37,5.37,0,0,0-3.21-.37c-1.29,0-2.52-1-3.92-.23a10.46,10.46,0,0,0,3.9,1.58l1.26.49c.32.6,1.64.28,1.31,1.7-2.17-.48-4.3-1-6.44-1.43-.53-.11-1.17-.68-1.53.26s.29,1.19.93,1.51,1.36.7,2,1.1c.38.23.85.51.66,1.06s-.75.34-1.17.25a6,6,0,0,1-1.32-.36c-1.57-.74-1.74,0-1.71,1.38.13,5.69,3,9.85,7.39,13.08,5.62,4.14,12.11,6.44,18.7,8.47.42.13,1,1,1.48,0-.08-.15-.12-.33-.22-.39-5.09-2.6-10.2-5.18-15.29-7.8-.49-.25-1.38-.46-1.09-1.2s1-.18,1.57,0a7,7,0,0,1,1.07.42c10.61,4.35,21.1,9,32,12.71,2.94,1,5.9,1.93,8.85,2.89-14.66-7.32-29.91-13.13-45.16-19,23.22,5.93,45.11,15.38,67,25-7.19-4.68-14.93-8.25-22.69-11.78-7.94-3.6-16-6.87-24.2-9.9-8-3-16-5.59-24.13-8.22a1.44,1.44,0,0,1,1.18-.26q15.17,4.05,29.92,9.41c26.38,9.57,51,22.65,74.45,37.94.77.51,1.51,1.23,2.72.59C97,127,60.69,109.62,21,99.37c.51-1.06.91-.9,1.26-.81,2.37.6,4.75,1.18,7.11,1.83,36.06,10,69.79,25,100.43,46.62.4.29.91,1.41,1.59.27.58-1-.2-1.35-.85-1.77-17.23-11.27-34.51-22.44-53.3-31A392.15,392.15,0,0,0,29.69,96.3c-.63-.2-1.89.17-1.76-1.23l.46,0a1.2,1.2,0,0,0,1.1.3.44.44,0,0,0,.41.11c.24.35.6.33,1,.3l2.5.71.72.22.71.2,1.57.46A2.71,2.71,0,0,0,38,97.8a8.05,8.05,0,0,0,3,1h.18a5.35,5.35,0,0,0,2.57.83h0a1,1,0,0,0,.95.32.37.37,0,0,0,.4.13l.51.23,1.11.3a5.81,5.81,0,0,0,2.54.88h0a2,2,0,0,0,1.4.5l1.25.43,2.84,1.06,2.24.77,1.06.4a1.83,1.83,0,0,0,1.3.5,6.73,6.73,0,0,0,2.69,1h0l1,.42a10.62,10.62,0,0,0,3.23,1.27l1.35.63.89.32a9.84,9.84,0,0,0,3.29,1.38l.94.4c.32.46.84.48,1.31.63l3,1.32,1.12.53,2.76,1.23a1.11,1.11,0,0,0,1,.46l.93.44,1.31.67,2.63,1.24,2,1c4.91,2.58,9.86,5.09,14.74,7.74a232.06,232.06,0,0,1,27.94,17.59c.39.29.79,1.22,1.48.46s-.11-1.1-.42-1.57a30,30,0,0,0-9.34-9c-.57-.36-1.44-.48-1.53-1.57a6.5,6.5,0,0,1,1,.14,22.69,22.69,0,0,1,11.17,7.68c.35.45.48,1.62,1.34,1.06a1.9,1.9,0,0,0,1-2.5,12.52,12.52,0,0,0-2.35-3.63,44.8,44.8,0,0,0-7.1-5.79c-.48-.35-1.31-.52-1.07-1.72,4.74,2.34,9.16,4.83,12.18,9.16.66,1,1,1,1.86.31a31.27,31.27,0,0,1,9.24-5c.63-.23,1.55-1,2,0,.34.81-.76,1-1.29,1.29-5.07,3.16-9.54,6.91-12.58,12.16-.69,1.2-1.3,2.3.36,3.22.39.22.77.61.48,1.13s-.88.42-1.38.13c-.32-.18-.65-.34-1.14-.6-.57,1.94,0,4-1,5.68-.22.38.27.81.62,1.13.86.77,1.47,1.52-.19,2.12-.56.2-.36.79-.27,1.21,1.91,8.33,4.41,16.47,10.45,22.82a166.61,166.61,0,0,0,26.4,22c16.09,11.1,33.48,20,50.53,29.43,8.63,4.78,17.43,9.27,25.54,14.94a44,44,0,0,1,11.72,11.51c.31.47,1.69,1.17.16,1.91-.27-.31-.44-.78-1-.58.25-.78-.24-1.15-.83-1.46C257.43,259.16,257.31,259,257,259Zm9.21-41.82c-.57.17-.78.68-1,1.15-.41.92-1.46,2.08-.76,2.8s1.91-.17,3.08-.72a4.23,4.23,0,0,1-1.36-3.27l.35-.08-.08-.21Zm60.21,1.39c-1.48-.2-2.41.23-2.26,1.93.05.59-.16,1.22-.67,1.35-2,.51-1.62,2-1.57,3.37,3.4-1.42,3.42-1.44,3.63-3.41.62.13.43,1.63,1.62.89,1-.62.22-1.17.11-1.76s-.65-.88-.44-1.48c1.6.12.89,2.37,2.33,2.65.78-.8-.78-1.47,0-2.2,1,.22.71,2.11,2,1.83s2.72-.14,3.91-.35,2.06.74,3.18.42c.46-.13.85.72.48.94-.87.5-1,1.47-1.67,2.07-1.43-1.8-2.9.33-4.37,0a.57.57,0,0,0-.65.72c.3.95,0,2.1,1.44,2.59s1.85-.1,2.22-1.46c0,2.19,1.89,2.16,2.89,3.06,1.62,1.45,1.88-1.88,3.7-.86.75.42,2.09-1.43,2.07-3,0-2.71-2.69-5.79-5.61-6.48.78,1.64,2,3.11,2.06,5l-.33.34c-.36-.84-.75-1.66-1.07-2.51-1.11-3-3-4.87-6.44-4.69a15.73,15.73,0,0,1-4,.16c-.63-.14-.66.45-.69.91C327.61,218.19,327,217.61,326.38,218.59ZM242.21,249.9c-.52-.41.86-1.53-.57-1.65-.33.78.5,1.05.6,1.61A108.33,108.33,0,0,1,246,261.39a58.13,58.13,0,0,0,5.71,13.7c.37.6.56,1.52,1.78,1.6A104.65,104.65,0,0,1,245,254.57,11.62,11.62,0,0,0,242.21,249.9Zm74,30.21.22.62c-.57,1.07-1.85,1.08-3,1.88,1,.27,1.48,1.08,2.43.68a4.55,4.55,0,0,0,5.43,0,46,46,0,0,0,3.81-2.89c.37-.28.52-1.19,1.15-.65s-.05.92-.43,1.28c-.23.21-.42.46-.63.68,3.83-.86,5.63-3.57,6.57-7.1.45,3.37-1.32,5.66-3.81,8.16,4.77-1.08,4.73-5.33,6.7-8,.07,3.07-1.39,5.54-3.13,8.07,3.16-.51,5.2-2.84,5-5.76a4.14,4.14,0,0,1,1.24-3.36c.26,3.46-.26,6.27-2.13,8.79,2.16-.14,2.16-.14,4.73-4,.35,1.2-.5,2.1-.43,3.11,2.39-.67,4.39-5,3.34-7.07-.35-.68-1-.59-1.58-.67-.88-.12-.66.62-.72,1.1a5.63,5.63,0,0,1-.77,3.18,8.45,8.45,0,0,1,0-1.73c.7-2.44-.64-3.05-2.68-3.08h-1.38c-3.58,0-6.85,1.39-10.21,2.4a4.7,4.7,0,0,0-3.4,2.85c-1.22,2.79-3.13,5.12-6.75,4.73,0-1.16,1-1,1.64-1.2a8.08,8.08,0,0,0,4.81-5.47,18.33,18.33,0,0,1-10.89-1.82c-1-.53-1.33-.18-1.62.73a4,4,0,0,0,1.12,4.34C312.6,281.64,314.34,281.44,316.16,280.11Zm50.18-41.81a3.87,3.87,0,0,0,3.85,1.67c1.46-.11,1.05.87,1.4,1.39.24.35.48.93.08,1.26-.73.58-1.2-.17-1.77-.49-1.26-.69-2.24-.9-2.35,1.12a2.39,2.39,0,0,1-1.67,2.45c-.73-1,.45-1.39.68-2.08.48-1.41.36-2.06-1.45-2-2.21.09-1.88,2.13-2.85,3.14-.31.33-1,.73-.54,1.3s1.1.48,1.86.28,1.3-1.41,2.33-.67c.12.68-1.16.86-.64,1.7,2.87.52,4.77-1,6.36-3.5.3,1.56-.66,2.17-1,3.19a5.19,5.19,0,0,0,4.73-3.15c.85-1.85-.5-3.17-1.8-4.3-2-1.79-4.65-2.47-7.13-3.4-.76-.29-.89.17-.94.75-.91,0-.64-1.15-1.36-1.31-2.75-.58-5.49-1.24-8.34-.88-.5.06-.77.19-.72.85.25,3.08,1.27,4,4.47,3.93a12.39,12.39,0,0,1,1.36.07c1.32.11,2.56.11,2.41-2,1,.79.23,2.44,1.75,2.38C366.12,240,366.13,239.05,366.34,238.3Zm-74.94,3.27-.1-.16.14.14c.69,1.72.66,4.09,2.27,5a18.31,18.31,0,0,0,12.06,2.65,3.37,3.37,0,0,0,3.11-3.4c0-.65-.08-1.09-.91-1.27Q299.75,242.72,291.4,241.57Zm1.66-13.6.4.42-3.3,2.05c2.16,0,4-.12,5.8,0,1.31.11,1.63-.57,1.71-1.56a9,9,0,0,0-2.38-7.13c-2.91-3.06-6.72-4.4-10.66-5.47-.62-.16-1,.28-1.46.45a1.73,1.73,0,0,0-1.19-1.08c-4.49-1.31-5.62-1-8.62,3,2.37.7,4.62,2,7.06.36-.57,1.24-.13,1.63,1.19,1.93a26.24,26.24,0,0,1,10.48,4.67c.46.36,1.19.74.81,1.43s-1.06.2-1.62,0c-1.3-.38-2.68-1.57-3.87-1.07-2.5,1.06-4.85,2.51-8,3.55C284.23,230.68,287.86,230.19,293.06,228Zm-39.45,7.45.42.38c-.08.57-1.25.9-.34,1.71a1.49,1.49,0,0,0,1.9.05,5,5,0,0,0,2.75-4.68c0-.51-.42-1.46.57-1.38.78.07.47,1,.49,1.53.1,2.4-1.09,4.19-3,5.79,2.1.13,3.14-1.08,4.18-2.29a4.2,4.2,0,0,1,1.58-1.11c1.77-.8,3.72-1.74,4.08-4.19a5.66,5.66,0,0,0-2.21-5.66,14.54,14.54,0,0,0-4.91-2.42,39.44,39.44,0,0,0-16.81-1,18.68,18.68,0,0,0-6.55,2c-1,.56-1.14,1-.05,1.7,1.49,1,2.73.85,4.56.55,6.42-1.05,12.95-1.19,19.28.91,1.05.35,2.3.62,2.83,2-1.66-.76-3.32.28-5.08-.42-1.51-.6-3.35-.05-5,.36-1.18.29-.58,1.75-1.21,2.51s-1.17,1.56-1.87,2.51C250.77,234.37,251.32,237.58,253.61,235.42Zm-96.35.13c.17.52,0,1.26,1.19,1.54-.69-.59-.51-1.32-1.23-1.5.2-1-.43-1.75-.7-2.61a69.93,69.93,0,0,1-4-30.78c.22-2.17,1.3-4.62.61-6.41s-3.12-3-4.75-4.51a122.53,122.53,0,0,1-13.86-14.85c-.65,13.4,5.09,37.56,10.45,43.62-2.58-9.86-4.22-19.79-2.76-30a81.17,81.17,0,0,0,2.6,22.16,70.53,70.53,0,0,0,8.67,20.35,75.39,75.39,0,0,1-5.37-40.52,2.86,2.86,0,0,1,.51,2.54,89.78,89.78,0,0,0,.42,13.52A79,79,0,0,0,157.26,235.55Zm130.93,20.7a6.32,6.32,0,0,1-5.83,6.55,10,10,0,0,1-5.94-1.35,77.23,77.23,0,0,0-9.82-4.67c.81,1.54.81,3.42,2.19,3.86,4.09,1.29,7.48,4.17,11.76,5,.66.13,1.35.78,2.07.49,3.73-1.51,6.31-4,7-8.16a24.94,24.94,0,0,0-1-12.22,16.61,16.61,0,0,0-18.17-10.83c-4.95.74-9,3.66-14,5a41,41,0,0,1,8.25,12.64,2.28,2.28,0,0,0,1.71,1.61c3.46.67,6.37,2.54,9.22,4.47C281.39,262.54,284.73,261.91,288.19,256.25ZM238.68,198.6c0,3.75,0,3.75,3.57,4.77a21.1,21.1,0,0,1,7.81,3.68c1.71,1.38,3.38,3,3.3,5.27-.1,3,1.6,3.89,3.95,4.46a10.88,10.88,0,0,1,2,.61,2.81,2.81,0,0,0,4.09-1.49,6.36,6.36,0,0,1,1.81-2.87c1-.8,1-1.76.8-2.87-1.48-8.62-12.1-18.45-20.85-19.26a5.3,5.3,0,0,0-5.51,3.25A10.31,10.31,0,0,0,238.68,198.6ZM199,205.3l9,4.7c3,1.6,3.1,1.66,5.45-1,2.11-2.34,4.19-4.74,7.33-5.67,2.28-.68,2.06-2.13,1.34-3.72-1-2.3-3.2-3.22-5.4-3.92a39.51,39.51,0,0,0-15.66-1.4c-5,.45-9.69,2.06-14.79,3.88,2.55,1.46,4.7,2.61,6.76,3.9a2.25,2.25,0,0,0,2.87,0,17.5,17.5,0,0,1,7.23-2.74c1.48-.24,2.91.69,4.45.15a9.12,9.12,0,0,1,6.45.56c.69.27,1.64.55,1.5,1.48-.18,1.18-1.19.53-1.87.57C208.78,202.42,203.74,202.19,199,205.3Zm99.48,2.59c-3.14,0-5.2,1-6.29,3-1.32,2.44-1,3.51,1.36,4.88,3.2,1.87,6,4.09,7.75,7.53,2.15,4.27,5.94,6.37,10.47,7.2,3.53.65,5.12-2.24,6.88-4.34,1.63-1.94.46-4.11-.82-5.88A30,30,0,0,0,305.5,210C303.27,209,300.94,207.53,298.5,207.89Zm-119,43.29c-5.69-12.54-7.19-25.51-4.77-39.56.49.68.65.81.65.93,0,.69,0,1.38,0,2.06-.62,13.09,1.49,25.57,8.14,37.07.51.87.77,2.09,2.49,1.52-4-5.36-5.53-11.52-6.51-17.89a87.28,87.28,0,0,1-.88-17.17c0-.6-.24-1.68.73-1.63s.51,1.11.51,1.7a63.27,63.27,0,0,0,.49,8.48A53.65,53.65,0,0,0,185,243.83a51.84,51.84,0,0,1-1.89-21.76c.62-4.23-.59-6.4-4.25-8.11-2.69-1.26-5.09-3.15-7.88-4.91C169.69,224.26,171.75,238.33,179.49,251.18Zm163.42-2.89a4.66,4.66,0,0,0,3.34-4.38c.28-3.17-1.49-5.38-3.75-7.22a26.7,26.7,0,0,0-19-6c-3,.17-5.94.75-8.35,2.78-1.25,1.06-2.47,2.39-2.18,4.07.74,4.31,5.31,5.71,8.79,2.82a54.3,54.3,0,0,1-4.82-2.6c-1-.69-3-1.21-2-3,.84-1.5,2.27-.25,3.25.16a25.92,25.92,0,0,0,14.51,2.19,14.13,14.13,0,0,1,6.74,1c3.77,1.32,4.88,2.8,4.43,6.71A23.46,23.46,0,0,1,342.91,248.29ZM216.07,211.53a14,14,0,0,0,5.28.61c5.56,0,10.77-2.4,16.46-2.15a19.41,19.41,0,0,1,6.57,1.18c.72.29,1.82.53,1.56,1.65-.3,1.28-1.45.11-2.22.58a5.93,5.93,0,0,1,.16,3.77c-.25.6,0,1.23.57,1.24,1.71,0,3.52.08,4.81-1.29a3.48,3.48,0,0,0,.52-4.62,10.57,10.57,0,0,0-3.5-3.25c-5.31-3.2-11.15-4.11-17.2-4C223.9,205.37,219.7,207.61,216.07,211.53Zm-51.44,30.76a3.77,3.77,0,0,0-.17-.94c-5.85-12-7.56-24.82-6.25-38,.36-3.62-1.36-5-3.78-6.57C150.9,209.17,157.37,238.17,164.63,242.29Zm129.07,6.6c.07,1.26.07,2.32.19,3.38.16,1.29,2.71,2.39,3.26,1.39.82-1.51,2-1.16,3.15-1.17,3.37-.05,6.77.09,10-1.14,3.9-1.48,4.58-4.38,2.25-7.79a22.3,22.3,0,0,0-10.4-7.91,22.59,22.59,0,0,0-14.5-1.27l1.11.7c3.78,2.34,8.09,3.06,12.31,4.14,3.58.91,7,2.35,9.11,5.66,1.27,2,.94,3.44-1.07,4.6a11.91,11.91,0,0,1-4.11,1.39C301.06,251.52,297.43,250.39,293.7,248.89Zm-125-4.82c-.77-2.22-1.61-4.41-2.27-6.66A77,77,0,0,1,163.93,207c.11-1,.9-2.25-.32-3.18-1.37-1-2.76-2.06-4.23-3.15C157.37,211.86,162,233.85,168.68,244.07Zm5,4.26c.28-.34.39-.43.37-.46a68.12,68.12,0,0,1-4.48-38.41c.09-.57.37-1.26-.31-1.68-1.32-.81-2.42-2-4.09-2.51C163.92,220.49,166.18,234.82,173.64,248.33ZM342.89,272.7a3.24,3.24,0,0,0-2.56-4c-1.31-.41-2.59-1-3.93-1.25-7.84-1.65-15.16.24-22.24,3.47-.53.24-1.39.36-1.38,1.3a29.32,29.32,0,0,0,14.53-.59c3.54-1.1,7.17-1.67,10.84-.63C339.73,271.44,341.25,272.1,342.89,272.7ZM214.1,233.9a2,2,0,0,0-.13.62,104.67,104.67,0,0,0,7.83,30c.58,1.38,1.6,1.49,2.91,1.63a81.24,81.24,0,0,1-5.81-26.25C218.72,236.38,217.31,234.67,214.1,233.9Zm-23.19-12.53a3.8,3.8,0,0,0-.23.72,66.19,66.19,0,0,0,8,34.36,1.85,1.85,0,0,0,2.31,1.08c-5.14-10.11-6.75-20.93-6.89-32C194.1,222.94,192.91,222.11,190.91,221.37Zm27,42.38a67,67,0,0,1-4.05-13.9,111.26,111.26,0,0,1-1.5-14.1c-.18-3.47-.79-4.18-4.44-4.85C207.29,239.33,214,262.19,217.93,263.75ZM192.17,251.8a10.37,10.37,0,0,0-.21-2c-2.58-8.8-3.91-17.79-3-26.93.27-2.65-1-3.42-2.75-4.37-1-.52-1.3-.47-1.36.71C184.3,230.59,186.21,241.41,192.17,251.8Zm27.67-35.38c2.62,1.53,4.64,2.72,6.67,3.88,1.84,1.06,3,.68,4.1-1.19.47-.8.33-1.92,1.38-2.72.53,2.63-.94,4.15-2.42,5.62a2.19,2.19,0,0,0,2.2.71c2-.69,2.21-2.77,3.15-4.32.56.39.3,1.37,1.45,1,1.86-.6,2.22-1.94,2.31-3.52.18-3.05,0-3.22-3-2.66-2.29.43-4.47,1.29-6.78,1.68C226.13,215.36,223.42,216.25,219.84,216.42ZM200.9,142.28c-.1,1.1-.25,2.2-.31,3.3-.78,14.83-2,29.61-5,44.19-.09.42-.56,1.11.35,1.25.68.1,1.1-.16,1.2-1,.34-2.73.73-5.46,1.19-8.18,2-12.22,4-24.45,4.95-36.82.06-.71.53-1.56-.46-2.23-.86,2.13-.24,4.41-1.41,6.63C201.21,146.84,201.68,144.56,200.9,142.28Zm.74,84.87a4.54,4.54,0,0,0-.15.89,109,109,0,0,0,8.16,32,1.74,1.74,0,0,0,2.07,1.25c-4.13-10-6.88-20.08-5.55-30.89a1,1,0,0,0-.64-1.27C204.25,228.53,203,227.85,201.64,227.15ZM215,191.75c1.2-.31,1.21-1,1.33-1.65,1.23-6,2.68-11.93,3.51-18s1.62-12.27,2.51-18.4a1.68,1.68,0,0,0-1.65-2.17c-1.29-.15-.82,1.05-.85,1.66-.63,9.93-2.21,19.74-3.54,29.58C215.94,185.77,215.47,188.76,215,191.75Zm-23.9-2.31c.74-.07.55-.69.61-1.05.66-4,2.12-7.85,2.67-11.92.17-1.27,1-2.8,1.16-4.29,1.19-9.79,2.31-19.59,3.55-29.37.23-1.78-.39-2.56-2.2-2.78A372.22,372.22,0,0,1,191.13,189.44Zm14.34-45.1c-.07.68-.17,1.28-.2,1.88q-.51,10.53-1.74,21a180.4,180.4,0,0,1-3.82,21.88c-.11.42-.84,1.22.26,1.44.78.15,1.34-.17,1.34-1.09a5.75,5.75,0,0,1,.1-.92c2.06-13.66,4.65-27.25,6.19-41C207.8,145.79,207.64,144.69,205.47,144.34Zm3.77,1.92q-.24,2-.48,4.05c-1.56,12.74-2.83,25.51-5.34,38.11-.12.64-.84,1.65.21,2,1.28.36,1.14-.9,1.27-1.65.76-4.44,1.47-8.89,2.24-13.33,1.52-8.8,2.62-17.67,3.77-26.53C211.07,147.6,211.28,146.32,209.24,146.26Zm4.89,4c.17-1.22.19-2.25-1-2.38s-.79,1.11-.85,1.66c-1.43,13.3-2.9,26.58-5.05,39.79-.07.41-.41,1,.24,1.14.83.19.71-.6.8-1.06.41-2.11.75-4.22,1.16-6.32C211.57,172.14,213,161.09,214.13,150.26Zm16,118c-1.11-4-2.29-7.91-3.28-11.88-1.14-4.61-2.2-9.24-3-13.95-.35-2.08.09-5.25-3.64-5.21a1.75,1.75,0,0,0-.07.44c1.34,10.22,4.8,19.86,8.22,29.5A1.59,1.59,0,0,0,230.13,268.26ZM217.92,151.51c.43-1.37-.54-1.93-1.52-2s-.65,1-.68,1.56a234.53,234.53,0,0,1-4.58,38.45c-.11.49-.64,1.3.36,1.47.76.12.7-.63.81-1.13A330.4,330.4,0,0,0,217.92,151.51Zm-22.15,72.73c.74,9.56,2.4,18.74,6.61,27.56a1.74,1.74,0,0,0,.23-1.8,87.42,87.42,0,0,1-2.86-20.82C199.7,226.39,198.76,224.93,195.77,224.24ZM223,195.87l.86.16c.39-2.14.75-4.28,1.17-6.42,2.07-10.58,3.47-21.27,4.75-32,.11-1,.42-2.24-1-2.33s-.83,1.38-.88,2c-.89,10.83-2.42,21.58-3.94,32.32C223.64,191.74,223.29,193.81,223,195.87Zm-3.67-2.62.59.11c.11-.17.3-.33.34-.51A324,324,0,0,0,226,155c.11-1.06,0-1.07-1.66-1.4C223.27,166.92,221.24,180.08,219.3,193.25Zm-31-22.05c.8-.36.66-.89.73-1.29a288.63,288.63,0,0,0,3.21-30.48c.06-.94,0-1.67-1.19-1.73-1.51-.08-1,1.09-1,1.76-.09,6.64-.43,13.26-1,19.88C188.73,163.25,188.54,167.16,188.28,171.2Zm52,100.63A120.27,120.27,0,0,1,231.75,244a2.1,2.1,0,0,0-2.14-2c.08.53.12.89.18,1.25,1.42,9.43,4.55,18.33,8.18,27.09A2.06,2.06,0,0,0,240.3,271.83ZM225,239.58c2,10.08,4.32,19.85,8.63,29.32.81-1.31.17-2.12-.13-2.93a84.58,84.58,0,0,1-4.93-22.52C228.34,241,227.21,240.17,225,239.58ZM184.8,174.13l.3,0c.29-1.8.59-3.6.85-5.4a283.52,283.52,0,0,0,2.5-29.67c0-.69.63-2-.76-2s-.78,1.28-.84,2c-.2,2.74-.25,5.5-.42,8.24C185.9,156.29,185.34,165.21,184.8,174.13Zm6.57-4.83.5,0a2.24,2.24,0,0,0,.32-.55c1.65-9.51,2.63-19.1,3.33-28.72,0-.8-.12-1.36-1-1.46-1.24-.13-.85.85-.88,1.41-.41,8.33-.9,16.65-1.85,24.94C191.61,166.4,191.51,167.85,191.37,169.3Zm52.44,104.46.79-.39a6.83,6.83,0,0,0-.27-.8,95,95,0,0,1-8.2-25.27c-.36-2-1.15-3.34-3.52-3.7A284.34,284.34,0,0,0,243.81,273.76Zm-15.08-72.37.46.12a17.17,17.17,0,0,0,.51-1.83c2-12.66,4.38-25.26,5.89-38,.13-1.11,1.17-3-.59-3.24-1.06-.14-.77,2-.86,3-.82,10.12-1.92,20.21-3.66,30.22C229.91,194.93,229.31,198.16,228.73,201.39Zm5.15-10.14a224.65,224.65,0,0,0,5.13-29.7c.08-.66.26-1.53-.69-1.67-1.19-.18-.78.94-.84,1.43C236.24,171.29,235.07,181.27,233.88,191.25ZM182.08,170l.34.05a14.7,14.7,0,0,0,.41-2c.82-9.73,1.65-19.46,2.4-29.2.05-.72.8-2.06-.76-2.15s-.95,1.3-1,2.05c-.17,7.09-.34,14.19-.84,21.28C182.42,163.41,182.27,166.72,182.08,170Zm55.45,19.21a141.51,141.51,0,0,0,3.75-18.08c.43-2.72.77-5.45,1.23-8.16a1.27,1.27,0,0,0-1.14-1.63c-1-.19-.75.77-.79,1.26C239.84,171.53,238.51,180.37,237.53,189.24Zm3.13-1.84A74.31,74.31,0,0,0,244,173.66c.53-3,1-6,1.47-9,.12-.76,0-1.49-.86-1.58s-.67.87-.74,1.35c-.36,2.41-.59,4.84-.93,7.26C242.23,176.91,241.43,182.16,240.66,187.4Zm45.27,38c-1.84-.49-3.65-1.53-5.36-.85a57.64,57.64,0,0,1-8.51,2.79C274.67,229.71,281.65,228.72,285.93,225.45Zm35.91,20.49c1.22,0,2.1,1.51,3.37,1,2-.85,4.14-1,6-2.21a5.16,5.16,0,0,0,2.4-2.95c.11-.42.31-1.07-.41-1-1.33.09-3-.31-3.83.92C327.53,244.43,324.81,245.24,321.84,245.94ZM366,248.67c-1.59-.29-2.95-.5-4.28-.8-3.42-.78-7.05.38-10.38-1.17a.63.63,0,0,0-.92.39c-.27.71.19,1,.74,1.15C356,249.74,360.77,250.9,366,248.67Zm-34.9.64A7.87,7.87,0,0,0,338,247.6a5.74,5.74,0,0,0,2.07-5.74c-.2-1.08-1-1.21-1.89-1.3-.71-.07-.69.4-.67.87C337.68,246,334.73,247.88,331.1,249.31Zm-34.74,22a62,62,0,0,0,5.81-6c-2.35-.61-4.56-.11-6.71-.43-.91-.13-1.1.45-.94,1.32A20.89,20.89,0,0,0,296.36,271.29Zm-4.22,3.43c-1.68-.31-3.08.31-4.52.3s-2.89-.2-4.33-.27-2.61-1-4.09-.32C285.1,278.25,288.91,278.36,292.14,274.72ZM179.81,158.87l.25,0q.94-10.47,1.88-20.94c0-.51.13-1.21-.62-1.25-.91,0-.79.75-.81,1.33Q180.15,148.44,179.81,158.87Zm76,33c.85-.05.9-.39,1-.66q2.11-9,4.21-18a4.73,4.73,0,0,0,.12-.91.71.71,0,0,0-.69-.76c-.55-.08-.48.36-.55.74-.46,2.83-.87,5.67-1.45,8.47C257.59,184.37,256.66,188,255.77,191.83Zm-8.65-27.61c-.93,7.5-2.07,14.56-3.34,21.6-.1.59-.54,1.52.69,1.45s.32-.89.38-1.35c.84-6.12,1.52-12.27,2.63-18.34C247.69,166.42,248.22,165.56,247.12,164.22Zm80.8,77.25c-4-2.05-6.89,1.79-11,1.95C322.27,245.13,326.06,244.34,327.92,241.47Zm-90.62,4.42a68.29,68.29,0,0,0,4.86,13.73C241.64,254.63,240.5,249.87,237.3,245.89Zm25.1-49.2.3,0c1.14-4.49,2.2-9,3.45-13.45.58-2.09.61-4.41,2.2-6.15-.53-.43-.08-1.41-.88-1.66s-.69.37-.77.79c-.25,1.28-.46,2.56-.72,3.83Q264.2,188.36,262.4,196.69Zm66.79,50.62c1.62.83,4.49-.23,6.42-2.36a4.49,4.49,0,0,0,1.31-3.52c-.06-.59-.21-1.07-.89-1.09s-1.23,0-1.35.84C334.23,244.45,331.87,246,329.19,247.31ZM239.1,218.39c3.47-.36,4.62-1.85,3.79-4.44-.43-1.33-1.39-1.19-2.37-1.23-1.29-.05-.92.91-1,1.6C239.39,215.6,239.26,216.89,239.1,218.39Zm11.66,11-8.13.54c1.82,1.15,3.34,2.08,4.81,3.06a1.13,1.13,0,0,0,1.6-.24A4.69,4.69,0,0,0,250.76,229.43Zm92.7,41.2c.24,1.56.48,3.05.71,4.54a19.16,19.16,0,0,1-.23,4.82C348.19,277.64,348,273.49,343.46,270.63Zm4.77-32.79c1.56.38,2.72.71,3.89.93.85.17,1.89,1,2.52.16s-.17-1.72-.37-2.59-.75-1.37-1.81-1A9.48,9.48,0,0,0,348.23,237.84ZM275.35,214.7c-2.89.08-5.55-.21-8.12,1.51C272.25,218.58,272.25,218.58,275.35,214.7ZM248,187.93l.69.09c.91-6.34,2-12.65,2-19.09Zm31.21,36.41c-3.9-1.73-6.77.17-9.75,1.4C272.81,226.87,275.74,225.39,279.21,224.34Zm-48.56-53q.94-6.52,1.87-13c.07-.5.28-1.22-.44-1.33s-.66.71-.68,1.15C231.28,162.54,230.14,166.9,230.65,171.32Zm71.58,56.29c1.25,3.49,7.32,6.08,10,4.22A17.27,17.27,0,0,1,302.23,227.61Zm36.53,21.29c2.53-.86,4.56-3.21,4.57-5.07,0-1.41-1.16-1.44-2.09-1.91C341.2,244.55,340.86,246.9,338.76,248.9ZM263.31,173l-.72-.15q-1.39,6.84-2.81,13.68C261.39,182.09,262.21,177.49,263.31,173Zm9.05,50.37c-2.43-1.44-4.26-2.41-6.23-.51C267.86,225.64,269.84,223.38,272.36,223.34Zm2.13-44.71c-1.43,1-2.43,2.15-2.22,2.64.89,2.06-.22,3.91.09,5.91C273,184.55,273.68,181.92,274.49,178.63ZM350.78,242c.11,1.1-.53,2.68.63,3,1.33.35,2.43-.74,2.77-2.27Zm3.09,4.07c2.4-.37,4-1.23,4.73-3.31C355.63,241.92,355.4,244.57,353.87,246.11ZM252.22,189.47l.55.16c.59-2.54,1.17-5.09,1.75-7.63A20.75,20.75,0,0,0,252.22,189.47Zm.86-22.13-.68-.06c-.16,2.29-.31,4.59-.47,6.89C252.51,171.91,253.39,169.68,253.08,167.34Zm67.34,80.93c-1.08-.15-1.71-1.32-2.31-.42a7.32,7.32,0,0,0-.69,2.82c0,.07.47.28.75.35.47.12.76-.11.65-.59C318.59,249.39,319.27,248.93,320.42,248.27Zm-61.36-77.64-.65-.14L257.24,177A14.9,14.9,0,0,0,259.06,170.63Zm.24,23.55.67.17q1-3.73,2.09-7.46l-.27-.08Zm102.8,48c-.26,0-.55,0-.84-.06-1.45,0-1.54,1.17-1.92,2.1a.57.57,0,0,0,.47.84c1.14.13,1.38-.93,1.89-1.59A1.33,1.33,0,0,0,362.1,242.2ZM193.73,185.34c-.34,2.1-.69,4.19-1,6.29l.75.1A16.52,16.52,0,0,0,193.73,185.34Zm61.4,83.77a10.65,10.65,0,0,0-3.07-6.14ZM264.47,199c.22-1.39,1-2.72.47-4.21C264.81,196.15,263.31,197.38,264.47,199Zm67.16,28.89c-.56-1.25-.21-2.35-1.48-2.34a.9.9,0,0,0-.95,1.05C329.34,227.84,330.46,227.17,331.63,227.84Zm-67.71-49.78c.56-1.32,1.18-2.63.62-4.14C264.33,175.3,264.13,176.68,263.92,178.06Zm14.72,9.62c.74-1.87,1.31-3.26,1.08-4.83C279.4,184.29,279.07,185.74,278.64,187.68Zm-10.9,12.5c-.22,1.1-1.42,2-.44,3.57C267.56,202.39,268.09,201.35,267.74,200.18Zm77.73,33.67c1.09,1.44,1.09,1.44,2.8-.57Zm-89.7,35.65a1.57,1.57,0,0,0,.62,1.57C256.58,270.47,256.23,270.08,255.77,269.5Zm-4.14-93.61.06-.21.06.21ZM169,245.13c.05,0,.13-.09.14-.14s-.08-.11-.13-.16l-.14.22Z"/><path class="cls-1" d="M302.62,319.81c-6.93.11-12.08-.37-17-2.33a11.44,11.44,0,0,1-4.79-3.05c-1.56-1.88-1.4-3.92.52-5.38.91-.7,1.55-1.26.7-2.35-.5-.66-.2-1.31-.06-2,1.55-7.17,6.59-10.87,13.18-12.55a33,33,0,0,1,19.89.79c7.24,2.66,9.18,6.22,7.38,13.67-.13.58,0,.74.41,1.08,2.21,1.93,2.39,4,.57,6.3a11.07,11.07,0,0,1-5.3,3.47C312.55,319.46,306.74,319.66,302.62,319.81Zm-4.54-13.08a8.06,8.06,0,0,1-2.64,4.84c-.23.22-.8.27-.5.82s.57.34,1,.33c1.4,0,2.12-1.09,3-1.9,1.33-1.2,1.83-3,2.8-4.45.35,2.55-1.25,4.31-2.75,6.49,5.26-.7,5.1-5,6.35-8.25.49,2.8-.57,5.17-1.91,7.53a3.1,3.1,0,0,0,3-1.34c.65-.84.87-2,1.9-2.62.74,1.2-.76,2-.39,3,2.69-.71,3.93-3.34,3.35-6.74-.2-1.16-.72-1.45-1.84-1.44a40.9,40.9,0,0,0-7.86,1.35,45.94,45.94,0,0,1-10.43,1.53c-.91,0-1.69-.31-1.91-1.3s.57-1.31,1.26-1.65a22,22,0,0,1,8.63-2.13c4.67-.26,9.35-.33,14-.45.67,0,1.65-.92,1.94.23.23.88-.74,1.36-1.49,1.79-.54.31-1.77.05-1.54,1,.53,2.07.1,4.15.15,6.29,4.31-.89,2.25-4.45,3.1-6.81.71,1.64.29,3.28.46,4.89a2.07,2.07,0,0,0,.7-.08c1.23-.59,2.62-1.51,2.17-2.87-.82-2.47.53-5.86-2.59-7.38-8.68-4.24-17.52-4.29-26,.25-7.85,4.2-6.27,8.2.15,13.13,2.13,1.64,3.53,1.31,5.38-.7A41.62,41.62,0,0,0,298.08,306.73Z"/><path class="cls-1" d="M341.68,300.75c-.21-1.24.81-1.53,1.58-1.95,6.93-3.77,14-3.33,21-.38a29.36,29.36,0,0,1,11.35,8c3.89,4.62,3.48,8.64-1.19,12.42a1.56,1.56,0,0,0-.8,1.45c.08,4-2,6.31-6.12,6.78a23.89,23.89,0,0,1-7.77-.36c-5.31-1.15-10.63-2.26-15.54-4.72a13.31,13.31,0,0,1-6.31-5.8c-1.38-2.72-1-4.29,1.44-6.49a.85.85,0,0,0,.15-1L339.3,304c.17-.41.35-.81.51-1.21l.06-.06a.18.18,0,0,0,.28-.11,1.48,1.48,0,0,1,1.93,1.35,8.85,8.85,0,0,0,1.23,3.36.33.33,0,0,0,.12.35l.27.59,0-.14,0,.13a3.07,3.07,0,0,0,1,1.8h0A3.55,3.55,0,0,0,346,312l.08-.1-.09.09a5.25,5.25,0,0,0,2.39,2.27,2.59,2.59,0,0,0,1.46.93c1.28,1.55,2.93,1.12,4.55.84.22.36-.66.84.08,1.13a2.34,2.34,0,0,0,2.36-.19c1.47-1,2.14-2.61,3.21-4.44.69,2.51-1.11,3.65-1.82,5.48,2.35-.55,4.65.29,6.61-1.17l.36.33a1.74,1.74,0,0,0,.07.42c2.43.11,6.36-2.29,7.2-4.52,1-2.68-.51-4.59-2.32-6.21a28.84,28.84,0,0,0-16.34-7.64,17.61,17.61,0,0,0-10.14,1.57l-1.22.42Z"/><path class="cls-2" d="M357.16,270.08c1.83.07,3.66.27,5.49.18,1.39-.07,1.38.7,1.38,1.63l0,0a6.63,6.63,0,0,0-1.86,2.77l0,0c-.57.06-.94.32-.94.94l0,0c-1.51.79-2.92,1.17-3.7-.93v0c1.66-.44,2.32-1.94,3.24-3.13.24-.3.13-.39-.94-.19C359.48,269.76,357.79,271.1,357.16,270.08Z"/><path class="cls-2" d="M343.31,307.36a8.85,8.85,0,0,1-1.23-3.36,1.48,1.48,0,0,0-1.93-1.35l1.53-1.9.78.41C341.84,303.35,343.85,305.18,343.31,307.36Z"/><path class="cls-1" d="M359.89,271.3c1.07-.2,1.18-.11.94.19-.92,1.19-1.58,2.69-3.24,3.13C357.67,273,359.54,272.7,359.89,271.3Z"/><path class="cls-2" d="M339.3,304l.19,4.61C338.21,307.15,338.56,305.6,339.3,304Z"/><path class="cls-2" d="M339.23,302.2l-.19-.11.19.11Z"/><path class="cls-2" d="M339.23,302.2l.64.56-.06.06c-.19-.21-.38-.42-.58-.62Z"/><path class="cls-3" d="M174.78,138.28c-.56,5.25-.58,10.56-1.79,15.76-.46,2-.16,4.09-.21,6.14-.67-.92-.16-2-.43-3-.49-2.12.2-4.25-.54-6.43q-1.47,16.62-2.95,33.2c-.71.24-.87-.32-1.12-.63-8.28-10.32-13.33-24.69-2.16-40.47.63-.89,1.49-1.84.27-2.76s-1.8.31-2.47,1c-9.09,8.79-11.39,22.36-5.94,34.83,3.37,7.72,9,13.63,15.47,18.76,8.42,6.61,18,11.33,27.41,16.22,15.77,8.17,30.9,17.46,46.07,26.68,7.36,4.48,12.07,11.1,15.57,18.79,3.16,6.93,6.91,13.5,12.65,18.69,6.16,5.57,13.1,6.49,19,2.15,1.82-1.33,2.66-3.83,4.45-5.47a60.34,60.34,0,0,0,6.89-8c.54,2.4.4,4.27-1.33,6-2,2-3.65,4.39-5.8,6.2-4.34,3.69-8.7,7.47-14.79,8.09a6.91,6.91,0,0,1-3.35-.39,23.49,23.49,0,0,1-10.58-8.51c-1.41-1.91-2.59-4-4.06-5.85s-1.79-5.12-4.91-5.87c-.4-.1-.59-1-.88-1.53a.31.31,0,0,0,0-.28c1.53-.74.15-1.44-.16-1.91a44,44,0,0,0-11.72-11.51c-8.11-5.67-16.91-10.16-25.54-14.94-17.05-9.44-34.44-18.33-50.53-29.43a166.61,166.61,0,0,1-26.4-22c-6-6.35-8.54-14.49-10.45-22.82-.09-.42-.29-1,.27-1.21,1.66-.6,1.05-1.35.19-2.12-.35-.32-.84-.75-.62-1.13,1-1.73.4-3.74,1-5.68.49.26.82.42,1.14.6.5.29,1,.5,1.38-.13s-.09-.91-.48-1.13c-1.66-.92-1.05-2-.36-3.22,3-5.25,7.51-9,12.58-12.16.53-.33,1.63-.48,1.29-1.29-.43-1-1.35-.24-2,0a31.27,31.27,0,0,0-9.24,5c-.86.7-1.2.65-1.86-.31-3-4.33-7.44-6.82-12.18-9.16-.24,1.2.59,1.37,1.07,1.72a44.8,44.8,0,0,1,7.1,5.79,12.52,12.52,0,0,1,2.35,3.63,1.9,1.9,0,0,1-1,2.5c-.86.56-1-.61-1.34-1.06a22.69,22.69,0,0,0-11.17-7.68,6.5,6.5,0,0,0-1-.14c.09,1.09,1,1.21,1.53,1.57a30,30,0,0,1,9.34,9c.31.47,1,.92.42,1.57s-1.09-.17-1.48-.46a232.06,232.06,0,0,0-27.94-17.59c-4.88-2.65-9.83-5.16-14.74-7.74-.08-1.49-1.16-1-2-1l-2.63-1.24c-.16-.76-.76-.66-1.31-.67l-.93-.44a.84.84,0,0,0-1-.46l-2.76-1.23c-.18-.58-.62-.61-1.12-.53l-3-1.32c0-1-.4-1.42-1.31-.63l-.94-.4c-.5-1.87-2-1.39-3.29-1.38l-.89-.32c-.2-.75-.8-.64-1.35-.63A10.62,10.62,0,0,1,63,106.57c-.17-.52-.54-.58-1-.42h0c-.28-1.92-1.77-.77-2.69-1a1.83,1.83,0,0,1-1.3-.5.91.91,0,0,0-1.06-.4l-2.24-.77c-.36-2-1.84-.84-2.84-1.06L50.6,102c-.28-.67-.85-.57-1.4-.5h0c-.36-1.69-1.62-.77-2.54-.88l-1.11-.3-.51-.23a.37.37,0,0,1-.4-.13.85.85,0,0,0-.95-.32h0c.07-.73-.13-1.57.72-2l3,1c.43,1.58,1.65.74,2.56.84l.12,0,.08.09c.4,1.59,1.62.76,2.53.87l1.2.36c.27.8.9.63,1.49.57l3.54,1.22.42.23h0a.9.9,0,0,0,1.06.39h.18l.14.11a.42.42,0,0,0,.61.18l0,.12v-.12c.21,1.1,1.08.58,1.69.69l3.21,1.14.43.26h0a.89.89,0,0,0,1,.4l1.27.51a.9.9,0,0,0,1,.41.28.28,0,0,1,.33.11c.27,1.23,1.21.78,2,.81a11.94,11.94,0,0,1,3.56,1.46.89.89,0,0,0,1,.4.42.42,0,0,1,.41.13l.59.3a.28.28,0,0,1,.33.12l.68.31,3,1.2.44.26a10.78,10.78,0,0,1,3.22,1.41.87.87,0,0,0,.93.42h0c.46,1.61,1.7,1.47,3,1.31a.19.19,0,0,1,.25.13c.22,1.2,1.16.8,1.89.85l1.84.83c.14,1.46,1.21.92,2,.94h.14l.09.11a.89.89,0,0,0,.91.44h0a.89.89,0,0,0,.93.44,9.74,9.74,0,0,1,1.07.39c6.62,3.3,13.24,6.62,19.88,9.91.48.24,1.14.95,1.59.25s-.5-.91-.93-1.23a10.93,10.93,0,0,0-1.18-.72,339.89,339.89,0,0,0-43.41-20.62c-12.51-4.94-25.31-9-38.16-12.93-.39-.39-.69-.32-.89.18.07,1.17,1.29.8,1.82,1.35.37.55.91.47,1.45.42H39l.17.11c.46,1.43,1.61.67,2.49.78l.16,0,.11.11c.52,1,1.22,2-.76,2H41c-.48-1.89-1.94-.76-3-1a2.71,2.71,0,0,1-1.63-.46c-.37-.69-1-.53-1.57-.46l-.71-.2-.72-.22-2.5-.71a.94.94,0,0,0-1-.3.44.44,0,0,1-.41-.11,1,1,0,0,0-1.1-.3l-.46,0c-.61-.16-1.45.05-1.6-.86-.21-1.33-1.15-1.08-2-1l-1.26-.49c0-.45,0-.9,0-1.35a5.37,5.37,0,0,1,3.21.37c.72.84,1.65.43,2.52.42l.13-.06.11.1c.32,1.56,1.07.47,1.68.28h2.64a15.75,15.75,0,0,0-5-1.81C26,90,23.73,89.48,21.46,88.79c-.5-.15-1.68.15-1.39-1,.19-.73,1-.51,1.59-.44a114.51,114.51,0,0,1,12.23,2A22.78,22.78,0,0,0,38,90c-5.09-2.58-10.77-3.12-16.3-4.43.64-1.83,1.68-2.27,3.53-1.85,15.61,3.46,31.17,7.09,46.18,12.73a1.12,1.12,0,0,0,1.55-.21c-15.26-6.67-30.73-12-47.39-14.7,2.57-2.42,4.88-2.7,8.05-1.7a319.83,319.83,0,0,1,62,26.77c3.5,2,6.94,4,10.69,6.23C105.05,110.33,86.7,99.72,72,92.74A316.83,316.83,0,0,0,34.61,78.1a8.13,8.13,0,0,1,4.83-.38c5.94.6,11.41,2.79,16.87,5C77.74,91.56,97.8,103,117.53,115c7.5,4.59,15.09,9,23.68,11.43a46.14,46.14,0,0,0,16.35,1.38c4.72-.39,9.45.62,14.14,1.27a137.6,137.6,0,0,1,18.66,3.75l.47.21h0c1.29,2.09-1,.37-1.07,1L189,134a16.3,16.3,0,0,0-8.71.08h0a.88.88,0,0,0-.93.24l-1.33.21c-.67,0-1.42-.29-1.87.51l-1.29.43c-.6,0-1.59-.82-1.52.69a17.24,17.24,0,0,0-2.06,1.27c-.18.14-.06.66-.08,1l.81-.25c.75-.16,1.7.42,2.19-.64Zm-8.3,18.26c-.5,6.68-1.12,13.36-.74,20.08A78.93,78.93,0,0,0,166.48,156.54Zm3.46-3.91c-1.56,2.34-2.5,14.68-1.48,17.31C168.94,164.3,169.43,158.57,169.94,152.63Zm.1-7.2.67.09.8-5.81-.66-.09Z"/><path class="cls-2" d="M24.31,93.18c.87-.05,1.81-.3,2,1,.15.91,1,.7,1.6.86-.13,1.4,1.13,1,1.76,1.23a392.15,392.15,0,0,1,47.52,18.18c18.79,8.59,36.07,19.76,53.3,31,.65.42,1.43.81.85,1.77-.68,1.14-1.19,0-1.59-.27C99.13,125.35,65.4,110.35,29.34,100.39c-2.36-.65-4.74-1.23-7.11-1.83-.35-.09-.75-.25-1.26.81C60.69,109.62,97,127,130.54,150.66c-1.21.64-1.95-.08-2.72-.59-23.47-15.29-48.07-28.37-74.45-37.94q-14.76-5.35-29.92-9.41a1.44,1.44,0,0,0-1.18.26c8.1,2.63,16.17,5.27,24.13,8.22,8.18,3,16.26,6.3,24.2,9.9,7.76,3.53,15.5,7.1,22.69,11.78-21.86-9.64-43.75-19.09-67-25,15.25,5.82,30.5,11.63,45.16,19-3-1-5.91-1.89-8.85-2.89-10.86-3.72-21.35-8.36-32-12.71a7,7,0,0,0-1.07-.42c-.53-.13-1.25-.78-1.57,0s.6,1,1.09,1.2c5.09,2.62,10.2,5.2,15.29,7.8.1.06.14.24.22.39-.49,1-1.06.1-1.48,0-6.59-2-13.08-4.33-18.7-8.47-4.38-3.23-7.26-7.39-7.39-13.08,0-1.35.14-2.12,1.71-1.38a6,6,0,0,0,1.32.36c.42.09.95.36,1.17-.25s-.28-.83-.66-1.06c-.66-.4-1.33-.76-2-1.1s-1.29-.58-.93-1.51,1-.37,1.53-.26c2.14.46,4.27,1,6.44,1.43C26,93.46,24.63,93.78,24.31,93.18Z"/><path class="cls-3" d="M288.19,256.25c-3.46,5.66-6.8,6.29-12.55,2.39-2.85-1.93-5.76-3.8-9.22-4.47a2.28,2.28,0,0,1-1.71-1.61,41,41,0,0,0-8.25-12.64c4.93-1.32,9-4.24,14-5a16.61,16.61,0,0,1,18.17,10.83,24.94,24.94,0,0,1,1,12.22c-.7,4.17-3.28,6.65-7,8.16-.72.29-1.41-.36-2.07-.49-4.28-.85-7.67-3.73-11.76-5-1.38-.44-1.38-2.32-2.19-3.86a77.23,77.23,0,0,1,9.82,4.67,10,10,0,0,0,5.94,1.35A6.32,6.32,0,0,0,288.19,256.25Zm-22.61-15.33c-1.48.05-2,.91-1.8,2.27.4,2.6,2.11,4.15,4.36,5.21,2,.92,4.12,1,6.2,1.5,3.54.8,7.21,1.35,9.85,4.26a.69.69,0,0,0,1,.17,1.12,1.12,0,0,0,.38-1.42,6.69,6.69,0,0,0-2.43-3c-2.92-2.23-6.33-3.29-9.81-4.21-2.49-.65-4.75-1.67-6.27-3.88A1.68,1.68,0,0,0,265.58,240.92Z"/><path class="cls-2" d="M157.26,235.55a79,79,0,0,1-8.21-27.44,89.78,89.78,0,0,1-.42-13.52,2.86,2.86,0,0,0-.51-2.54,75.39,75.39,0,0,0,5.37,40.52,70.53,70.53,0,0,1-8.67-20.35,81.17,81.17,0,0,1-2.6-22.16c-1.46,10.2.18,20.13,2.76,30-5.36-6.06-11.1-30.22-10.45-43.62a122.53,122.53,0,0,0,13.86,14.85c1.63,1.5,4,2.67,4.75,4.51s-.39,4.24-.61,6.41a69.93,69.93,0,0,0,4,30.78c.27.86.9,1.63.7,2.61Z"/><path class="cls-2" d="M194.46,134.07a118.69,118.69,0,0,1,19,6.82c26.21,11.27,52.28,22.84,77.45,36.31,3.84,2.05,7.59,4.3,11.25,6.66,9.82,6.32,15.21,15.46,16.79,26.95.28,2,.67,4,1,6.2-1.72-1.65-3.3-3.17-4.87-4.71a1.12,1.12,0,0,1-.35-.76c.84-9.85-4.32-16.84-11-23.06-3.84-3.57-8.35-6.19-12.89-8.75-12.54-7.08-25.84-12.59-38.76-18.89C237.41,153.7,223,146.13,208,139.71a102.25,102.25,0,0,0-15.42-5.16l.15-.16C193.33,134.43,194,134.67,194.46,134.07Z"/><path class="cls-2" d="M238.68,198.6a10.31,10.31,0,0,1,.93-4.45,5.3,5.3,0,0,1,5.51-3.25c8.75.81,19.37,10.64,20.85,19.26.19,1.11.22,2.07-.8,2.87a6.36,6.36,0,0,0-1.81,2.87,2.81,2.81,0,0,1-4.09,1.49,10.88,10.88,0,0,0-2-.61c-2.35-.57-4.05-1.46-3.95-4.46.08-2.24-1.59-3.89-3.3-5.27a21.1,21.1,0,0,0-7.81-3.68C238.67,202.35,238.67,202.35,238.68,198.6Zm23.88,12a5.57,5.57,0,0,0-1.59-3.71,125.46,125.46,0,0,0-12.78-11.49,1.72,1.72,0,0,0-2.49,0c-.67.71-.4,1.53.11,2.3a18.67,18.67,0,0,0,4.22,4.51c2.83,2.2,5.74,4.31,8.6,6.48a4.47,4.47,0,0,1,1.79,2.32c.19.69-.4,1.93,1.12,1.62C262.65,212.42,262.48,211.43,262.56,210.59Z"/><path class="cls-3" d="M199,205.3c4.72-3.11,9.76-2.88,14.68-3.2.68,0,1.69.61,1.87-.57.14-.93-.81-1.21-1.5-1.48a9.12,9.12,0,0,0-6.45-.56c-1.54.54-3-.39-4.45-.15a17.5,17.5,0,0,0-7.23,2.74,2.25,2.25,0,0,1-2.87,0c-2.06-1.29-4.21-2.44-6.76-3.9,5.1-1.82,9.81-3.43,14.79-3.88a39.51,39.51,0,0,1,15.66,1.4c2.2.7,4.36,1.62,5.4,3.92.72,1.59.94,3-1.34,3.72-3.14.93-5.22,3.33-7.33,5.67-2.35,2.62-2.41,2.56-5.45,1Z"/><path class="cls-2" d="M298.5,207.89c2.44-.36,4.77,1.15,7,2.12a30,30,0,0,1,12.35,10.27c1.28,1.77,2.45,3.94.82,5.88-1.76,2.1-3.35,5-6.88,4.34-4.53-.83-8.32-2.93-10.47-7.2-1.73-3.44-4.55-5.66-7.75-7.53-2.36-1.37-2.68-2.44-1.36-4.88C293.3,208.86,295.36,207.84,298.5,207.89ZM315,224.54a4.12,4.12,0,0,0-1.41-2.91,17.62,17.62,0,0,0-4-3,42.35,42.35,0,0,1-10.44-7.73c-.72-.79-1.57-1.35-2.59-.56s-.71,1.75-.28,2.7a12.26,12.26,0,0,0,4.41,4.85c2.45,1.74,5.37,2.53,8,3.9a12.71,12.71,0,0,1,4.44,3.14c.37.48-.06,1.7,1,1.42C314.88,226.14,314.94,225.19,315,224.54Z"/><path class="cls-2" d="M179.49,251.18c-7.74-12.85-9.8-26.92-8.54-42.13,2.79,1.76,5.19,3.65,7.88,4.91,3.66,1.71,4.87,3.88,4.25,8.11A51.84,51.84,0,0,0,185,243.83a53.65,53.65,0,0,1-4.67-17.14,63.27,63.27,0,0,1-.49-8.48c0-.59.49-1.64-.51-1.7s-.7,1-.73,1.63a87.28,87.28,0,0,0,.88,17.17c1,6.37,2.53,12.53,6.51,17.89-1.72.57-2-.65-2.49-1.52-6.65-11.5-8.76-24-8.14-37.07,0-.68,0-1.37,0-2.06,0-.12-.16-.25-.65-.93C172.3,225.67,173.8,238.64,179.49,251.18Z"/><path class="cls-2" d="M253.61,235.42c-2.29,2.16-2.84-1-4.41-1.2.7-.95,1.25-1.76,1.87-2.51s0-2.22,1.21-2.51c1.62-.41,3.46-1,5-.36,1.76.7,3.42-.34,5.08.42-.53-1.37-1.78-1.64-2.83-2-6.33-2.1-12.86-2-19.28-.91-1.83.3-3.07.43-4.56-.55-1.09-.71-1-1.14.05-1.7a18.68,18.68,0,0,1,6.55-2,39.44,39.44,0,0,1,16.81,1,14.54,14.54,0,0,1,4.91,2.42,5.66,5.66,0,0,1,2.21,5.66c-.36,2.45-2.31,3.39-4.08,4.19a4.2,4.2,0,0,0-1.58,1.11c-1,1.21-2.08,2.42-4.18,2.29,2-1.6,3.15-3.39,3-5.79,0-.55.29-1.46-.49-1.53-1-.08-.55.87-.57,1.38a5,5,0,0,1-2.75,4.68,1.49,1.49,0,0,1-1.9-.05c-.91-.81.26-1.14.34-1.71l.28-.6a.93.93,0,0,0,.48-.9.94.94,0,0,0,.41-1l.13-.34-.4.06-.45,1c-.18.29-.36.57-.53.86Z"/><path class="cls-2" d="M342.91,248.29a23.46,23.46,0,0,0,1-3.41c.45-3.91-.66-5.39-4.43-6.71a14.13,14.13,0,0,0-6.74-1A25.92,25.92,0,0,1,318.2,235c-1-.41-2.41-1.66-3.25-.16-1,1.78,1,2.3,2,3a54.3,54.3,0,0,0,4.82,2.6c-3.48,2.89-8,1.49-8.79-2.82-.29-1.68.93-3,2.18-4.07,2.41-2,5.35-2.61,8.35-2.78a26.7,26.7,0,0,1,19,6c2.26,1.84,4,4.05,3.75,7.22A4.66,4.66,0,0,1,342.91,248.29Z"/><path class="cls-2" d="M216.07,211.53c3.63-3.92,7.83-6.16,13-6.27,6-.12,11.89.79,17.2,4a10.57,10.57,0,0,1,3.5,3.25,3.48,3.48,0,0,1-.52,4.62c-1.29,1.37-3.1,1.32-4.81,1.29-.56,0-.82-.64-.57-1.24a5.93,5.93,0,0,0-.16-3.77c.77-.47,1.92.7,2.22-.58.26-1.12-.84-1.36-1.56-1.65a19.41,19.41,0,0,0-6.57-1.18c-5.69-.25-10.9,2.12-16.46,2.15A14,14,0,0,1,216.07,211.53Z"/><path class="cls-2" d="M378.13,275.4c-.85,1.06-1.53,2.28-3.16,2.34-.7,0-.68-.41-.8-.82h0a1.65,1.65,0,0,0,.93-2.33l0,0c.21,0,.48.1.5-.24.07-1.67-.26-3.75,2.62-2.56.33.14.55-.07.59-.44.06-.7-.44-.87-.94-1.1a28.68,28.68,0,0,0-8.61-2.21c-3.87-.43-7.75-.78-11.62-1.21a3.07,3.07,0,0,1-2.21-.69,6.47,6.47,0,0,1,4.32-3A25.41,25.41,0,0,1,379.55,266a3.81,3.81,0,0,1,2.05,3.79c-.08,1.37-.08,2.75-.13,4.12-.09,2.29-.92,3.11-3.44,3.34l.54-1.47.18-1.13.25-.26-.28,0,.08.32C378,274.39,378.31,275.12,378.13,275.4Z"/><path class="cls-2" d="M164.63,242.29c-7.26-4.12-13.73-33.12-10.2-45.48,2.42,1.56,4.14,2.95,3.78,6.57-1.31,13.15.4,25.93,6.25,38A3.77,3.77,0,0,1,164.63,242.29Z"/><path class="cls-2" d="M293.7,248.89c3.73,1.5,7.36,2.63,11.28,2a11.91,11.91,0,0,0,4.11-1.39c2-1.16,2.34-2.62,1.07-4.6-2.14-3.31-5.53-4.75-9.11-5.66-4.22-1.08-8.53-1.8-12.31-4.14l-1.11-.7a22.59,22.59,0,0,1,14.5,1.27,22.3,22.3,0,0,1,10.4,7.91c2.33,3.41,1.65,6.31-2.25,7.79-3.21,1.23-6.61,1.09-10,1.14-1.15,0-2.33-.34-3.15,1.17-.55,1-3.1-.1-3.26-1.39C293.77,251.21,293.77,250.15,293.7,248.89Z"/><path class="cls-2" d="M283.17,216.76c.47-.17.84-.61,1.46-.45,3.94,1.07,7.75,2.41,10.66,5.47a9,9,0,0,1,2.38,7.13c-.08,1-.4,1.67-1.71,1.56-1.81-.15-3.64,0-5.8,0l3.3-2.05c.22-.14.59-.25.3-.59s-.48,0-.7.17c-5.2,2.22-8.83,2.71-13.65,1.6,3.15-1,5.5-2.49,8-3.55,1.19-.5,2.57.69,3.87,1.07.56.16,1.22.69,1.62,0s-.35-1.07-.81-1.43A26.24,26.24,0,0,0,281.61,221c-1.32-.3-1.76-.69-1.19-1.93h0c.62.45.79,0,1-.47l0,0c.51-.13.92-.35.95-1l0,0a1,1,0,0,0,.95-1Zm11.32,10.37c-.21.13-.6.24-.3.57s.45,0,.64-.23l.51-.31a3.4,3.4,0,0,0,.49-.6c-.32-.35-.61-.22-.83.15Z"/><path class="cls-2" d="M315.8,283.34c3.62.39,5.53-1.94,6.75-4.73a4.7,4.7,0,0,1,3.4-2.85c3.36-1,6.63-2.36,10.21-2.4h1.38c2,0,3.38.64,2.68,3.08a8.45,8.45,0,0,0,0,1.73A5.63,5.63,0,0,0,341,275c.06-.48-.16-1.22.72-1.1.55.08,1.23,0,1.58.67,1.05,2.07-.95,6.4-3.34,7.07-.07-1,.78-1.91.43-3.11-2.57,3.85-2.57,3.85-4.73,4,1.87-2.52,2.39-5.33,2.13-8.79a4.14,4.14,0,0,0-1.24,3.36c.17,2.92-1.87,5.25-5,5.76,1.74-2.53,3.2-5,3.13-8.07-2,2.69-1.93,6.94-6.7,8,2.49-2.5,4.26-4.79,3.81-8.16-.94,3.53-2.74,6.24-6.57,7.1.21-.22.4-.47.63-.68.38-.36,1-.81.43-1.28s-.78.37-1.15.65a46,46,0,0,1-3.81,2.89,4.55,4.55,0,0,1-5.43,0Z"/><path class="cls-2" d="M168.68,244.07c-6.66-10.22-11.31-32.21-9.3-43.42,1.47,1.09,2.86,2.11,4.23,3.15,1.22.93.43,2.15.32,3.18a77,77,0,0,0,2.48,30.43C167.07,239.66,167.91,241.85,168.68,244.07Z"/><path class="cls-2" d="M173.64,248.33c-7.46-13.51-9.72-27.84-8.51-43.06,1.67.5,2.77,1.7,4.09,2.51.68.42.4,1.11.31,1.68A68.12,68.12,0,0,0,174,247.87S173.92,248,173.64,248.33Z"/><path class="cls-2" d="M342.89,272.7c-1.64-.6-3.16-1.26-4.74-1.7-3.67-1-7.3-.47-10.84.63a29.32,29.32,0,0,1-14.53.59c0-.94.85-1.06,1.38-1.3,7.08-3.23,14.4-5.12,22.24-3.47,1.34.29,2.62.84,3.93,1.25A3.24,3.24,0,0,1,342.89,272.7Z"/><path class="cls-2" d="M174.78,138.28l-.6-.75.87-.14c3.82-.54,4-.54,3.75,3.27-.67,11.14-1.48,22.27-3,33.35-.69,5.06-1.07,10.17-1.61,15.47-.56-.45-1.24-.26-1-1.53a111.4,111.4,0,0,0,2.45-17.45c0-.77.85-2.13-.54-2.29s-.77,1.32-1,2.08l-.21.67c-1-1.07,0-2,0-3,.5-8.94,1.12-17.86,1.66-26.8C175.64,140.19,176.26,138.91,174.78,138.28ZM177,152l-.68-.06c-.55,4.49-1.11,9-1.63,13.45,0,.34.24.7.33,1.06s.27.72.76.6.39-.42.4-.71C176.45,161.59,177.23,156.83,177,152Z"/><path class="cls-2" d="M214.1,233.9c3.21.77,4.62,2.48,4.8,6a81.24,81.24,0,0,0,5.81,26.25c-1.31-.14-2.33-.25-2.91-1.63a104.67,104.67,0,0,1-7.83-30A2,2,0,0,1,214.1,233.9Z"/><path class="cls-2" d="M340.76,224.39c-.09-1.92-1.28-3.39-2.06-5,2.92.69,5.57,3.77,5.61,6.48,0,1.59-1.32,3.44-2.07,3-1.82-1-2.08,2.31-3.7.86-1-.9-2.87-.87-2.89-3.06-.37,1.36-.85,1.94-2.22,1.46s-1.14-1.64-1.44-2.59a.57.57,0,0,1,.65-.72c1.47.36,2.94-1.77,4.37,0,.65-.6.8-1.57,1.67-2.07.37-.22,0-1.07-.48-.94-1.12.32-1.92-.63-3.18-.42s-2.57.06-3.91.35-.95-1.61-2-1.83l0,0c0-.7-.17-1.26-1-1.42l.05.06c0-.46.06-1,.69-.91a15.73,15.73,0,0,0,4-.16c3.46-.18,5.33,1.71,6.44,4.69.32.85.71,1.67,1.07,2.51l.49.16ZM332.57,220c-.05.05-.15.11-.14.15a1.66,1.66,0,0,0,.14.31c.05-.06.15-.12.14-.16A1.35,1.35,0,0,0,332.57,220Z"/><path class="cls-2" d="M190.91,221.37c2,.74,3.19,1.57,3.23,4.16.14,11.07,1.75,21.89,6.89,32a1.85,1.85,0,0,1-2.31-1.08,66.19,66.19,0,0,1-8-34.36A3.8,3.8,0,0,1,190.91,221.37Z"/><path class="cls-2" d="M217.93,263.75c-3.93-1.56-10.64-24.42-10-32.85,3.65.67,4.26,1.38,4.44,4.85a111.26,111.26,0,0,0,1.5,14.1A67,67,0,0,0,217.93,263.75Z"/><path class="cls-2" d="M192.17,251.8c-6-10.39-7.87-21.21-7.28-32.58.06-1.18.39-1.23,1.36-.71,1.79,1,3,1.72,2.75,4.37-.95,9.14.38,18.13,3,26.93A10.37,10.37,0,0,1,192.17,251.8Z"/><path class="cls-2" d="M219.84,216.42c3.58-.17,6.29-1.06,9.08-1.53,2.31-.39,4.49-1.25,6.78-1.68,3-.56,3.16-.39,3,2.66-.09,1.58-.45,2.92-2.31,3.52-1.15.38-.89-.6-1.45-1-.94,1.55-1.18,3.63-3.15,4.32a2.19,2.19,0,0,1-2.2-.71c1.48-1.47,3-3,2.42-5.62-1.05.8-.91,1.92-1.38,2.72-1.08,1.87-2.26,2.25-4.1,1.19C224.48,219.14,222.46,218,219.84,216.42Z"/><path class="cls-2" d="M200.9,142.28c.78,2.28.31,4.56.54,7.16,1.17-2.22.55-4.5,1.41-6.63,1,.67.52,1.52.46,2.23-.94,12.37-2.9,24.6-4.95,36.82-.46,2.72-.85,5.45-1.19,8.18-.1.82-.52,1.08-1.2,1-.91-.14-.44-.83-.35-1.25,3-14.58,4.19-29.36,5-44.19C200.65,144.48,200.8,143.38,200.9,142.28Z"/><path class="cls-2" d="M201.64,227.15c1.35.7,2.61,1.38,3.89,2a1,1,0,0,1,.64,1.27c-1.33,10.81,1.42,20.9,5.55,30.89a1.74,1.74,0,0,1-2.07-1.25,109,109,0,0,1-8.16-32A4.54,4.54,0,0,1,201.64,227.15Z"/><path class="cls-2" d="M291.4,241.57q8.36,1.16,16.57,3c.83.18.95.62.91,1.27a3.37,3.37,0,0,1-3.11,3.4,18.31,18.31,0,0,1-12.06-2.65c-1.61-.93-1.58-3.3-2.27-5Z"/><path class="cls-2" d="M215,191.75c.44-3,.91-6,1.31-9,1.33-9.84,2.91-19.65,3.54-29.58,0-.61-.44-1.81.85-1.66a1.68,1.68,0,0,1,1.65,2.17c-.89,6.13-1.66,12.27-2.51,18.4s-2.28,12-3.51,18C216.24,190.71,216.23,191.44,215,191.75Z"/><path class="cls-2" d="M191.13,189.44A372.22,372.22,0,0,0,196.92,140c1.81.22,2.43,1,2.2,2.78-1.24,9.78-2.36,19.58-3.55,29.37-.19,1.49-1,3-1.16,4.29-.55,4.07-2,7.9-2.67,11.92C191.68,188.75,191.87,189.37,191.13,189.44Z"/><path class="cls-2" d="M205.47,144.34c2.17.35,2.33,1.45,2.13,3.19-1.54,13.75-4.13,27.34-6.19,41a5.75,5.75,0,0,0-.1.92c0,.92-.56,1.24-1.34,1.09-1.1-.22-.37-1-.26-1.44a180.4,180.4,0,0,0,3.82-21.88q1.22-10.47,1.74-21C205.3,145.62,205.4,145,205.47,144.34Z"/><path class="cls-2" d="M209.24,146.26c2,.06,1.83,1.34,1.67,2.6-1.15,8.86-2.25,17.73-3.77,26.53-.77,4.44-1.48,8.89-2.24,13.33-.13.75,0,2-1.27,1.65-1-.3-.33-1.31-.21-2,2.51-12.6,3.78-25.37,5.34-38.11Q209,148.27,209.24,146.26Z"/><path class="cls-2" d="M214.13,150.26c-1.09,10.83-2.56,21.88-4.74,32.83-.41,2.1-.75,4.21-1.16,6.32-.09.46,0,1.25-.8,1.06-.65-.14-.31-.73-.24-1.14,2.15-13.21,3.62-26.49,5.05-39.79.06-.55-.49-1.8.85-1.66S214.3,149,214.13,150.26Z"/><path class="cls-2" d="M230.13,268.26a1.59,1.59,0,0,1-1.74-1.1c-3.42-9.64-6.88-19.28-8.22-29.5a1.31,1.31,0,0,1,.08-.43c3.72,0,3.28,3.12,3.63,5.2.77,4.71,1.83,9.34,3,13.95C227.84,260.35,229,264.27,230.13,268.26Z"/><path class="cls-2" d="M217.92,151.51a330.4,330.4,0,0,1-5.61,38.34c-.11.5-.05,1.25-.81,1.13-1-.17-.47-1-.36-1.47a234.53,234.53,0,0,0,4.58-38.45c0-.56-.36-1.65.68-1.56S218.35,150.14,217.92,151.51Z"/><path class="cls-2" d="M195.77,224.24c3,.69,3.93,2.15,4,4.94A87.42,87.42,0,0,0,202.61,250a1.74,1.74,0,0,1-.23,1.8C198.17,243,196.51,233.8,195.77,224.24Z"/><path class="cls-2" d="M223,195.87c.32-2.06.67-4.13,1-6.2,1.52-10.74,3-21.49,3.94-32.32,0-.66-.66-2.14.88-2s1.11,1.36,1,2.33c-1.28,10.7-2.68,21.39-4.75,32-.42,2.14-.78,4.28-1.17,6.42Z"/><path class="cls-2" d="M219.3,193.25c1.94-13.17,4-26.33,5.07-39.62,1.69.33,1.77.34,1.66,1.4a324,324,0,0,1-5.8,37.82c0,.18-.23.34-.34.51Z"/><path class="cls-2" d="M365.89,245.7a2.39,2.39,0,0,0,1.66-2.45c.11-2,1.09-1.81,2.35-1.12.57.32,1,1.07,1.77.49.4-.33.16-.91-.08-1.26-.35-.52.06-1.5-1.4-1.39a3.87,3.87,0,0,1-3.85-1.67l0,0c0-.34.1-.77-.51-.49l0,0c.45-.62.18-.89-.48-1l0,0c.05-.58.18-1,.94-.75,2.48.93,5.08,1.61,7.13,3.4,1.3,1.13,2.65,2.45,1.8,4.3a5.19,5.19,0,0,1-4.73,3.15c.38-1,1.34-1.63,1-3.19-1.59,2.5-3.49,4-6.36,3.5-.52-.84.76-1,.64-1.7Z"/><path class="cls-2" d="M316.16,280.11c-1.82,1.33-3.56,1.53-5.3-.19a4,4,0,0,1-1.12-4.34c.29-.91.64-1.26,1.62-.73a18.33,18.33,0,0,0,10.89,1.82,8.08,8.08,0,0,1-4.81,5.47c-.62.24-1.66,0-1.64,1.2l0,0c-.95.4-1.46-.41-2.43-.68,1.12-.8,2.4-.81,3-1.88l.45-.47a2.46,2.46,0,0,0,1-1.33c.32-.24.59-.6.28-.91s-.54.14-.74.38c-.38.57-.77,1.13-1.16,1.7Z"/><path class="cls-2" d="M188.28,171.2c.26-4,.45-7.95.77-11.86.53-6.62.87-13.24,1-19.88,0-.67-.49-1.84,1-1.76,1.2.06,1.25.79,1.19,1.73A288.63,288.63,0,0,1,189,169.91C188.94,170.31,189.08,170.84,188.28,171.2Z"/><path class="cls-2" d="M240.3,271.83a2.06,2.06,0,0,1-2.33-1.47c-3.63-8.76-6.76-17.66-8.18-27.09-.06-.36-.1-.72-.18-1.25a2.1,2.1,0,0,1,2.14,2A120.27,120.27,0,0,0,240.3,271.83Z"/><path class="cls-2" d="M225,239.58c2.24.59,3.37,1.45,3.57,3.87A84.58,84.58,0,0,0,233.47,266c.3.81.94,1.62.13,2.93C229.29,259.43,227,249.66,225,239.58Z"/><path class="cls-2" d="M184.8,174.13c.54-8.92,1.1-17.84,1.63-26.76.17-2.74.22-5.5.42-8.24.06-.71-.44-2,.84-2s.78,1.26.76,2a283.52,283.52,0,0,1-2.5,29.67c-.26,1.8-.56,3.6-.85,5.4Z"/><path class="cls-2" d="M364,271.89c1.05,0,.32-1.47,1.5-1.56,2-.17,2.11.95,1.83,2.41,1.22-.36.11-2.06,1.66-2.2,2.58-.22,3.11.44,2.42,3-.28,1-1.4,1.75-1,3h0c-1.12-.26-1.26,1-2,1.33-.58.28-.88,1.09-1.71.91-.55-.13-1.27.23-1.66-.41s.29-1,.64-1.49.49-.75.73-1.12a4.9,4.9,0,0,0,1.25-2.58c-1.17.5-1.24,1.42-1.68,2-.78.72-1.52,1.49-2.34,2.14s-1.76.14-2.54-.24c-1.06-.52.89-.94.13-1.52l0,0c.89.27,1.17-.08.94-.94l0,0a2.24,2.24,0,0,0,1.86-2.77Z"/><path class="cls-2" d="M366.34,238.3c-.21.75-.22,1.67-1.32,1.72-1.52.06-.71-1.59-1.75-2.38.15,2.1-1.09,2.1-2.41,2a12.39,12.39,0,0,0-1.36-.07c-3.2.08-4.22-.85-4.47-3.93,0-.66.22-.79.72-.85,2.85-.36,5.59.3,8.34.88.72.16.45,1.35,1.36,1.31l0,0a.73.73,0,0,0,.48,1l0,0c0,.29-.08.75.51.49Z"/><path class="cls-2" d="M191.37,169.3c.14-1.45.24-2.9.41-4.34.95-8.29,1.44-16.61,1.85-24.94,0-.56-.36-1.54.88-1.41.89.1,1.06.66,1,1.46-.7,9.62-1.68,19.21-3.33,28.72a2.24,2.24,0,0,1-.32.55Z"/><path class="cls-2" d="M243.81,273.76a284.34,284.34,0,0,1-11.2-30.16c2.37.36,3.16,1.68,3.52,3.7a95,95,0,0,0,8.2,25.27,6.83,6.83,0,0,1,.27.8Z"/><path class="cls-2" d="M228.73,201.39c.58-3.23,1.18-6.46,1.75-9.69,1.74-10,2.84-20.1,3.66-30.22.09-1.08-.2-3.17.86-3,1.76.23.72,2.13.59,3.24-1.51,12.73-3.89,25.33-5.89,38a17.17,17.17,0,0,1-.51,1.83Z"/><path class="cls-2" d="M233.88,191.25c1.19-10,2.36-20,3.6-29.94.06-.49-.35-1.61.84-1.43,1,.14.77,1,.69,1.67A224.65,224.65,0,0,1,233.88,191.25Z"/><path class="cls-2" d="M182.08,170c.19-3.31.34-6.62.58-9.92.5-7.09.67-14.19.84-21.28,0-.75-.61-2.13,1-2.05s.81,1.43.76,2.15c-.75,9.74-1.58,19.47-2.4,29.2a14.7,14.7,0,0,1-.41,2Z"/><path class="cls-2" d="M237.53,189.24c1-8.87,2.31-17.71,3.05-26.61,0-.49-.23-1.45.79-1.26a1.27,1.27,0,0,1,1.14,1.63c-.46,2.71-.8,5.44-1.23,8.16A141.51,141.51,0,0,1,237.53,189.24Z"/><path class="cls-2" d="M240.66,187.4c.77-5.24,1.57-10.49,2.32-15.74.34-2.42.57-4.85.93-7.26.07-.48-.23-1.44.74-1.35s1,.82.86,1.58c-.49,3-.94,6-1.47,9A74.31,74.31,0,0,1,240.66,187.4Z"/><path class="cls-2" d="M285.93,225.45c-4.28,3.27-11.26,4.26-13.87,1.94a57.64,57.64,0,0,0,8.51-2.79C282.28,223.92,284.09,225,285.93,225.45Z"/><path class="cls-2" d="M242.21,249.9a11.62,11.62,0,0,1,2.74,4.67,104.65,104.65,0,0,0,8.51,22.12c-1.22-.08-1.41-1-1.78-1.6a58.13,58.13,0,0,1-5.71-13.7,108.33,108.33,0,0,0-3.73-11.53Z"/><path class="cls-2" d="M280.42,219c-2.44,1.6-4.69.34-7.06-.36,3-3.94,4.13-4.29,8.62-3a1.73,1.73,0,0,1,1.19,1.08l0,0c-.74-.1-1.25,0-.95,1l0,0c-.88-.24-1.15.12-.95,1l0,0c-.62-.47-.87-.17-1,.47Z"/><path class="cls-2" d="M321.84,245.94c3-.7,5.69-1.51,7.48-4.3.79-1.23,2.5-.83,3.83-.92.72-.05.52.6.41,1a5.16,5.16,0,0,1-2.4,2.95c-1.81,1.2-4,1.36-6,2.21C323.94,247.45,323.06,245.92,321.84,245.94Z"/><path class="cls-2" d="M366,248.67c-5.23,2.23-10.05,1.07-14.84-.43-.55-.17-1-.44-.74-1.15a.63.63,0,0,1,.92-.39c3.33,1.55,7,.39,10.38,1.17C363.05,248.17,364.41,248.38,366,248.67Z"/><path class="cls-2" d="M331.1,249.31c3.63-1.43,6.58-3.34,6.37-7.88,0-.47,0-.94.67-.87.87.09,1.69.22,1.89,1.3A5.74,5.74,0,0,1,338,247.6,7.87,7.87,0,0,1,331.1,249.31Z"/><path class="cls-2" d="M296.36,271.29a20.89,20.89,0,0,1-1.84-5.11c-.16-.87,0-1.45.94-1.32,2.15.32,4.36-.18,6.71.43A62,62,0,0,1,296.36,271.29Z"/><path class="cls-2" d="M172.35,157.19c.27,1-.24,2.07.43,3-.44,8.9-.89,17.8-1.34,26.78a1.59,1.59,0,0,1-1.23-2,222.62,222.62,0,0,0,1.89-26.93A3.37,3.37,0,0,1,172.35,157.19Z"/><path class="cls-2" d="M292.14,274.72c-3.23,3.64-7,3.53-12.94-.29,1.48-.71,2.76.26,4.09.32s2.88.27,4.33.27S290.46,274.41,292.14,274.72Z"/><path class="cls-2" d="M179.81,158.87q.34-10.43.7-20.84c0-.58-.1-1.38.81-1.33.75,0,.66.74.62,1.25q-.93,10.47-1.88,20.94Z"/><path class="cls-2" d="M255.77,191.83c.89-3.8,1.82-7.46,2.6-11.15.58-2.8,1-5.64,1.45-8.47.07-.38,0-.82.55-.74a.71.71,0,0,1,.69.76,4.73,4.73,0,0,1-.12.91q-2.08,9-4.21,18C256.67,191.44,256.62,191.78,255.77,191.83Z"/><path class="cls-2" d="M247.12,164.22c1.1,1.34.57,2.2.36,3.36-1.11,6.07-1.79,12.22-2.63,18.34-.06.46.86,1.28-.38,1.35s-.79-.86-.69-1.45C245.05,178.78,246.19,171.72,247.12,164.22Z"/><path class="cls-2" d="M327.92,241.47c-1.86,2.87-5.65,3.66-11,1.95C321,243.26,323.9,239.42,327.92,241.47Z"/><path class="cls-2" d="M237.3,245.89c3.2,4,4.34,8.74,4.86,13.73A68.29,68.29,0,0,1,237.3,245.89Z"/><path class="cls-2" d="M374.17,276.92c-1.51-.22-2.31,1.83-4.1,1.12-.42-.55.94-.92.41-1.58h0c1.58-.93,1.43-2.64,1.78-4.09.18-.78.08-1.48,1.26-1.29,1,.16,1.54.46,1.48,1.55,0,.67,0,1.35.05,2l0,0c-.51.7-1.43,1.23-.93,2.33Z"/><path class="cls-2" d="M326.8,219.48c-.21.6.36,1,.44,1.48s.87,1.14-.11,1.76c-1.19.74-1-.76-1.62-.89-.21,2-.23,2-3.63,3.41-.05-1.41-.41-2.86,1.57-3.37.51-.13.72-.76.67-1.35-.15-1.7.78-2.13,2.26-1.93l0-.05c-.23.52-.1.86.48,1Z"/><path class="cls-2" d="M262.4,196.69q1.78-8.34,3.58-16.67c.26-1.27.47-2.55.72-3.83.08-.42.08-1,.77-.79s.35,1.23.88,1.66c-1.59,1.74-1.62,4.06-2.2,6.15-1.25,4.45-2.31,9-3.45,13.45Z"/><path class="cls-2" d="M329.19,247.31c2.68-1.29,5-2.86,5.49-6.13.12-.88.74-.85,1.35-.84s.83.5.89,1.09a4.49,4.49,0,0,1-1.31,3.52C333.68,247.08,330.81,248.14,329.19,247.31Z"/><path class="cls-2" d="M239.1,218.39c.16-1.5.29-2.79.42-4.07.08-.69-.29-1.65,1-1.6,1,0,1.94-.1,2.37,1.23C243.72,216.54,242.57,218,239.1,218.39Z"/><path class="cls-2" d="M250.76,229.43a4.69,4.69,0,0,1-1.72,3.36,1.13,1.13,0,0,1-1.6.24c-1.47-1-3-1.91-4.81-3.06Z"/><path class="cls-2" d="M343.46,270.63c4.5,2.86,4.73,7,.48,9.36a19.16,19.16,0,0,0,.23-4.82C343.94,273.68,343.7,272.19,343.46,270.63Z"/><path class="cls-2" d="M348.23,237.84a9.48,9.48,0,0,1,4.23-2.46c1.06-.41,1.58,0,1.81,1s.9,1.9.37,2.59-1.67,0-2.52-.16C351,238.55,349.79,238.22,348.23,237.84Z"/><path class="cls-2" d="M365.91,245.68c-1-.74-1.55.46-2.33.67s-1.39.3-1.86-.28.23-1,.54-1.3c1-1,.64-3.05,2.85-3.14,1.81-.07,1.93.58,1.45,2-.23.69-1.41,1.08-.67,2.08Z"/><path class="cls-2" d="M275.35,214.7c-3.1,3.88-3.1,3.88-8.12,1.51C269.8,214.49,272.46,214.78,275.35,214.7Z"/><path class="cls-2" d="M248,187.93l2.72-19c-.05,6.44-1.12,12.75-2,19.09Z"/><path class="cls-2" d="M279.21,224.34c-3.47,1-6.4,2.53-9.75,1.4C272.44,224.51,275.31,222.61,279.21,224.34Z"/><path class="cls-2" d="M251.92,254.39c-.78-.08-1.45,0-.82,1,.26.44.58.85.87,1.27l-.32.27c-.75-.86-1.5-1.72-2.26-2.57-.31-.34-.72-.94-1-.89-2.83.56-2.69-2-3.67-3.44,2.57,1.19,5.13,2.35,7.14,4.4Z"/><path class="cls-2" d="M230.65,171.32c-.51-4.42.63-8.78.75-13.22,0-.44-.09-1.25.68-1.15s.51.83.44,1.33Q231.61,164.81,230.65,171.32Z"/><path class="cls-2" d="M302.23,227.61a17.27,17.27,0,0,0,10,4.22C309.55,233.69,303.48,231.1,302.23,227.61Z"/><path class="cls-2" d="M258.78,268.22c1.16.66,1.28,2,1.77,3a43.27,43.27,0,0,0,6,10.08c-2.63-.67-6.21-6.84-7.77-13.1Z"/><path class="cls-2" d="M338.76,248.9c2.1-2,2.44-4.35,2.48-7,.93.47,2.11.5,2.09,1.91C343.32,245.69,341.29,248,338.76,248.9Z"/><path class="cls-2" d="M263.31,173c-1.1,4.52-1.92,9.12-3.53,13.53q1.41-6.84,2.81-13.68Z"/><path class="cls-2" d="M272.36,223.34c-2.52,0-4.5,2.3-6.23-.51C268.1,220.93,269.93,221.9,272.36,223.34Z"/><path class="cls-2" d="M274.49,178.63c-.81,3.29-1.47,5.92-2.13,8.55-.31-2,.8-3.85-.09-5.91C272.06,180.78,273.06,179.64,274.49,178.63Z"/><path class="cls-2" d="M350.78,242l3.4.71c-.34,1.53-1.44,2.62-2.77,2.27C350.25,244.72,350.89,243.14,350.78,242Z"/><path class="cls-2" d="M353.87,246.11c1.53-1.54,1.76-4.19,4.73-3.31C357.84,244.88,356.27,245.74,353.87,246.11Z"/><path class="cls-2" d="M266.14,217.16a4.23,4.23,0,0,0,1.36,3.27c-1.17.55-2.41,1.4-3.08.72s.35-1.88.76-2.8c.21-.47.42-1,1-1.15Z"/><path class="cls-2" d="M252.22,189.47a20.75,20.75,0,0,1,2.3-7.47c-.58,2.54-1.16,5.09-1.75,7.63Z"/><path class="cls-2" d="M253.08,167.34c.31,2.34-.57,4.57-1.15,6.83.16-2.3.31-4.6.47-6.89Z"/><path class="cls-2" d="M320.42,248.27c-1.15.66-1.83,1.12-1.6,2.16.11.48-.18.71-.65.59-.28-.07-.77-.28-.75-.35a7.32,7.32,0,0,1,.69-2.82C318.71,247,319.34,248.12,320.42,248.27Z"/><path class="cls-2" d="M259.06,170.63a14.9,14.9,0,0,1-1.82,6.37l1.17-6.51Z"/><path class="cls-2" d="M259.3,194.18l2.49-7.37.27.08q-1,3.72-2.09,7.46Z"/><path class="cls-2" d="M362.1,242.2a1.33,1.33,0,0,1-.4,1.29c-.51.66-.75,1.72-1.89,1.59a.57.57,0,0,1-.47-.84c.38-.93.47-2.14,1.92-2.1C361.55,242.15,361.84,242.18,362.1,242.2Z"/><path class="cls-2" d="M180.25,134.07A16.3,16.3,0,0,1,189,134,26,26,0,0,1,180.25,134.07Z"/><path class="cls-2" d="M193.73,185.34a16.52,16.52,0,0,1-.29,6.39l-.75-.1C193,189.53,193.39,187.44,193.73,185.34Z"/><path class="cls-2" d="M255.13,269.11,252.06,263A10.65,10.65,0,0,1,255.13,269.11Z"/><path class="cls-2" d="M326.38,218.59c.62-1,1.23-.4,1.85,0l-.05-.06c0,.7.08,1.33,1,1.42l0,0c-.77.73.79,1.4,0,2.2-1.44-.28-.73-2.53-2.33-2.65l0,0c.44-.62.12-.86-.48-1Z"/><path class="cls-2" d="M255,260.61c1.12,1.85,2.62,3.5,2.91,5.76l0,0-3.27-5.47Z"/><path class="cls-2" d="M264.47,199c-1.16-1.57.34-2.8.47-4.21C265.43,196.23,264.69,197.56,264.47,199Z"/><path class="cls-2" d="M23.07,91.34c0,.45,0,.9,0,1.35a10.46,10.46,0,0,1-3.9-1.58C20.55,90.31,21.78,91.29,23.07,91.34Z"/><path class="cls-2" d="M331.63,227.84c-1.17-.67-2.29,0-2.43-1.29a.9.9,0,0,1,.95-1.05C331.42,225.49,331.07,226.59,331.63,227.84Z"/><path class="cls-2" d="M44.43,97.58c-.85.45-.65,1.29-.72,2a5.35,5.35,0,0,1-2.57-.83c2,0,1.28-1,.76-2Z"/><path class="cls-2" d="M263.92,178.06c.21-1.38.41-2.76.62-4.14C265.1,175.43,264.48,176.74,263.92,178.06Z"/><path class="cls-2" d="M278.64,187.68c.43-1.94.76-3.39,1.08-4.83C280,184.42,279.38,185.81,278.64,187.68Z"/><path class="cls-2" d="M267.74,200.18c.35,1.17-.18,2.21-.44,3.57C266.32,202.23,267.52,201.28,267.74,200.18Z"/><path class="cls-2" d="M345.47,233.85l2.8-.57C346.56,235.29,346.56,235.29,345.47,233.85Z"/><path class="cls-2" d="M189.75,134.08c.06-.65,2.36,1.07,1.07-1a2.77,2.77,0,0,1,1.82.51l.08.82-.15.16A7.5,7.5,0,0,1,189.75,134.08Z"/><path class="cls-2" d="M68.47,108.79c1.29,0,2.79-.49,3.29,1.38A9.84,9.84,0,0,1,68.47,108.79Z"/><path class="cls-2" d="M252,256.66a10,10,0,0,1,2,2.54c-.11.1-.21.21-.31.32-.68-.87-1.36-1.73-2-2.59Z"/><path class="cls-2" d="M59.29,105.11c.92.28,2.41-.87,2.69,1A6.73,6.73,0,0,1,59.29,105.11Z"/><path class="cls-2" d="M38,97.8c1,.21,2.49-.92,3,1A8.05,8.05,0,0,1,38,97.8Z"/><path class="cls-2" d="M51.85,102.38c1,.22,2.48-.89,2.84,1.06Z"/><path class="cls-2" d="M46.67,100.58c.92.11,2.18-.81,2.54.88A5.81,5.81,0,0,1,46.67,100.58Z"/><path class="cls-3" d="M192.72,134.39l-.08-.82a3,3,0,0,1,1.82.5C194,134.67,193.33,134.43,192.72,134.39Z"/><path class="cls-2" d="M242.24,249.86c-.1-.56-.93-.83-.6-1.61,1.43.12.05,1.24.57,1.65Z"/><path class="cls-2" d="M72.7,110.57c.91-.79,1.27-.4,1.31.63C73.54,111.05,73,111,72.7,110.57Z"/><path class="cls-2" d="M86.75,117.09c.81,0,1.89-.5,2,1Z"/><path class="cls-2" d="M157.22,235.59c.72.18.54.91,1.23,1.5-1.24-.28-1-1-1.19-1.54Z"/><path class="cls-2" d="M251.88,254.43c.85.14,1.31.84,1.92,1.31l0,0c-.94,0-1.43-.64-1.92-1.31Z"/><path class="cls-2" d="M254,259.2l1,1.41-.33.27a2.44,2.44,0,0,1-.93-1.36C253.8,259.41,253.9,259.3,254,259.2Z"/><path class="cls-2" d="M173.32,136.14c-.07-1.51.92-.68,1.52-.69Z"/><path class="cls-2" d="M258.82,268.19a2.57,2.57,0,0,1-.92-1.84l0,0c.88.34,1,1,.91,1.85Z"/><path class="cls-2" d="M174.18,137.53c-.49,1.06-1.44.48-2.19.64C172.6,137.55,173.42,137.66,174.18,137.53Z"/><path class="cls-2" d="M30.72,92.45c-.61.19-1.36,1.28-1.68-.28Z"/><path class="cls-2" d="M255.77,269.5c.46.58.81,1,.62,1.57A1.57,1.57,0,0,1,255.77,269.5Z"/><path class="cls-2" d="M28.8,92.13c-.87,0-1.8.42-2.52-.42A5.19,5.19,0,0,1,28.8,92.13Z"/><path class="cls-2" d="M254.21,256.26c.46.17.91.34.87,1l0,0c-.41-.22-.85-.4-.87-1Z"/><path class="cls-2" d="M257.42,259.48c.59.31,1.08.68.84,1.46l0-.05c-.27-.48-.88-.78-.85-1.45Z"/><path class="cls-2" d="M259.26,261.52a.31.31,0,0,1,0,.28l-.95-.91,0,.05C258.82,260.74,259,261.21,259.26,261.52Z"/><path class="cls-2" d="M176.13,135c.45-.8,1.2-.51,1.87-.51Z"/><path class="cls-2" d="M82.81,115.18c.55,0,1.15-.09,1.31.67Z"/><path class="cls-2" d="M49.2,101.45c.55-.07,1.12-.17,1.4.5A2,2,0,0,1,49.2,101.45Z"/><path class="cls-2" d="M256.53,258.53l-1-.87,0,0c.68-.12.89.31,1,.87Z"/><path class="cls-2" d="M34.79,96.88c.59-.07,1.2-.23,1.57.46Z"/><path class="cls-2" d="M66.23,107.84c.55,0,1.15-.12,1.35.63Z"/><path class="cls-2" d="M56.93,104.21a.91.91,0,0,1,1.06.4Z"/><path class="cls-2" d="M77,112.52c.5-.08.94,0,1.12.53Z"/><path class="cls-2" d="M29.9,95.45a.94.94,0,0,1,1,.3C30.5,95.78,30.14,95.8,29.9,95.45Z"/><path class="cls-2" d="M28.39,95a1,1,0,0,1,1.1.3A1.2,1.2,0,0,1,28.39,95Z"/><path class="cls-2" d="M43.7,99.6a.85.85,0,0,1,.95.32A1,1,0,0,1,43.7,99.6Z"/><polygon class="cls-2" points="251.63 175.88 251.75 175.89 251.69 175.68 251.63 175.88"/><path class="cls-2" d="M62,106.15c.46-.16.83-.1,1,.42Z"/><path class="cls-2" d="M179.33,134.3a.88.88,0,0,1,.93-.24Z"/><path class="cls-2" d="M80.92,114.28a.84.84,0,0,1,1,.46A1.11,1.11,0,0,1,80.92,114.28Z"/><path class="cls-2" d="M291.44,241.55l-.14-.14a1.4,1.4,0,0,1,.1.16Z"/><path class="cls-2" d="M45.05,100.05l.51.23Z"/><path class="cls-2" d="M169,245.13l-.13-.08.14-.22s.13.11.13.16S169,245.08,169,245.13Z"/><path class="cls-2" d="M33.36,96.46l.72.22Z"/><path class="cls-2" d="M257.45,259.44c-.36.06-.48-.13-.46-.45l0,0c.35,0,.47.14.46.46Z"/><path class="cls-2" d="M190.83,133.07l-.47-.21Z"/><path class="cls-2" d="M266.17,217.2l.24-.33.08.21-.35.08Z"/><path class="cls-2" d="M257,259c-.33,0-.45-.16-.46-.46l0,0c.38-.08.48.12.47.45Z"/><path class="cls-2" d="M255.08,257.22c.38-.07.54.09.45.47l0,0-.45-.48Z"/><path class="cls-2" d="M253.8,255.74c.13.18.27.35.41.52l0,0c-.34,0-.55-.12-.41-.52Z"/><path class="cls-2" d="M298.08,306.73a41.62,41.62,0,0,1-2.55,3.35c-1.85,2-3.25,2.34-5.38.7-6.42-4.93-8-8.93-.15-13.13,8.5-4.54,17.34-4.49,26-.25,3.12,1.52,1.77,4.91,2.59,7.38.45,1.36-.94,2.28-2.17,2.87a2.07,2.07,0,0,1-.7.08c-.17-1.61.25-3.25-.46-4.89-.85,2.36,1.21,5.92-3.1,6.81-.05-2.14.38-4.22-.15-6.29-.23-.92,1-.66,1.54-1,.75-.43,1.72-.91,1.49-1.79-.29-1.15-1.27-.24-1.94-.23-4.68.12-9.36.19-14,.45a22,22,0,0,0-8.63,2.13c-.69.34-1.48.66-1.26,1.65s1,1.28,1.91,1.3a45.94,45.94,0,0,0,10.43-1.53A40.9,40.9,0,0,1,309.4,303c1.12,0,1.64.28,1.84,1.44.58,3.4-.66,6-3.35,6.74-.37-1.05,1.13-1.82.39-3-1,.61-1.25,1.78-1.9,2.62a3.1,3.1,0,0,1-3,1.34c1.34-2.36,2.4-4.73,1.91-7.53-1.25,3.25-1.09,7.55-6.35,8.25,1.5-2.18,3.1-3.94,2.75-6.49-1,1.48-1.47,3.25-2.8,4.45-.89.81-1.61,1.87-3,1.9-.4,0-.75.08-1-.33s.27-.6.5-.82A8.06,8.06,0,0,0,298.08,306.73Z"/><path class="cls-2" d="M343.68,300.74a17.61,17.61,0,0,1,10.14-1.57,28.84,28.84,0,0,1,16.34,7.64c1.81,1.62,3.32,3.53,2.32,6.21-.84,2.23-4.77,4.63-7.2,4.52a1.74,1.74,0,0,1-.07-.42c.18-.21.37-.42.05-.63-.05,0-.27.19-.41.3-2,1.46-4.26.62-6.61,1.17.71-1.83,2.51-3,1.82-5.48-1.07,1.83-1.74,3.44-3.21,4.44a2.34,2.34,0,0,1-2.36.19c-.74-.29.14-.77-.08-1.13h0q.58.11.48-.48l0,0c.4.08.49-.15.49-.48l0,0c.41-.2.91-.35.47-1v0c.91,0,.93-.66,1-1.29l.09-.29-.29.09a.39.39,0,0,0-.39,0c-.68-2.3,1-2,2.26-1.94.42,0,.89.35,1.21-.12s0-.82-.33-1.15a1,1,0,0,1-.17-1.05,10,10,0,0,1,3.15.64c-1.08.89-1.69,4.44-.8,4.53,1.3.15,1.6.81,1.81,1.85.08.41.32.94.91.83a.81.81,0,0,0,.65-.84c-.22-1.38.88-2,1.71-2.34,1.08-.47.64-1.19.73-1.85.89.21,1.11,1.45,2.31,1.43-.17-2.26-1.75-3.35-3.35-4.33a31.85,31.85,0,0,0-7.43-3c-3.57-1.1-7.23-2-10.42-4.06-.92-.6-1.92-1.68-3-.55s.18,1.93.55,2.86c-1.16.1-1.88-.26-1.64-1.59C344.43,301.4,344.59,300.82,343.68,300.74Z"/><path class="cls-3" d="M359.18,308.38a1,1,0,0,0,.17,1.05c.33.33.64.7.33,1.15s-.79.13-1.21.12c-1.29,0-2.94-.36-2.26,1.94l-.4.69c-.63-.77-1-.67-1.42.27-.64,1.53-1.69,2.22-3.33,1.26a.89.89,0,0,0-1.2.28,2.59,2.59,0,0,1-1.46-.93c0-1.64-1.24-1.88-2.39-2.27l.09-.09-.08.1c.16-1.07.28-2.11-1.36-1.87h0c.06-.81,1.19-2.2-1-1.8l0-.13,0,.14-.27-.59a.33.33,0,0,1-.12-.35c.54-2.18-1.47-4-.85-6.2l1.22-.42c.91.08.75.66.64,1.26-.24,1.33.48,1.69,1.64,1.59a.35.35,0,0,1,.22.32c.18.2.36.39.53.59l.36.33c.49,2,4,3.49,6.44,2.75l.89.17c.46.56,1.07.42,1.66.32l2.48.24a.37.37,0,0,0,.58.08Zm-5.84,1.73a.6.6,0,0,0-.89-.46c-.84.32-1.74.65-1.71,1.8,0,.4.19.88.64.66A4.23,4.23,0,0,0,353.34,310.11Z"/><path class="cls-2" d="M349.86,315.14a.89.89,0,0,1,1.2-.28c1.64,1,2.69.27,3.33-1.26.4-.94.79-1,1.42-.27l0,.82v0c-.64.08-.94.33-.47,1l0,0-.52,0,0,.51,0,0-.51,0,0,.51h0C352.79,316.26,351.14,316.69,349.86,315.14Z"/><path class="cls-2" d="M346,311.94c1.15.39,2.43.63,2.39,2.27A5.25,5.25,0,0,1,346,311.94Z"/><path class="cls-2" d="M343.69,308.29c2.17-.4,1,1,1,1.8A3.07,3.07,0,0,1,343.69,308.29Z"/><path class="cls-2" d="M344.66,310.08c1.64-.24,1.52.8,1.36,1.87A3.55,3.55,0,0,1,344.66,310.08Z"/><path class="cls-2" d="M343.43,307.71l.27.59Z"/><path class="cls-1" d="M364.05,271.86a2.24,2.24,0,0,1-1.86,2.77A6.63,6.63,0,0,1,364.05,271.86Z"/><path class="cls-1" d="M362.22,274.61c.23.86-.05,1.21-.94.94C361.28,274.93,361.65,274.67,362.22,274.61Z"/><path class="cls-1" d="M44.43,97.58l-2.53-.76-.11-.11-.16,0A6.1,6.1,0,0,0,39.14,96L39,95.84h-.21a1.9,1.9,0,0,0-1.45-.42c-.53-.55-1.75-.18-1.82-1.35l.89-.18c12.85,3.91,25.65,8,38.16,12.93A339.89,339.89,0,0,1,118,127.45a10.93,10.93,0,0,1,1.18.72c.43.32,1.43.43.93,1.23s-1.11,0-1.59-.25c-6.64-3.29-13.26-6.61-19.88-9.91a9.74,9.74,0,0,0-1.07-.39.94.94,0,0,0-.93-.44h0a.94.94,0,0,0-.91-.44l-.09-.11h-.14a4.37,4.37,0,0,0-2-.94l-1.84-.83a3.28,3.28,0,0,0-1.89-.85.19.19,0,0,0-.25-.13,7.84,7.84,0,0,0-3-1.31h0a1,1,0,0,0-.93-.42A10.78,10.78,0,0,0,82.34,112l-.44-.26-3-1.2-.68-.31a.28.28,0,0,0-.33-.12l-.59-.3a.42.42,0,0,0-.41-.13,1.09,1.09,0,0,0-1-.4,11.94,11.94,0,0,0-3.56-1.46,3.92,3.92,0,0,0-2-.81.28.28,0,0,0-.33-.11l-1-.41-1.27-.51-1-.4h0l-.43-.26-3.21-1.14a3.17,3.17,0,0,0-1.69-.69v.12l0-.12-.61-.18-.14-.11h-.18a1.22,1.22,0,0,0-1.06-.39h0l-.42-.23-3.54-1.22-1.49-.57-1.2-.36a5.59,5.59,0,0,0-2.53-.87l-.08-.09-.12,0a5.44,5.44,0,0,0-2.56-.84Z"/><path class="cls-1" d="M166.48,156.54a78.93,78.93,0,0,1-.74,20.08C165.36,169.9,166,163.22,166.48,156.54Z"/><path class="cls-1" d="M169.94,152.63c-.51,5.94-1,11.67-1.48,17.31C167.44,167.31,168.38,155,169.94,152.63Z"/><path class="cls-1" d="M170,145.43l.81-5.81.66.09-.8,5.81Z"/><path class="cls-2" d="M86.49,113.79a7.84,7.84,0,0,1,3,1.31C88.19,115.26,87,115.4,86.49,113.79Z"/><path class="cls-2" d="M39.14,96a6.1,6.1,0,0,1,2.49.78C40.75,96.62,39.6,97.38,39.14,96Z"/><path class="cls-2" d="M50.18,99.52a5.59,5.59,0,0,1,2.53.87C51.8,100.28,50.58,101.11,50.18,99.52Z"/><path class="cls-2" d="M47.42,98.62a5.44,5.44,0,0,1,2.56.84C49.07,99.36,47.85,100.2,47.42,98.62Z"/><path class="cls-2" d="M70.39,107a3.92,3.92,0,0,1,2,.81C71.6,107.75,70.66,108.2,70.39,107Z"/><path class="cls-2" d="M89.69,115.23a3.28,3.28,0,0,1,1.89.85C90.85,116,89.91,116.43,89.69,115.23Z"/><path class="cls-2" d="M93.42,116.91a4.37,4.37,0,0,1,2,.94C94.63,117.83,93.56,118.37,93.42,116.91Z"/><path class="cls-2" d="M61.38,103.45a3.17,3.17,0,0,1,1.69.69C62.46,104,61.59,104.55,61.38,103.45Z"/><path class="cls-2" d="M53.91,100.75l1.49.57C54.81,101.38,54.18,101.55,53.91,100.75Z"/><path class="cls-2" d="M37.31,95.43a1.9,1.9,0,0,1,1.45.42C38.22,95.9,37.68,96,37.31,95.43Z"/><path class="cls-2" d="M59.37,102.78a1.22,1.22,0,0,1,1.06.39A.9.9,0,0,1,59.37,102.78Z"/><path class="cls-2" d="M75.91,109.24a1.09,1.09,0,0,1,1,.4A.89.89,0,0,1,75.91,109.24Z"/><path class="cls-2" d="M66.72,105.54l1,.4A.89.89,0,0,1,66.72,105.54Z"/><path class="cls-2" d="M69,106.45l1,.41A.9.9,0,0,1,69,106.45Z"/><path class="cls-2" d="M36.38,93.9l-.89.18C35.69,93.58,36,93.51,36.38,93.9Z"/><path class="cls-2" d="M96.59,118.41a.94.94,0,0,1,.93.44A.89.89,0,0,1,96.59,118.41Z"/><path class="cls-2" d="M95.67,118a.94.94,0,0,1,.91.44A.89.89,0,0,1,95.67,118Z"/><path class="cls-2" d="M85.56,113.37a1,1,0,0,1,.93.42A.87.87,0,0,1,85.56,113.37Z"/><path class="cls-2" d="M66.28,105.28l.43.26Z"/><path class="cls-2" d="M60.75,103.27l.61.18A.42.42,0,0,1,60.75,103.27Z"/><path class="cls-2" d="M58.94,102.54l.42.23Z"/><path class="cls-2" d="M81.9,111.7l.44.26Z"/><path class="cls-2" d="M78.21,110.19l.68.31Z"/><path class="cls-2" d="M77.29,109.77l.59.3Z"/><path class="cls-1" d="M265.58,240.92a1.68,1.68,0,0,1,1.48.94c1.52,2.21,3.78,3.23,6.27,3.88,3.48.92,6.89,2,9.81,4.21a6.69,6.69,0,0,1,2.43,3,1.12,1.12,0,0,1-.38,1.42.69.69,0,0,1-1-.17c-2.64-2.91-6.31-3.46-9.85-4.26-2.08-.47-4.24-.58-6.2-1.5-2.25-1.06-4-2.61-4.36-5.21C263.57,241.83,264.1,241,265.58,240.92Z"/><path class="cls-1" d="M262.56,210.59c-.08.84.09,1.83-1,2.06-1.52.31-.93-.93-1.12-1.62a4.47,4.47,0,0,0-1.79-2.32c-2.86-2.17-5.77-4.28-8.6-6.48a18.67,18.67,0,0,1-4.22-4.51c-.51-.77-.78-1.59-.11-2.3a1.72,1.72,0,0,1,2.49,0A125.46,125.46,0,0,1,261,206.88,5.57,5.57,0,0,1,262.56,210.59Z"/><path class="cls-1" d="M315,224.54c0,.65-.1,1.6-.89,1.81-1.07.28-.64-.94-1-1.42a12.71,12.71,0,0,0-4.44-3.14c-2.63-1.37-5.55-2.16-8-3.9a12.26,12.26,0,0,1-4.41-4.85c-.43-.95-.7-1.95.28-2.7s1.87-.23,2.59.56a42.35,42.35,0,0,0,10.44,7.73,17.62,17.62,0,0,1,4,3A4.12,4.12,0,0,1,315,224.54Z"/><path class="cls-1" d="M254,234.88c.17-.29.35-.57.53-.86l.31.28a.93.93,0,0,1-.48.9Z"/><path class="cls-1" d="M255.2,233.33a.94.94,0,0,1-.41,1l-.31-.28.45-1A3.57,3.57,0,0,0,255.2,233.33Z"/><path class="cls-1" d="M253.61,235.42l.34-.54.36.32-.28.6Z"/><path class="cls-1" d="M254.93,233.05l.4-.06-.13.34A3.57,3.57,0,0,1,254.93,233.05Z"/><path class="cls-1" d="M374.15,276.93c-.5-1.1.42-1.63.93-2.33A1.65,1.65,0,0,1,374.15,276.93Z"/><path class="cls-1" d="M378.13,275.4c.18-.28-.12-1,.67-.74l-.05,0-.18,1.13Z"/><path class="cls-1" d="M378.8,274.66l-.08-.32.28,0-.25.26Z"/><path class="cls-1" d="M281.32,218.59c-.2-.83.07-1.19.95-1C282.24,218.24,281.83,218.46,281.32,218.59Z"/><path class="cls-1" d="M282.24,217.67c-.3-.93.21-1.06.95-1A1,1,0,0,1,282.24,217.67Z"/><path class="cls-1" d="M280.4,219c.08-.64.33-.94,1-.47C281.19,219,281,219.48,280.4,219Z"/><path class="cls-1" d="M295,226.71c.22-.37.51-.5.83-.15a3.4,3.4,0,0,1-.49.6Z"/><path class="cls-1" d="M293.06,228c.22-.15.44-.48.7-.17s-.08.45-.3.59Z"/><path class="cls-1" d="M294.83,227.47c-.19.18-.36.54-.64.23s.09-.44.3-.57Z"/><path class="cls-1" d="M294.49,227.13l.51-.42.34.45-.51.31Z"/><path class="cls-1" d="M177,152c.25,4.8-.53,9.56-.82,14.34,0,.29,0,.63-.4.71s-.65-.2-.76-.6-.37-.72-.33-1.06c.52-4.48,1.08-9,1.63-13.45Z"/><path class="cls-1" d="M329.14,220c-.88-.09-1-.72-1-1.42C329,218.7,329.16,219.26,329.14,220Z"/><path class="cls-1" d="M340.76,224.39l.16.5-.49-.16Z"/><path class="cls-1" d="M332.57,219.94a1.66,1.66,0,0,1,.14.31s-.09.1-.14.16a1.66,1.66,0,0,1-.14-.31S332.52,220,332.57,219.94Z"/><path class="cls-1" d="M365.89,237.89a.73.73,0,0,1-.48-1C366.07,237,366.34,237.27,365.89,237.89Z"/><path class="cls-1" d="M366.37,238.34c-.59.26-.47-.2-.51-.49C366.47,237.57,366.37,238,366.37,238.34Z"/><path class="cls-1" d="M316.19,280.1c.39-.57.78-1.13,1.16-1.7l.46.53a2.46,2.46,0,0,1-1,1.33Z"/><path class="cls-1" d="M317.35,278.4c.2-.24.29-.83.74-.38s0,.67-.28.91Z"/><path class="cls-1" d="M316.16,280.11h0l.64.16-.45.47Z"/><path class="cls-1" d="M366.05,275.15c.44-.63.51-1.55,1.68-2a4.9,4.9,0,0,1-1.25,2.58Z"/><path class="cls-1" d="M326.35,218.54c.6.1.92.34.48,1C326.25,219.4,326.12,219.06,326.35,218.54Z"/><path class="cls-1" d="M358.54,308.31l-2.48-.24a2.41,2.41,0,0,0-1.66-.32l-.89-.17a19.55,19.55,0,0,1-6.44-2.75l-.36-.33-.53-.59a.35.35,0,0,0-.22-.32c-.37-.93-1.57-1.82-.55-2.86s2.12-.05,3,.55c3.19,2.08,6.85,3,10.42,4.06a31.85,31.85,0,0,1,7.43,3c1.6,1,3.18,2.07,3.35,4.33-1.2,0-1.42-1.22-2.31-1.43a7.12,7.12,0,0,0-3.49-1.76l-.71-.24-.81-.18a10,10,0,0,0-3.15-.64h-.06Z"/><path class="cls-3" d="M362.33,309l.81.18.71.24a7.12,7.12,0,0,1,3.49,1.76c-.09.66.35,1.38-.73,1.85-.83.37-1.93,1-1.71,2.34a.81.81,0,0,1-.65.84c-.59.11-.83-.42-.91-.83-.21-1-.51-1.7-1.81-1.85C360.64,313.46,361.25,309.91,362.33,309Zm.81,3.18c-.13-.24-.19-.55-.33-.59-.36-.11-.55.16-.52.48a.59.59,0,0,0,.35.44C362.76,312.56,362.94,312.34,363.14,312.2Z"/><path class="cls-1" d="M355.77,314.15l0-.82.4-.69a.39.39,0,0,1,.39,0l.2.2C356.7,313.49,356.68,314.18,355.77,314.15Z"/><path class="cls-1" d="M355.31,315.09c-.47-.63-.17-.88.47-1C356.22,314.74,355.72,314.89,355.31,315.09Z"/><path class="cls-1" d="M356.6,312.66l.29-.09-.09.29Z"/><path class="cls-1" d="M354.85,315.53l0-.51.52,0C355.34,315.38,355.25,315.61,354.85,315.53Z"/><path class="cls-1" d="M354.39,316l0-.51.51,0Q355,316.09,354.39,316Z"/><path class="cls-1" d="M364.85,316.79c.14-.11.36-.33.41-.3.32.21.13.42-.05.63Z"/><path class="cls-2" d="M347.07,304.83a19.55,19.55,0,0,0,6.44,2.75C351,308.32,347.56,306.84,347.07,304.83Z"/><path class="cls-2" d="M353.34,310.11a4.23,4.23,0,0,1-2,2c-.45.22-.63-.26-.64-.66,0-1.15.87-1.48,1.71-1.8A.6.6,0,0,1,353.34,310.11Z"/><path class="cls-2" d="M354.4,307.75a2.41,2.41,0,0,1,1.66.32C355.47,308.17,354.86,308.31,354.4,307.75Z"/><path class="cls-2" d="M346.18,303.91l.53.59C346.54,304.3,346.36,304.11,346.18,303.91Z"/><path class="cls-2" d="M358.54,308.31l.58.08A.37.37,0,0,1,358.54,308.31Z"/><path class="cls-2" d="M363.85,309.44l-.71-.24Z"/><path class="cls-2" d="M363.14,312.2c-.2.14-.38.36-.5.33a.59.59,0,0,1-.35-.44c0-.32.16-.59.52-.48C363,311.65,363,312,363.14,312.2Z"/></svg>