<svg id="Слой_1" data-name="Слой 1" xmlns="http://www.w3.org/2000/svg" viewBox="0 0 400 400"><defs><style>.cls-1{fill:#794c40;}.cls-2{fill:#998f92;}.cls-3{fill:#fcfbfc;}</style></defs><path class="cls-1" d="M78.8,290.4,66,285.86c-.58-.21-1.56-.27-1.57-.89,0-2.67-2.26-2.45-3.81-2.88-10.66-2.92-20-8.5-29.91-14.14,2.58-.2,4.4,1,6.06,1.92,19.14,10.61,40.26,14.72,61.37,18.9a6.31,6.31,0,0,0,2.08,0c-6.77-1.62-13.6-3-20.26-5-15.6-4.66-31-9.78-45.64-17.06a51.76,51.76,0,0,1-12.42-8.33c-5.62-5.25-6.16-11.24-1.56-17.43,3.7-5,8.8-8.2,14.37-10.68a139.53,139.53,0,0,1,21.18-7.14c1.78-.47,2.51-1.08,2.51-3.13,0-5.47-.22-11,.75-16.4.58-3.3,2.34-5.53,5.81-6,9.21-1.31,18.12-4.07,27.27-5.68a22,22,0,0,1,7.57-.5c1.71.3,1.85-.37,1.74-1.73-.54-7.12-1-14.25-1.55-21.38-1.18-16.56-4.17-32.9-6.28-49.35a41.42,41.42,0,0,1-.21-9c.65-7,4.51-11.85,10.6-14.77A85.83,85.83,0,0,1,133,86.68c3.32-.31,6.71-.73,10-1.11,2.34-.28,4.83-.47,7.18-.75a58,58,0,0,1,8.4-.61c2.57.06,5.27-.67,7.94-.87,5.55-.42,11.1-.81,16.66-.92a59.1,59.1,0,0,0,10.13-.2H195a14.29,14.29,0,0,0,5,.06l4.53,0,.72,0,1.19,0a13.56,13.56,0,0,0,5,0h.72a15.24,15.24,0,0,0,5.47.06l.58.07c0,.14-.22.3.09.35l0-.35.59,0a6.17,6.17,0,0,0,3,.1c5,.24,10,.34,15,.76,10.1.84,20.23,1.37,30.29,2.65,11.13,1.41,22.06,3.51,32.17,8.79,8.67,4.54,12.49,11.27,11.48,21a20.94,20.94,0,0,1-.75,5.31,87.24,87.24,0,0,1,17.36.66c4.94.54,9.92.85,14.83,1.58,14.15,2.08,21.55,10.23,22.65,24.78a94.1,94.1,0,0,1-.93,20.19c-1.23,8.72-1.55,17.55-3.28,26.21-2.37,11.81-7.82,21.55-18.73,27.83a3.66,3.66,0,0,0,2.13.94c8.23,2.37,16.48,4.7,24.15,8.64a32.94,32.94,0,0,1,11.1,8.82c5,6.34,4.42,12.82-1.6,18.14-5.78,5.1-12.55,8.6-19.58,11.61a317.51,317.51,0,0,1-87.62,23.05c-29.18,3.51-58.45,4-87.77,3.58a.73.73,0,0,0-1.07,0l-3.17-.14-.68,0h-.76l-22.79-1.17c4.42.37,8.62,2.57,13.17,1.65a5,5,0,0,1,2.51.44,7.65,7.65,0,0,0,5.94,0c1.81,1,3.71.13,5.56.23,14.59.72,29.19,1.37,43.79.49,3.56-.22,7.14-.36,10.68-.46s6.85-.66,10.31-.65c2.77,0,5.83-.7,8.65-.72,3,0,5.95-.64,8.93-.73a57.39,57.39,0,0,0,7.88-.84c3.55-.61,7.2-.94,10.82-1.31,3.11-.31,6.22-.66,9.31-1.1a224.54,224.54,0,0,0,55.94-15.36,38.7,38.7,0,0,1,7.13-2.27c-7.13,3.19-14,6.92-21.49,9.32l-5.59,1.43c2.5.53,4.76-.18,7-.91L351.34,281c-5.95,2.69-12.2,4.45-18.35,6.77l12.83-2.56c.07,1-.63.88-1.11,1.05a331.26,331.26,0,0,1-66.11,15.66c-34.58,4.8-69.29,5.45-104.1,3.9-11.27-.5-22.49-1.43-33.7-2.59a13.87,13.87,0,0,1-1.4-.28c-2.27-.35-4.52-1-7-.61,2,1.65,4.45,1.1,6.56,1.81,1.76-.87,3.49.05,5.17.24,6.7.79,13.39,1.59,20.1,2.24a471.84,471.84,0,0,0,65.44,1.73c4.38-.19,8.76-.19,13.15-.56,4.16-.35,8.36-.78,12.58-.79,2.75,0,5.48-.95,8.23-1,3.48-.13,6.84-1.14,10.35-1a22.67,22.67,0,0,0,4.69-.67c2.24-.39,4.5-.6,6.73-1,5.54-1,11.1-1.81,16.65-2.76,11.19-1.91,22.36-3.92,33.44-6.39a9.84,9.84,0,0,1,1.6,0,12.41,12.41,0,0,1-4.4,1.59,419.88,419.88,0,0,1-69.91,12.87c-26,2.64-52,2.9-78.07,2-15.53-.54-31-1.6-46.43-3.53-21-2.63-41.66-6.8-61.57-14.18-.75-.28-2.34-.06-2-1.35s1.7-.59,2.66-.54a22.16,22.16,0,0,0,6.76,1.11A17.92,17.92,0,0,0,78.8,290.4ZM225,108.59c-.2.21-.4.44-.09.67.05,0,.31-.19.47-.3l.44-.51c.35-.43.86-.76.93-1.39l.05,0,4.17-4.68c-2.7.43-2.76,2.51-3.9,3.55l-.65.79c-.35.46-.7.91-1,1.37Zm-1,1.42c-.18.15-.39.31-.07.51,0,0,.21-.17.32-.27l.2-.48Zm10.35,1.29.56-.79.24-.53.75-.93c1.61-2.06,3.22-4.11,4.88-6.25-1.39-.35-2.18-.12-2.72,1.07-.74,1.64-1.69,3.19-2.55,4.77l-.46.54-.63.79-.53,1-.41.39c-.33.51-.66,1-1,1.53-.21.21-.4.44-.06.66.06,0,.29-.22.45-.34.34-.46.69-.91,1-1.36Zm50.21,94.39.37.51c.37.87-.07,1.92.63,2.72l2.19,5.92a20.13,20.13,0,0,0-1.68-7.31,2.65,2.65,0,0,0-.74-1.64l-.33-.56-.64-.76-.54-.51a5.8,5.8,0,0,0-2.08-2.23,10.45,10.45,0,0,0-5-2.17c-3.69-.49-7.9-2.2-11-1-6.75,2.6-11.77,7.84-15.33,14.54,1.37-.1,1.48-1.18,2.06-1.75,5.15-5,10-10.35,18.15-10.48a25.94,25.94,0,0,1,12.82,3.44,1.42,1.42,0,0,0,.25.24C284.09,205,284.36,205.34,284.63,205.69Zm-65.4-93.4-.81,1.14a8.14,8.14,0,0,0-2.12,2.49c1.93.31,1.88-1.31,2.54-2.12.25-.38.49-.76.73-1.14l.45-.5,7.79-9.38c-2-.6-2.92.12-3.6,1.65a53.29,53.29,0,0,1-4.63,7.43Zm9.4-3c2-2.06,3.48-4.53,5.75-6.44-1.71-.76-2.45-.11-3.08,1-1,1.71-2,3.39-3.07,5.08l-.5.62A.61.61,0,0,0,228.63,109.33Zm-87.58,3,7.81-6.55c-4.29.17-5.79,3.72-8.18,6.19-.33.34-1,.49-.78,1.3C140.52,113.21,140.73,112.7,141.05,112.34Zm128.08-.66c.21-.22.44-.44.64-.67,3-3.57,5.11-3.79,8.72-.85.39.32.71.37,1,.12.68-.52,0-.77-.29-1-3.34-3.37-8.52-2.32-10.48,2.13-.12.24-.37.48,0,.7C268.8,112.1,269,111.82,269.13,111.68Zm-48.7-8.15c-.9-1.22-1.89-1.39-2.91-.17-.81,1-1.5,2.06-2.34,3a93.57,93.57,0,0,0-7.48,9.78c1.25.26,1.76,0,2.46-1.13,2.54-4.23,6-7.75,9.47-11.26,0,0,.22.14.34.22.2,1-.66,1.55-1.13,2.21-2.35,3.3-4.76,6.55-7.16,9.82l.61.53c4.41-4.07,7.71-9.15,12-13.85C222.59,102.6,221.35,102.34,220.43,103.53Zm27.73,155c-.11-.1-.22-.2-.34-.29-.18-.73.65-1.41.22-2.16-1.12,0-1.92.86-3,.7-.61-.08-1,.33-1,1,.08,2.4-.6,4.72-.86,7.1,1.32-1.83,1.32-4.23,2.79-6.41.26,2.37-.67,4.19-1,6.65,1.62-1.85,1.48-3.95,3-5.55a9.31,9.31,0,0,1-.64,3.76c-.11.39-.8,1.05.21,1.27.67.16,1-.28,1.17-.87A6.75,6.75,0,0,0,248.16,258.52ZM211.83,104a2.34,2.34,0,0,0-3.76-.5c-3.37,4.11-6.6,8.32-9.89,12.5,1.54.8,1.93-.31,2.5-1A140,140,0,0,1,211,104.19c.21-.22.48-.73.9-.2-2.5,4.53-6.37,8-9.41,12.32,2.49,0,2.45,0,3.73-1.85a36.46,36.46,0,0,1,2.53-3.16c2.42-2.79,4.87-5.56,7.34-8.39C214.3,102.26,213,103,211.83,104ZM157,105.88c-1.8,3-4.61,5.1-6.73,8,1.13.4,2.26,2.11,3.34.44a28.63,28.63,0,0,1,5-5.23c1.76-1.63,3.62-3.14,5.76-5-2.75,0-5,0-6.94,1.38-.5-1.47-1.67-1.09-2.3-.47-2.79,2.76-5.44,5.67-8.35,8.75,1.42.14,1.7-.74,2.26-1.23C151.68,110.22,153.87,107.47,157,105.88Zm174.71,32.46.43.61c-.53.78-1,1.57-1.6,2.32-.4.54-.89,1.11-.1,1.56.5.3,1.07.16,1.64-.41,1.7-1.73,3.55-3.31,5.34-4.95l.43.51c-.68.87-1.4,1.71-2,2.64-.32.5-1.48.84-.68,1.66s1.56.5,2.27-.26c1.41-1.49,2.86-3,4.29-4.43l.39.37-3,4.33c-.38.25-.95.64-.56,1,.56.53.93,0,1.14-.59l6-5.34c-1.5,2-2.91,3.71-4.22,5.55-.3.42-1.65.64-.58,1.57.9.77,1.21-.25,1.68-.64a58.19,58.19,0,0,0,8-8.86c-1.46,3.73-4,6.71-6.61,9.61-.37.42-1.64.58-.87,1.53s1.38-.13,1.92-.52c2.38-1.74,4.18-4.08,6.21-6.19l.34.34c-1.49,2.74-3.74,4.89-5.75,7.22-.5.59-1.28,1-.48,2,.92,1.08,1.45-.06,1.93-.41,1.4-1,2.67-2.24,4-3.38l.42.44a20.94,20.94,0,0,1-4.52,4.78c-1,.83-.52,1.67-.08,2.27.59.79,1.07-.21,1.49-.49,1.11-.74,2.14-1.61,3.2-2.42l.38.62c-.94,2.34-4.75,2.89-4.19,6.5a25.63,25.63,0,0,0,5.33-3.45l.53.38c-1.4,2.38-4.8,3.13-5.37,6.19,3.49-1.63,6.25-4.15,9.24-6.38a30.8,30.8,0,0,1-8,7.94c-1.19.76-1.59,1.54-.92,2.85l3.62-1.91.54.44a16.66,16.66,0,0,1-2.85,2.09c-1.79.82-2.05,2.05-1.52,3.86,3.13-1.59,5.86-3.61,8.8-5.33a14.39,14.39,0,0,1-6.45,5.57c-2.8,1.12-3.25,3-3,5.66,2.81-1,5-2.92,7.32-4.67l.42.39a23,23,0,0,1-6.63,5.33,2.6,2.6,0,0,0-1.53,3.37,48.24,48.24,0,0,0,10.6-5.78c.36.85-.11,1.11-.46,1.4a34.34,34.34,0,0,1-7.48,5c-4.61,2.16-5,1.9-4.71-3.25.3-5.55.61-11.11-.17-16.65-.47-3.27-1.17-6.49-3.52-9a30,30,0,0,1,.93,7.69,11.51,11.51,0,0,1-.76-2.23,21.41,21.41,0,0,0-4.5-8.82,2.27,2.27,0,0,0-2.58-1c4.22,6.42,5.38,9.78,4.5,13.57-1.05-3.43-2-6.6-4.59-8.89.44,1.54.91,3,1.19,4.54,3.15,17.12-.34,32.71-11.47,46.18-2.74,3.31-2.76,7-3.54,10.67,2.82-1.9,1.51-5.79,3.92-8.35-.42,2.62-.78,4.83-1.13,7,2.39-.38,3.32-1.64,3.3-3.89a6.07,6.07,0,0,1,1.28-4.15c-.19,2.21-.33,3.91-.5,5.87,3.59-2.32,6.09-5.3,8.71-8.15l.37.37c-5,8.06-11.71,13.72-21.45,15-4,.52-8,.82-12.07,1.19-.87.08-1.74-.1-1.78,1.26-.1,3.17-.3,6.34-.47,9.51-.05,1.11.48,1.78,1.56,1.45a25.49,25.49,0,0,1,5.41-.61,87,87,0,0,0,11.78-2.24c10-2.24,19.21-6,26.93-13,10.53-9.45,11-22.28,11.94-35.33-4.69,2.8-8.67,6.2-13.85,7.9.21-1.34,1.14-1.62,1.8-2.11A62.29,62.29,0,0,1,357,178.49c1.57-.75,2.52-1.76,2.24-3.41s.42-2.86.62-4.28c1.1-7.87,2-15.74,1.18-23.71-1.09-10.57-6.81-17.32-16.81-19.64a86.16,86.16,0,0,0-10.11-1.5c-7.18-.79-14.39-1.36-21.49-2.59-2.58-.45-2.66.37-2.92,2.21-.7,5-1.52,10-2.29,15.06,0,.08.09.17.13.24.68-.16.7-1.12,1.62-1.11-.52,2.86-2.39,5.27-2.78,8.66,2.6-3.88,4.91-7.35,7.23-10.82l.47.29-5.17,10.32c2.87-3.29,4.9-7.18,7.73-10.48l.41.34c-1.38,2.76-3.28,5.25-4.18,8.29,3.91-2.68,5.93-7.18,9.82-9.88l-5.06,7.72.56.45c2.43-2.27,3.82-5.54,6.85-7.33l-2.92,5.18.39.27,6.87-6.4c-.65,2.56-2.72,4.08-4.1,6.51C328.56,142.51,329.7,139.78,331.74,138.34ZM112.18,234.15c1.43-.5,2.45.34,1.39,1.3s-1.32,4-4.08,2.56c-.44-.23-.79.23-1.06.7-.82,1.43,2,1.86.87,3.23-.68.81-2.47.39-2.31,2.28a32.36,32.36,0,0,1-.26,4.62c1.07-.2,2.24-.9,2.5.71a1.37,1.37,0,0,1-1.2,1.73c-.45.08-1.37-.79-1.22.53.08.67-.38,1.62.93,1.81s1.13,1.41.46,1.86c-2.41,1.64-.48,3.33-.43,5,.61-.86.4-2.14,1.71-2.4a.77.77,0,0,1,.93.55c.37,1.25-1.31,1.82-1.28,2.05.25,1.59-2.06,2.41-1.21,3.8a5.93,5.93,0,0,1,1,2.57c.11,1.14,1,1,1.72,1.28s1.1,0,1.37-.78c.47-1.31,1.22-1.56,2.23-.35s2.06,1.08,2.74-.45c.37-.84,1.12-1.17,1.66-.52.69.84,1.28.36,1.88.18,1.21-.38,2.36-1,3.59-1.25,2.24-.5,3.5-1.47,2.44-3.94-.25-.59.08-.86.56-1.1a1.37,1.37,0,0,1,1.56.12.68.68,0,0,1-.08,1.18c-1,.75.24,1.49-.45,2.46,1.6-.51,2.72-.88,3.86-1.22,5.46-1.63,8.91-5,9.15-10.94.28-7.23,1.36-14.42,1.16-21.67a26.88,26.88,0,0,0-.75-7.32A4.49,4.49,0,0,0,139,219.7c-1.87-.9-3.77-1-5.65-1.46-8.16-1.87-15.8-5.22-23.61-8.12-2.61-1-5.28-2.16-8.08-1.49a64.27,64.27,0,0,0-20.36,8.94c-.09.06-.08.27-.15.56,8.19,3.5,14.45,9.83,21.66,14.84a14.14,14.14,0,0,1-6.28-2.7c-3.79-2.47-7.44-5.16-11.26-7.58-6.24-3.93-7.69-3.13-8.33,4.41-.44,5.19.35,10.3.88,15.43s2.39,9.93,6.28,13.24a64.09,64.09,0,0,0,9.33,6.53,43.17,43.17,0,0,0,12,4.6c-1.07-9.08-2.36-17.89,0-26.84-1.42.24-2.8.58-3.17-1.17-.2-1-.67-2.1.6-2.74,1.68-.85,2.45.55,3.39,1.72,1.89-5.14,5.56-8.13,10.33-9.84,5.08-1.81,10.21-3.47,15.33-5.16a5.55,5.55,0,0,1,4.18,0,17.64,17.64,0,0,0-3.18.61c-3.78,1.6-7.49,3.34-11.27,4.93-.71.3-.66.68-.72,1.24-.14,1.21-1.17,1.55-1.88,1-1.91-1.6-1.62-.08-2.22,1.08s.59,3.52-2,3.62c-.4-2.67-1.12-3.12-2.91-1.81a6.12,6.12,0,0,0-2.45,3.22C111.54,236.82,111.21,234.86,112.18,234.15Zm-2.31-131a78.85,78.85,0,0,1,28.51-11,144.74,144.74,0,0,0-27.1,12.37c-.69.4-1.39.16-2.32,0,.83,1.46,1.24,3.13,2.82,1a5.51,5.51,0,0,1,1.8-1.12c8.69-4.88,18.09-7.61,27.86-9.24.45-.07.77-.07.82.61A120.27,120.27,0,0,0,112.1,107.3c9.89-4.64,20.15-7.84,31.08-8.49-9.41,2.39-18.47,5.74-28.06,9.34a4.75,4.75,0,0,0,3.15-.35,114,114,0,0,1,13.88-4.13c.84-.21,2-.76,2.48-.42,2,1.34,3.87.73,6,.39,4.62-.76,9.3-1.16,14-1.5,6.17-.45,12.36-.83,18.55-1,17.86-.48,35.73-.84,53.59-1.26A256.28,256.28,0,0,1,256.18,101a142.72,142.72,0,0,1,18.12,3c-.29-3.84,1.09-7.22,2.34-10.62-.63,3.56-.59,7.23-1.83,10.79l2.81.75a15.86,15.86,0,0,1,2.08-8.92,53.59,53.59,0,0,1-1.05,8.1c-.47,2.28,1.57,1.28,2.34,1.9s1.32.29,1.53-.84c.37-1.94,1-3.83,1.49-5.75.14-.59.92-1.5-.17-1.8-1.41-.39-.87,1-1,1.56-.45,1.84-.35,3.8-1.24,5.55-.19.36-.43.73-.89.61s-.43-.66-.35-1c.76-3,1.56-6,2.28-8.8,4.56,2.11,10.39,1.32,13,6.57.44-1.32-.37-2.14-1.18-2.91s-1.72-1.47-2.81-2.38a5.45,5.45,0,0,1,3.23.88c4.51,2.15,5.4,5.73,2.31,9.61A18.57,18.57,0,0,1,285.7,114a4.86,4.86,0,0,1-1.9,0c-4.12-1-5-.32-5.19,3.8-.36,7.77-.88,15.53-1.77,23.26a32.06,32.06,0,0,0-.59,7.29c.66-.42.06-1.29.84-1.58l.2,1.64c-1.57,15.33-1.2,30.75-1.69,46.42a2.37,2.37,0,0,1-1.26-2.41,140.68,140.68,0,0,1-.31-19.26c.37-5.22.71-10.44,1.06-15.66a3.92,3.92,0,0,0,.38-3.4c0,1.16-.89,2.19-.52,3.41-2.66,10.78-3.19,21.8-3.78,32.81-.06,1,.21,2.17-.63,3.51a138.83,138.83,0,0,1,.26-18,19.27,19.27,0,0,0-1.39,3.79c-1.39,5-2.35,10-1.7,15.28.19,1.53.77,2.23,2.36,2.23a76.06,76.06,0,0,1,7.85.23c1.59.16,1.79-.26,1.71-1.72-1.13-20.42.19-40.77,1.95-61.1l.16,0,.13-.1c0,1.27.14,2.54.08,3.8-.91,19.37-.67,38.77-1.44,58.14,0,.73-.15,1.29.8,1.65,4.91,1.86,7.28,5.94,8.81,10.6,2.94,8.93,4.4,18.18,5.71,27.45.15,1-.15,2.89,1.87,1.24,1-.78,1.42-.11,1.7.75.35,1.08.13,2.43-.64,2.86-2.78,1.54-2.27,4.21-1.28,5.85,1.3,2.17.24,4.2.76,6.21.2.76.33,1.55.53,2.5,1.13-1.37.75-3.13,2.38-4.66-1.16,3.8-1.84,7.11-1.5,10.52a1.05,1.05,0,0,1-.62,1.19c-1.16.38-1.1,1.4-1.36,2.29q-1.31,4.46-2.68,8.88a2.78,2.78,0,0,1-1.38,2.07c.33-4.22,1.88-7.85,2.56-11.65a173.42,173.42,0,0,1-27.53,8.12c-4.05.8-8.09,1.77-12.19,2.19-4.9.5-9.41-1.59-13.95-3.08-3.94-1.3-7.67-2.25-12-1.12-5.59,1.45-11.43,1.79-17.23,2H186.88a10,10,0,0,0,7.29.9l11.76.54c-7.72,1.24-15.45,1-23.17,1.09,7.65,1.26,15.37,1.75,23.08,2.48A245.67,245.67,0,0,1,169.45,276c-4.07-1-8.24-1.1-12.36-1.62,2.14,1.31,4.68,1.12,7,2,.83.33,2.55,1,3.89.3a3.08,3.08,0,0,1,2.31.15,11.57,11.57,0,0,0,5.23.82c3.46,0,6.88.41,10.29.68,7.42.59,14.85,1,22.27,1.86,6.52.74,13.17,0,19.75-.59a2.73,2.73,0,0,1,2.39.63c-18.55,2.46-37.11,2.33-55.69.9-9.81-.76-19.58-1.95-29.36-3.09a285,285,0,0,1-33.36-5.37c-1.52-.36-3.11-1.79-4.8-.19-.3.28-.79-.15-.87-.55-.14-.77-.65-1-1.3-1.15a64,64,0,0,1-15.62-6.84c-5.89-3.38-10.85-7.41-13.68-13.71-.28-.61-.44-1.13-1.32-1-3.77.59-7.4-.81-11.13-.81a3.73,3.73,0,0,1-3.83-3.28,24.11,24.11,0,0,1-.43-4.25q-.25-6.68-.38-13.34c0-1.21-.16-1.76-1.58-1.27-7,2.43-14.25,4.41-21.08,7.43-4.85,2.13-9.36,4.79-12.5,9.21-3.34,4.68-2.86,8.81,1.31,12.71a35.71,35.71,0,0,0,6.77,4.84,173.38,173.38,0,0,0,16.79,8.45c19.35,8.41,39.63,13.55,60.3,17.37,9,1.65,17.95,3.33,27,4.78,5.5.88,11,1.68,16.56,2.32,2.76.32,5.78.33,8.67.4,28.2.64,56.38,1.11,84.57-.42,3-.16,6-.53,8.92-.91,6.11-.78,12.22-1.54,18.29-2.63,11.65-2.08,23.29-4.18,34.83-6.75,21.16-4.72,41.63-11.38,60.59-22.12a35.06,35.06,0,0,0,7.57-5.33c4.53-4.49,4.73-8.66.67-13.63a29.59,29.59,0,0,0-11.55-8.19c-8.1-3.5-16.59-5.88-24.94-8.67a4.87,4.87,0,0,0-3.83.3,64.21,64.21,0,0,1-33.4,5.66c-1-.11-1.46,0-1.47,1.08a8,8,0,0,1-.26,1.88c-.19.76-.07,1.93-1.11,2-1.27.05-1-1.21-1.12-2a146.51,146.51,0,0,1-.57-16c.15-14.53,1.21-29,2.33-43.49.94-12.18,2-24.35,4.14-36.4,1.48-8.36,2.87-16.72,3-25.27.06-5.61-2.12-10.06-5.5-14.19a7.77,7.77,0,0,0-3.25-2.29A137.5,137.5,0,0,0,271.3,88.8a323.73,323.73,0,0,0-36-4c-13.92-.91-27.8-2.07-41.81-1.37-13.8.69-27.58,1.6-41.33,2.94-15.54,1.52-30.75,4.43-45.43,10a13.49,13.49,0,0,0-7,6.14,19.14,19.14,0,0,0-2.78,10c-.33,13.84,3.86,27.13,4.93,40.81.53,6.76,1.51,13.53,2.07,20.3.84,10.13,1.35,20.28,2,30.43,0,.84.07,1.46,1.14,1.7,1.92.44,3.8,1.07,5.92,1.68-.58-14.85-1.15-29.59-1.72-44.33h.84q.83,21.41,1.66,42.79c0,.82-.29,1.89.78,2.29,2,.75,3.87,2,6.1,2.41-.72-19.12-1.42-38.06-2.13-57l.74,0q.57,14.16,1.13,28.32.54,13.68,1.13,27.36c0,.79-.34,1.85.82,2.24,1.64.55,3.14,1.48,5,1.71-.52-14.66-1-29.22-1.57-43.78a5.6,5.6,0,0,0-.17-3l0-.81c.27-.08.52-.39.83-.1.53,13.92,1.18,27.85,1.54,41.78.11,4.29.36,8,5.73,8.52.19,0,.36.22.77.47-.38-10-.75-19.85-1.12-29.67l-.05-.65-.09-1.79c0-.06.13-.13.12-.18a3.12,3.12,0,0,0-.15-.39q-.42-11.67-.82-23.33h.74q.33,9,.68,18l.07.66q.66,16.75,1.3,33.52c.15,4.18.12,4.14,4.27,5,1.28.26,1.68,0,1.57-1.34-.2-2.55-.73-5.14.36-7.65a1.62,1.62,0,0,0-.13-1.6,6.81,6.81,0,0,1-.86-3.89c-.43-11.17-.82-22.35-1.23-33.53l0-1.15-.19-3.17.82,0c.16,3.72.39,7.45.46,11.18.17,9.47,1,18.92.9,28.41-.06,4,.69,8.05.69,12.1,0,.55,0,1.05.64,1.36,2.3,1.07.1,1.08-.48,1.45a16.37,16.37,0,0,1,2.7,7.12c.92,6.46-.2,12.83-.74,19.21-.15,1.7.12,2.34,1.86,2.73,9.37,2.14,18.8,3.89,28.33,5.12.75.56,1.62.33,2.45.35l5.61.67c1,1.86,2.24.55,3.41.35a282.19,282.19,0,0,0,30.57,1.85,3.87,3.87,0,0,1-2.88.71c-6.44.16-12.87.35-19.31.39-1.56,0-1.93.47-1.61,1.91a71.91,71.91,0,0,1,1.41,7.25c.25,2.12,1.23,2.58,3.18,2a21.61,21.61,0,0,1-1.59-8.67,40.19,40.19,0,0,1,2.19,6.94c.34,1.72,1.17,2.06,2.75,2,3.89-.16,7.79-.22,11.68-.15,2.18,0,4.3-.59,6.57-.1a2.8,2.8,0,0,0,3.27-2.3,14.23,14.23,0,0,1,2.82-5.89,62.18,62.18,0,0,1-1.82,6.1c-.14.4-.94.9,0,1.32.54.24,1,.54,1.67,0a2.48,2.48,0,0,0,1.17-1.57,18.25,18.25,0,0,1,1.94-5.86c.24,2.06-.48,3.58-.8,5.17-.1.53-.77,1.38.14,1.6.74.18,1.81.13,2-1.12a14.69,14.69,0,0,1,.41-1.86c.52-1.79.76-3.68,1.94-5.23a23,23,0,0,1-1.08,6.05c-.13.5-.85,1.31.08,1.57a1.42,1.42,0,0,0,1.87-1c.31-1.15.73-2.26,1.09-3.4.13-.4.3-.74.81-.64s.72.55.56,1.08c-.32,1.08-.67,2.15-1,3.24.84.14,1.58,0,1.78-.65.76-2.49,1.42-5,2.07-7.56.16-.62-.07-1.09-.87-1-.63.05-1.26,0-1.35.92s.17,1.9-.55,2.81c-.15-.26-.36-.46-.33-.61.68-3.48-1.63-3-3.73-2.88a13.76,13.76,0,0,1-1.43.05c-1.72-.05-3.47.41-5.68-.28,3.8-1.5,7.43-1.62,10.66-3.11l.61,0c1.28.23,2.43-.44,3.66-.49l.61-.06.54-.23.93-.19c1.47-.26,3-.95,4.4-.68,2.5.5,2.87-.44,2.62-2.55a227.59,227.59,0,0,1-1.75-26.6c0-4.66.54-9.21,3.29-13.18a3.13,3.13,0,0,0,.38-2c-.15-20.49.25-41,.47-61.46,0-.62-.28-1.34.62-2.13v20.63c0,14.26,0,28.52-.41,43.13,1.88-1.76,3.4-3.34,5.08-4.72a2.79,2.79,0,0,0,1.09-2.63c-.77-18.42-.68-36.84-.36-55.27l.59-.08.36,15.55a7.43,7.43,0,0,0,.12,4c.33,12.18.21,24.37.15,36.76,1.71-1,3.12-1.88,4.54-2.72v0l3.69-1.57c-.56-.63-.52-.91,0-1.56a.74.74,0,0,0,.1-.6c-1-3.77-.13-7.57-.21-11.36-.4-17.46.48-34.9.89-52.35l.22,0,.23,0,.08,14.22v.63q0,4.45,0,8.91v2.52c.06,7.94-.16,15.87-.25,23.85,1.08-4.21,2.84-8.16,2.86-12.72.06-10.55.84-21.09,1.61-31.62.39-5.5.95-11,1.43-16.49,0,15.15-.72,30.24-1.93,45.33a8,8,0,0,0,.88-2.45A139.48,139.48,0,0,0,274,143.06c.54-8.87,1.06-17.75,1.64-26.62.09-1.37-.22-1.79-1.68-1.59-2.9.39-5.84.62-8.76.82-9.22.62-18.43,1.51-27.68,1.71-11.66.25-23.33.25-35,.12-2.29,0-4.95-1-7,1.2-.19.2-.71.26-.82-.09-.56-1.69-1.95-1-3-1-15.41.12-30.79-.47-46.18-1.47-4.31-.28-8.71-2-13.06-.08a.73.73,0,0,1-1-.35c-.35-1.33-1.46-1-2.33-1.13-5.5-.73-11-1.23-16.26-3.29a16.4,16.4,0,0,1-6.39-3.88,3.67,3.67,0,0,1-.59-4.69,9.23,9.23,0,0,1,4.65-4.13,93.2,93.2,0,0,1,15.6-5.74c.53-.14,1.07-.7,1.84.07a87.84,87.84,0,0,0-15.32,7.17c-1.22.72-2.54,1.32-3.22,2.7-.12.26-.42.52,0,.76C109.5,103.57,109.73,103.26,109.87,103.1Zm192.58,93.67c-.13,2.53-.26,5.07-.37,7.6,0,.53-.26,1.36.32,1.52,1.88.52,3.74,1.67,5.67,1.35a23.83,23.83,0,0,0,17.3-11.75,56.84,56.84,0,0,0,8.37-32.43c-.23-4.56-1.33-9-4.44-12.55-1.46-1.68-3.22-3.87-5.33-3.65-5.48.55-11.06,1.33-15.71,4.79a6,6,0,0,0-2.86,4.45C304.29,169.65,302.88,183.17,302.45,196.77Zm-49.67,32.7c.13,1.5.22,3,.39,4.5,1,8.74,2.06,17.48,3,26.24.35,3.24.57,3.51,3.75,2.84a30,30,0,0,0,3.21-.91,113.32,113.32,0,0,1,15-3.8,33,33,0,0,0,8.85-2.65c3.4-1.7,4.1-2.85,3.48-6.57-1.75-10.56-3.63-21.11-5.39-31.67-.28-1.7-1.09-1.5-2.28-1.14-8.43,2.51-16.84,5.13-25.33,7.43C252.43,225.09,252.93,223.8,252.78,229.47ZM65.41,205.71c1.78-.56,2.8,0,3.87.26,5.48,1.15,10.87,2.53,16.6,2.54,3.75,0,7.23-.08,10.52-2A6.89,6.89,0,0,1,98,206c4.19-1.21,4.3-1.22,4.06-5.59-.44-7.74,1.42-7.37-7.41-5.82S77,198.71,68.2,200.7c-4.79,1.08-5.72,2.22-6.11,7.12-.87,11.27-.05,22.53,0,33.79A3.52,3.52,0,0,0,65,245.36a7.48,7.48,0,0,1,1.85.39c2.4,1.53,4.84-.06,7.24.21a20.93,20.93,0,0,0-.69-5.37c-.66.3-1.19,1.19-2.06.51a1.3,1.3,0,0,1-.56-1.24c.07-.52.48-1,1-.83,1.67.58,1.34-.6,1.33-1.44,0-1.26.2-2.66-.27-3.75a5.6,5.6,0,0,1-.16-3.43c.3-2.06,1.37-4.51-1.27-6.15-.7-.44-.24-1.71.49-1.59,2.72.45,2.07-2,3-3.14-.87-.33-2-.27-1.89-1.66,0-.63.31-1.22.78-1.36,1.14-.33,1.12,1.05,1.87,1.56.77-1.34,2.56-2,1.75-4.16a1.91,1.91,0,0,1,1.68-2.43c1.53-.1,1.15,1.33,1.34,2.21,1.33-.15,1.18-1.16,1.19-2,0-1.19-1-.71-1.6-.85-1.54-.37-3.14-.55-4.65-1A36.88,36.88,0,0,1,65.41,205.71Zm106.82,53.12c.57.31.49.83.59,1.27.53,2.56,1.09,5.11,1.55,7.68a1.23,1.23,0,0,0,1.66,1.14c1.08-.21.39-1,.36-1.52-.07-1.1-.28-2.2-.41-3.3-.06-.52-.33-1.18.49-1.34,1-.2.91.63,1.05,1.2.36,1.54.63,3.11,1.09,4.62a1.41,1.41,0,0,0,2,1c.92-.34.94-.82.68-1.76a31.72,31.72,0,0,1-1.25-6.51c-.14-2.26-.46-3.92-3.24-3.45-.45,1.25.09,2.7-.69,4.25a2.56,2.56,0,0,1-.59-2.4c.37-2.2-1.05-2.54-2.5-2.16a4.94,4.94,0,0,1-2.66-.22c-1-.21-3.09-1.24-3,.61a51,51,0,0,0,1.65,9.82c.27,1.18,1.74,1.29,2.78,1.16,1.72-.21.64-1.34.51-2.13-.33-1.87-.7-3.73-1-5.61C171.2,260.27,171.12,259.28,172.23,258.83Zm-12.9-143.72c2.26.22,4.3.37,6.33.64,2.42.32,4.48.45,5.71-2.48.69-1.65,2.44-2.87,3.74-4.26,1.66-1.77,3.35-3.5,5.09-5.32a3.51,3.51,0,0,0-4,1.21c-1.85,2.07-3.74,4.1-5.69,6.08-1.33,1.35-2.75,2.61-4.19,3.86-.38.33-.92.7-1.47.16s-.1-1,.19-1.46a19.17,19.17,0,0,1,4-4.37c2.25-1.8,4.57-3.53,7.38-5.69-2.18.21-4.09-.61-5.27.45C167.23,107.48,163.09,110.8,159.33,115.11ZM189,269.2a26.78,26.78,0,0,1-1.19-9.75c.09-2-1.33-1.28-2.27-1.37-1.52-.15-.89.93-.77,1.58.39,2.11.89,4.19,1.26,6.3.09.53.52,1.41-.37,1.62-1.08.25-1-.76-1.11-1.41-.29-2.13-.65-4.25-.75-6.39-.07-1.65-.89-2-2.26-1.81-1.6.24-.66,1.4-.55,2a44.38,44.38,0,0,0,1.56,6.46c.41,1.22-.24,4.66,3,2,.23-.2.55.07.77.35C187.06,269.74,188,269.26,189,269.2Zm-26.92-1.85a22,22,0,0,1-1.28-9.61c.13-1.3-.63-1.32-1.49-1.61-1.33-.46-1.23,1.28-2.33,1.28.26-1.73-1-2.09-2.17-1.79s-.3,1.45-.29,2.2c0,2.54,1.16,4.94,1.06,7.5,0,1,.6,1.28,1.36,1.2,1-.09.38-.84.35-1.28-.06-1.18-.31-2.36-.31-3.55s-.57-2.48,1.06-3.48a62.15,62.15,0,0,1,1.18,7.1C159.39,267.37,160.37,267.62,162.12,267.35ZM172.07,116c1.57-.25,3.09,0,4.41-1.51,2.43-2.85,5.31-5.32,8-8,1-1,1.92-2,2.93-3-5.3-.38-5.3-.38-8.06,3.36C177,110,174.69,113.05,172.07,116Zm77.07,116.47a4.48,4.48,0,0,0-.09.64c.16,9.61,1.47,19.14,2.15,28.72.14,2,.19,4.2,2.4,6.27C250.93,255.94,251.14,244.08,249.14,232.48ZM163.75,256.7c-1.15-.21-1.62-.08-1.58,1.13a38.44,38.44,0,0,0,1.89,9.28c.4,1.4,1.75,1.15,2.57,1,1-.12.33-1.18.22-1.76a24.21,24.21,0,0,1-.58-7.08C166.48,257,165.36,256.61,163.75,256.7ZM193.12,116c2.37.27,2.33.23,3.43-1.15,1.48-1.86,2.95-3.74,4.57-5.47,1.92-2.06,4-4,6-5.93-1.65-.13-3.33-1.11-4.41.22C199.48,107.64,196.4,111.75,193.12,116Zm8.17-12.68a3.43,3.43,0,0,0-4.22,1.31c-2.87,3.78-5.86,7.45-8.82,11.19,1.64.61,2.47,0,3.45-1.27C194.75,110.73,198,107.1,201.29,103.31Zm-45.47,11.26c1.57.49,2.38.36,3.42-1,2.82-3.83,6.94-6.36,10.87-9.83-1.81.28-3.28-.26-4.44.76A80.65,80.65,0,0,0,155.82,114.57ZM240.17,265.5c1.39-1.08,1.89-2,2.56-4.67.3-1.21,1-2.58.36-3.63-.49-.78-1.69.14-2.58.18-.29,0-.58-.26-.88-.29-.79-.08-1.44.06-1.41,1.09a52.78,52.78,0,0,1-.8,7.76c2-2.1,1.76-5.19,3.24-8.15C241.13,260.76,239.91,263,240.17,265.5Zm42,.09c-3.09-.25-5.87,1-8.77,1.67-6.25,1.5-12.36,3.72-18.89,3.94,1,.73,2,1.6,3.51,1.18ZM196.94,103.87l-.58-.67a3,3,0,0,0-3.11,1.15c-3.15,3.93-6.2,8-10.33,11.4,2.13.3,3.69.58,4.43-1.88.49-1.63,1.92-2.88,3.17-4.09C192.61,107.76,194.79,105.84,196.94,103.87ZM178,115.64c2,.56,3,.24,3.92-1.51a21.81,21.81,0,0,1,4.2-4.79c2-2,4.15-3.79,6.8-6.18-1.92.29-3.31-.43-4.31.89C185.51,108.18,182.34,112.3,178,115.64ZM190.36,258c-.89.12-1.85-.23-1.71,1a63.27,63.27,0,0,0,1.85,9.75c.24.87,1,.55,1.6.57.74,0,.68-.49.52-1a33.45,33.45,0,0,1-1.25-9.12C191.33,258.39,191.07,257.89,190.36,258Zm47.32-155.32c-1.34-.15-2-.17-2.55.69-2.72,4.11-5.53,8.16-8.35,12.29.35.08.59.19.64.14C230.87,111.65,233.49,106.84,237.68,102.72Zm-94.44,10.63c2.56,0,3-2.72,4.75-3.83a38.94,38.94,0,0,0,4.89-4.22l-.5-.56C148.23,106.36,146.32,110.52,143.24,113.35ZM293.79,252c-1.61,3.12,2.36,7.57-2.81,10.18C296.27,261.63,295.94,256.64,293.79,252Zm-43.64-37.13c-1.71,3.48-2.19,13.66-.87,16.95C249.93,225.93,248.62,220.3,250.15,214.87Zm67-1.56c3.65-1.1,2.06-4.84,4.11-7.3C317.43,207.47,318.73,211.13,317.18,213.31ZM153.32,265.49a35.13,35.13,0,0,1-.67-9c0-.68.24-1.67-.82-1.6s-.53,1.14-.49,1.68c.21,2.75.54,5.49.83,8.23C152.22,265.23,152.48,265.46,153.32,265.49ZM283.77,106.86l.6.08c.8-2.44,1.59-4.89,2.39-7.34.16-.49.68-1-.27-1.27-.78-.19-1.14.11-1.28.91C284.76,101.78,284.25,104.32,283.77,106.86ZM314,213.8c2.64-.59,1.85-3.19,3.34-5C314,209.55,314.67,212.08,314,213.8Zm-25.29-107a12.53,12.53,0,0,0,1.29-6.58A12.53,12.53,0,0,0,288.67,106.83Zm21,107.45c3.13-.21,2.39-2.54,3.6-3.84C310.45,210.45,311.05,212.79,309.65,214.28Zm-161,44.53h.5c.17-1.3.34-2.6.5-3.9.09-.77-.5-1-1-1-.78,0-.49.62-.45,1C148.31,256.21,148.49,257.51,148.65,258.81Zm138.44-155,.39.07c.45-1.22.88-2.45,1.37-3.66.22-.52.25-.92-.34-1.11-.77-.25-.66.42-.74.81C287.52,101.18,287.31,102.48,287.09,103.78ZM309.9,210.67c-3,.26-2.27,2.29-2.44,3.76Zm-19.38,17-.75-6.13C289.25,223.73,290,225.76,290.52,227.68Zm14.12-13.42c.53-1.28.83-2.06,1.18-2.81.23-.52.54-1-.32-1.24s-.75.57-.85,1A5.44,5.44,0,0,0,304.64,214.26Zm-16,49a4.08,4.08,0,0,0-3.16,1.06A3.93,3.93,0,0,0,288.61,263.26Zm1.88-.46c-.06-.23-.13-.5-.42-.37a3.8,3.8,0,0,0-.71.5c.15.09.31.26.45.25S290.44,263.22,290.49,262.8Z"/><path class="cls-1" d="M312,309a441.13,441.13,0,0,1-51,7.11,509,509,0,0,1-63.09,1.52A488.49,488.49,0,0,1,81.79,299.37c-1.19-.34-2.73-.18-3.52-1.78,2.06-.37,3.92.24,5.75.65,18.2,4.09,36.47,7.84,54.9,10.73,9.78,1.53,19.59,2.8,29.43,3.87a500,500,0,0,0,76,2.1c3.67-.16,7.32,0,11-.49a134.13,134.13,0,0,1,13.61-1c4.68-.21,9.28-1,13.91-1.41,7.9-.76,15.77-1.86,23.66-2.76,1.79-.21,3.6-.17,5.41-.25Z"/><path class="cls-2" d="M176,297.63a7.65,7.65,0,0,1-5.94,0,5,5,0,0,0-2.51-.44c-4.55.92-8.75-1.28-13.17-1.65l22.79,1.17C176.79,297.1,175.89,296.74,176,297.63Z"/><path class="cls-2" d="M139,304.15c-2.11-.71-4.55-.16-6.56-1.81,2.49-.43,4.74.26,7,.61Z"/><path class="cls-2" d="M334.9,284.75c-2.26.73-4.52,1.44-7,.91l5.59-1.43C333.66,285.19,334.46,284.49,334.9,284.75Z"/><path class="cls-2" d="M78.8,290.4a17.92,17.92,0,0,1,5.29,1.72A22.16,22.16,0,0,1,77.33,291C77.77,290.68,78.66,291.44,78.8,290.4Z"/><path class="cls-2" d="M193.3,82.22a59.1,59.1,0,0,1-10.13.2A42.92,42.92,0,0,1,193.3,82.22Z"/><path class="cls-2" d="M217.67,82.29a15.24,15.24,0,0,1-5.47-.06A14.79,14.79,0,0,1,217.67,82.29Z"/><path class="cls-2" d="M211.48,82.23a13.56,13.56,0,0,1-5,0A13.14,13.14,0,0,1,211.48,82.23Z"/><path class="cls-2" d="M200,82.29a14.29,14.29,0,0,1-5-.06A12.61,12.61,0,0,1,200,82.29Z"/><path class="cls-1" d="M312,309c.44,0,.6-.85,1.07-.44-.38-.11-.89-.41-1.09.42Z"/><path class="cls-2" d="M221.92,82.42a6.17,6.17,0,0,1-3-.1A4.67,4.67,0,0,1,221.92,82.42Z"/><path class="cls-2" d="M181.74,296.92a.73.73,0,0,1,1.07,0Z"/><path class="cls-2" d="M218.31,82.36l0,.35c-.31,0-.13-.21-.09-.35Z"/><path class="cls-2" d="M205.29,82.3l-.72,0A.43.43,0,0,1,205.29,82.3Z"/><path class="cls-2" d="M177.89,296.74l.68,0A.4.4,0,0,1,177.89,296.74Z"/><path class="cls-3" d="M133.43,186.57c.37,9.82.74,19.64,1.12,29.67-.41-.25-.58-.45-.77-.47-5.37-.53-5.62-4.23-5.73-8.52-.36-13.93-1-27.86-1.54-41.78a6.19,6.19,0,0,0-.19-2.93l-.08-.81a.93.93,0,0,0,0-1.12L126,154v-6.46c-.69,2.17-1.51,4.31-.73,6.58l.25,8.48a6.79,6.79,0,0,0,.15,2.94l0,.81a4.77,4.77,0,0,0,.17,3c.52,14.56,1,29.12,1.57,43.78-1.86-.23-3.36-1.16-5-1.71-1.16-.39-.78-1.45-.82-2.24q-.6-13.68-1.13-27.36-.57-14.16-1.13-28.32V146.7a10,10,0,0,0-.74,6.86c.71,18.94,1.41,37.88,2.13,57-2.23-.45-4.08-1.66-6.1-2.41-1.07-.4-.75-1.47-.78-2.29q-.86-21.39-1.66-42.79a4.57,4.57,0,0,0-.17-2.43q-.15-4.5-.32-9v-6.39c-.29,2.16-1.71,4.21-.73,6.43l.24,9a4.19,4.19,0,0,0,.14,2.35c.57,14.74,1.14,29.48,1.72,44.33-2.12-.61-4-1.24-5.92-1.68-1.07-.24-1.09-.86-1.14-1.7-.63-10.15-1.14-20.3-2-30.43-.56-6.77-1.54-13.54-2.07-20.3-1.07-13.68-5.26-27-4.93-40.81a19.14,19.14,0,0,1,2.78-10,13.49,13.49,0,0,1,7-6.14c14.68-5.6,29.89-8.51,45.43-10C166,85,179.74,84.11,193.54,83.42c14-.7,27.89.46,41.81,1.37a323.73,323.73,0,0,1,36,4,137.5,137.5,0,0,1,27.22,7.66,7.77,7.77,0,0,1,3.25,2.29c3.38,4.13,5.56,8.58,5.5,14.19-.11,8.55-1.5,16.91-3,25.27-2.14,12-3.2,24.22-4.14,36.4-1.12,14.47-2.18,29-2.33,43.49a146.51,146.51,0,0,0,.57,16c.08.78-.15,2,1.12,2,1,0,.92-1.21,1.11-2a8,8,0,0,0,.26-1.88c0-1.08.43-1.19,1.47-1.08a64.21,64.21,0,0,0,33.4-5.66,4.87,4.87,0,0,1,3.83-.3c8.35,2.79,16.84,5.17,24.94,8.67A29.59,29.59,0,0,1,376.07,242c4.06,5,3.86,9.14-.67,13.63a35.06,35.06,0,0,1-7.57,5.33c-19,10.74-39.43,17.4-60.59,22.12-11.54,2.57-23.18,4.67-34.83,6.75-6.07,1.09-12.18,1.85-18.29,2.63-3,.38-5.92.75-8.92.91-28.19,1.53-56.37,1.06-84.57.42-2.89-.07-5.91-.08-8.67-.4-5.51-.64-11.06-1.44-16.56-2.32-9-1.45-18-3.13-27-4.78-20.67-3.82-40.95-9-60.3-17.37a173.38,173.38,0,0,1-16.79-8.45,35.71,35.71,0,0,1-6.77-4.84c-4.17-3.9-4.65-8-1.31-12.71,3.14-4.42,7.65-7.08,12.5-9.21,6.83-3,14-5,21.08-7.43,1.42-.49,1.56.06,1.58,1.27q.12,6.66.38,13.34a24.11,24.11,0,0,0,.43,4.25,3.73,3.73,0,0,0,3.83,3.28c3.73,0,7.36,1.4,11.13.81.88-.14,1,.38,1.32,1,2.83,6.3,7.79,10.33,13.68,13.71a64,64,0,0,0,15.62,6.84c.65.17,1.16.38,1.3,1.15.08.4.57.83.87.55,1.69-1.6,3.28-.17,4.8.19A285,285,0,0,0,145.14,278c9.78,1.14,19.55,2.33,29.36,3.09,18.58,1.43,37.14,1.56,55.69-.9a2.73,2.73,0,0,0-2.39-.63c-6.58.55-13.23,1.33-19.75.59-7.42-.84-14.85-1.27-22.27-1.86-3.41-.27-6.83-.68-10.29-.68a11.57,11.57,0,0,1-5.23-.82,3.08,3.08,0,0,0-2.31-.15c.21-.85,1-.41,1.5-.7a245.67,245.67,0,0,0,36.39,1.36c-7.71-.73-15.43-1.22-23.08-2.48,7.72-.11,15.45.15,23.17-1.09l-11.76-.54c.66-.89,1.59-.43,2.4-.45,5.57-.15,11.16.27,16.72-.45,5.8-.23,11.64-.57,17.23-2,4.31-1.13,8-.18,12,1.12,4.54,1.49,9.05,3.58,13.95,3.08,4.1-.42,8.14-1.39,12.19-2.19a173.42,173.42,0,0,0,27.53-8.12c-.68,3.8-2.23,7.43-2.56,11.65a2.78,2.78,0,0,0,1.38-2.07q1.38-4.42,2.68-8.88c.26-.89.2-1.91,1.36-2.29a1.05,1.05,0,0,0,.62-1.19c-.34-3.41.34-6.72,1.5-10.52-1.63,1.53-1.25,3.29-2.38,4.66-.2-.95-.33-1.74-.53-2.5-.52-2,.54-4-.76-6.21-1-1.64-1.5-4.31,1.28-5.85.77-.43,1-1.78.64-2.86-.28-.86-.74-1.53-1.7-.75-2,1.65-1.72-.21-1.87-1.24-1.31-9.27-2.77-18.52-5.71-27.45-1.53-4.66-3.9-8.74-8.81-10.6-.95-.36-.83-.92-.8-1.65.77-19.37.53-38.77,1.44-58.14.06-1.26-.05-2.53-.08-3.8,1.06-2.34.33-4.75.19-7.14l-.48,7.2c-1.76,20.33-3.08,40.68-1.95,61.1.08,1.46-.12,1.88-1.71,1.72a76.06,76.06,0,0,0-7.85-.23c-1.59,0-2.17-.7-2.36-2.23-.65-5.24.31-10.28,1.7-15.28a19.27,19.27,0,0,1,1.39-3.79,138.83,138.83,0,0,0-.26,18c.84-1.34.57-2.47.63-3.51.59-11,1.12-22,3.78-32.81h.14c-.35,5.22-.69,10.44-1.06,15.66a140.68,140.68,0,0,0,.31,19.26,2.37,2.37,0,0,0,1.26,2.41c.49-15.67.12-31.09,1.69-46.42.75-2,.22-4.2.8-6.25.29-1-.43-1.18-1.25-1.1.89-7.73,1.41-15.49,1.77-23.26.18-4.12,1.07-4.8,5.19-3.8a4.86,4.86,0,0,0,1.9,0,18.57,18.57,0,0,0,11.51-6.61c3.09-3.88,2.2-7.46-2.31-9.61a5.45,5.45,0,0,0-3.23-.88c1.09.91,2,1.61,2.81,2.38s1.62,1.59,1.18,2.91c-2.63-5.25-8.46-4.46-13-6.57-.72,2.76-1.52,5.77-2.28,8.8-.08.32-.16.84.35,1s.7-.25.89-.61c.89-1.75.79-3.71,1.24-5.55.13-.57-.41-2,1-1.56,1.09.3.31,1.21.17,1.8-.46,1.92-1.12,3.81-1.49,5.75-.21,1.13-.77,1.45-1.53.84s-2.81.38-2.34-1.9a53.59,53.59,0,0,0,1.05-8.1,15.86,15.86,0,0,0-2.08,8.92l-2.81-.75c1.24-3.56,1.2-7.23,1.83-10.79-1.25,3.4-2.63,6.78-2.34,10.62a142.72,142.72,0,0,0-18.12-3,256.28,256.28,0,0,0-29.45-1.15c-17.86.42-35.73.78-53.59,1.26-6.19.17-12.38.55-18.55,1-4.68.34-9.36.74-14,1.5-2.11.34-4,1-6-.39-.5-.34-1.64.21-2.48.42a114,114,0,0,0-13.88,4.13,4.75,4.75,0,0,1-3.15.35c9.59-3.6,18.65-7,28.06-9.34-10.93.65-21.19,3.85-31.08,8.49a120.27,120.27,0,0,1,30.16-11.63c0-.68-.37-.68-.82-.61-9.77,1.63-19.17,4.36-27.86,9.24a5.51,5.51,0,0,0-1.8,1.12c-1.58,2.17-2,.5-2.82-1,.93.13,1.63.37,2.32,0a144.74,144.74,0,0,1,27.1-12.37,78.85,78.85,0,0,0-28.51,11l-.4-.31c.68-1.38,2-2,3.22-2.7A87.84,87.84,0,0,1,128,92.92c-.77-.77-1.31-.21-1.84-.07a93.2,93.2,0,0,0-15.6,5.74,9.23,9.23,0,0,0-4.65,4.13,3.67,3.67,0,0,0,.59,4.69,16.4,16.4,0,0,0,6.39,3.88c5.22,2.06,10.76,2.56,16.26,3.29.87.11,2-.2,2.33,1.13a.73.73,0,0,0,1,.35c4.35-1.87,8.75-.2,13.06.08,15.39,1,30.77,1.59,46.18,1.47,1.05,0,2.44-.69,3,1,.11.35.63.29.82.09,2-2.18,4.67-1.22,7-1.2,11.67.13,23.34.13,35-.12,9.25-.2,18.46-1.09,27.68-1.71,2.92-.2,5.86-.43,8.76-.82,1.46-.2,1.77.22,1.68,1.59-.58,8.87-1.1,17.75-1.64,26.62a139.48,139.48,0,0,1-2.64,20.76,8,8,0,0,1-.88,2.45c1.21-15.09,1.95-30.18,1.93-45.33-.48,5.5-1,11-1.43,16.49-.77,10.53-1.55,21.07-1.61,31.62,0,4.56-1.78,8.51-2.86,12.72.09-8,.31-15.91.25-23.85a4,4,0,0,0,0-2.52q0-4.46,0-8.91v-.63l-.08-14.22c.57-3.15.14-6.29.28-9.44h-.73v9.47c-.41,17.45-1.29,34.89-.89,52.35.08,3.79-.8,7.59.21,11.36a.74.74,0,0,1-.1.6c-.54.65-.58.93,0,1.56l-3.69,1.57a19.48,19.48,0,0,0,.19-5.17c-.82-19.37-1.56-38.73-.87-58.11a4.7,4.7,0,0,0-.51-2.76c-.92,16.83-1.59,33.24-.55,49.67.35,5.47.52,11,1.73,16.35-1.42.84-2.83,1.69-4.54,2.72.06-12.39.18-24.58-.15-36.76a9.49,9.49,0,0,0-.12-4l-.36-15.55V128.89h-.75c.18,5.57-.37,11.13.16,16.7-.32,18.43-.41,36.85.36,55.27a2.79,2.79,0,0,1-1.09,2.63c-1.68,1.38-3.2,3-5.08,4.72.38-14.61.43-28.87.41-43.13a.42.42,0,0,0,0-.65v-3.16a2.44,2.44,0,0,0,0-2.08v-1.74a1.75,1.75,0,0,0,0-1.59V144.46c-.9.79-.61,1.51-.62,2.13-.22,20.48-.62,41-.47,61.46a3.13,3.13,0,0,1-.38,2c-2.75,4-3.29,8.52-3.29,13.18a227.59,227.59,0,0,0,1.75,26.6c.25,2.11-.12,3-2.62,2.55-1.37-.27-2.93.42-4.4.68-.3-4.64.29-9.34-.33-14l-.6,0v14.13l-.54.23-.61.06c-1.23,0-2.38.72-3.66.49,0-2.7.05-5.4,0-8.1q-.09-12.39-.21-24.77-.07-7.53-.14-15.08a.92.92,0,0,0,0-1.18q-.12-18.78-.22-37.55c.21-11.8-.34-23.57-.76-35.35-.26,6.18-.29,12.36-.26,18.54,0,5.63.12,11.26.19,16.89,0,1.22,0,2.45,0,3.68a19.45,19.45,0,0,0,0,5.9l.06,8.34a.43.43,0,0,0,0,.72q0,6.31.07,12.65a.4.4,0,0,0,0,.67l.12,21.86c-.11,11,0,21.88.45,32.82-3.23,1.49-6.86,1.61-10.66,3.11,2.21.69,4,.23,5.68.28a13.76,13.76,0,0,0,1.43-.05c2.1-.16,4.41-.6,3.73,2.88,0,.15.18.35.33.61.72-.91.46-1.9.55-2.81s.72-.87,1.35-.92c.8-.06,1,.41.87,1-.65,2.53-1.31,5.07-2.07,7.56-.2.64-.94.79-1.78.65.34-1.09.69-2.16,1-3.24.16-.53.06-.95-.56-1.08s-.68.24-.81.64c-.36,1.14-.78,2.25-1.09,3.4a1.42,1.42,0,0,1-1.87,1c-.93-.26-.21-1.07-.08-1.57a23,23,0,0,0,1.08-6.05c-1.18,1.55-1.42,3.44-1.94,5.23a14.69,14.69,0,0,0-.41,1.86c-.18,1.25-1.25,1.3-2,1.12-.91-.22-.24-1.07-.14-1.6.32-1.59,1-3.11.8-5.17a18.25,18.25,0,0,0-1.94,5.86,2.48,2.48,0,0,1-1.17,1.57c-.7.53-1.13.23-1.67,0-.93-.42-.13-.92,0-1.32a62.18,62.18,0,0,0,1.82-6.1,14.23,14.23,0,0,0-2.82,5.89,2.8,2.8,0,0,1-3.27,2.3c-2.27-.49-4.39.14-6.57.1-3.89-.07-7.79,0-11.68.15-1.58.06-2.41-.28-2.75-2a40.19,40.19,0,0,0-2.19-6.94,21.61,21.61,0,0,0,1.59,8.67c-2,.61-2.93.15-3.18-2A71.91,71.91,0,0,0,192.4,260c-.32-1.44,0-1.9,1.61-1.91,6.44,0,12.87-.23,19.31-.39a3.87,3.87,0,0,0,2.88-.71,282.19,282.19,0,0,1-30.57-1.85v-9.33c-.54,2.07-1.34,4.1-.86,6.25s-.34,3.08-2.55,2.73l-5.61-.67c-1.36-1.8.18-4.25-1.45-6.48,0,1.79,0,3.12,0,4.44,0,.81.16,1.63-1,1.69-9.53-1.23-19-3-28.33-5.12-1.74-.39-2-1-1.86-2.73.54-6.38,1.66-12.75.74-19.21a16.37,16.37,0,0,0-2.7-7.12c.58-.37,2.78-.38.48-1.45-.67-.31-.64-.81-.64-1.36,0-4-.75-8.09-.69-12.1.13-9.49-.73-18.94-.9-28.41-.07-3.73-.3-7.46-.46-11.18a3.82,3.82,0,0,0-.17-2.43l-.07-.83c.32-.4.16-.78-.06-1.15l-.14-5.63a7.94,7.94,0,0,0-.29-3.81q-.15-4.5-.29-9c-.13-6.41-.45-12.8-.77-16.39,0,3.31,0,9.41,0,15.51,0,.27.24.54.37.81l.06,9a8.11,8.11,0,0,0,.26,3.85c.05,2.54.11,5.08.16,7.63a5.3,5.3,0,0,0,.1,2.44l.19,3.17a.89.89,0,0,0,0,1.15c.41,11.18.8,22.36,1.23,33.53a6.81,6.81,0,0,0,.86,3.89,1.62,1.62,0,0,1,.13,1.6c-1.09,2.51-.56,5.1-.36,7.65.11,1.37-.29,1.6-1.57,1.34-4.15-.84-4.12-.8-4.27-5q-.63-16.75-1.3-33.52c0-.22-.05-.44-.07-.66q-.35-9-.68-18a10.24,10.24,0,0,0-.31-4.3l0-1.33a1.78,1.78,0,0,0,0-1.59c-.05-1.56-.1-3.11-.14-4.67a7.68,7.68,0,0,0-.36-3.83l-.24-8c0-1.62,0-3.24.05-4.85H132c-.92,2.09-.95,2.7-.22,4.79v8a7,7,0,0,0,.29,3.87l.11,7.63a11.62,11.62,0,0,0,.23,4.28q.41,11.67.82,23.33l0,.57.09,1.79A.44.44,0,0,0,133.43,186.57Zm144.91-48.1a20.22,20.22,0,0,0,.55-5.54,13.53,13.53,0,0,0-.9,5.26,1.07,1.07,0,0,0-.29,1.26c0,.06.32.1.32.09C278.14,139.19,278.24,138.83,278.34,138.47ZM182.49,165q-.13-3.8-.25-7.6v-8.11a11.77,11.77,0,0,0-.53,8.1l0,7.65a6.87,6.87,0,0,0,.15,2.89l0,.83,0,.6,0,.83a3.41,3.41,0,0,0,.13,2.55q1,30.7,2,61.41v8.55H185c-.15-2.86.7-5.69-.08-8.56l0-1.33a.4.4,0,0,0,0-.69l0-.75a.42.42,0,0,0,0-.67v-.77a1.1,1.1,0,0,0,0-1.11q-1-30.47-2.06-60.92A5.31,5.31,0,0,0,182.49,165Zm-10.71,1.93a5.86,5.86,0,0,0,.17,2.82l1.36,35.74a4.24,4.24,0,0,0,.15,2.54q.33,9,.67,18a21.23,21.23,0,0,0,.35,5.79l.15,5.64a22.71,22.71,0,0,0,.54,6.62,27.35,27.35,0,0,0,.07-9.59c0-1.73-.06-3.46-.1-5.18a7.55,7.55,0,0,0-.2-3.31q-.42-11.91-.86-23.8a2.8,2.8,0,0,0-.16-2.07q-.58-15.21-1.16-30.41a5.78,5.78,0,0,0-.2-2.83c-.09-2.71-.19-5.42-.28-8.14v-7c-1.6,3.54-.94,6.52-.6,9.49C171.71,163.16,171.75,165,171.78,166.93Zm19.16-14.36-.17-3.72-.55-22.39c-.16,6.86-.17,13.7-.16,20.54a2.41,2.41,0,0,0,.41,1.8,59.51,59.51,0,0,0,0,8.55,17.79,17.79,0,0,0,.23,5.73l0,1.34c-.28.25-.24.47,0,.69q.54,20.94,1.07,41.89a7.07,7.07,0,0,0,.1,2.86c.05,1.24.09,2.47.13,3.71l0,.66c0,.72.07,1.45.1,2.17a.43.43,0,0,0,0,.66l.12,6.12a16.77,16.77,0,0,0,.2,4.85l0,.8a.89.89,0,0,0,.07,1.12l.15,7.55c0,2.23-.29,4.47.37,6.66v7.3h.58v-7.28a24.41,24.41,0,0,0-.29-6.72l-.13-9.53a17.3,17.3,0,0,0-.14-4.82q-.18-6.65-.35-13.29a7.09,7.09,0,0,0-.09-2.9l-.05-1.8a2.6,2.6,0,0,0-.14-2.08c0-1.2-.05-2.41-.07-3.61a2.53,2.53,0,0,0,0-2.07l-1.1-34.22c0-1.93.37-3.87-.26-5.77l0-1.81A5.13,5.13,0,0,0,190.94,152.57Zm7.87,10.91a.41.41,0,0,0,0,.66l.09,9.5a62,62,0,0,0,.31,10.55l.27,15.11,0,1q.43,16.35.88,32.72l.73,0q-.42-19.68-.85-39.37a17.74,17.74,0,0,0-.23-5.86c0-2.53-.07-5.05-.1-7.57a51.46,51.46,0,0,0-.35-9.61l-.21-8.44c-.09-2.4.48-4.83-.25-7.2q-.14-4.72-.29-9.43a189.31,189.31,0,0,0-.67-19.2c-.07,6.7-.28,13.4.27,20.09,0,2.84,0,5.68.08,8.52,0,2.41-.37,4.83.32,7.2Zm138.92,96.88v-9.29H337v6.31l-.07.65c0,.76-.05,1.51-.07,2.27a8,8,0,0,0,.22,4.13A7.26,7.26,0,0,0,337.73,260.36Zm-137.06-20v9.25h.65V233.74l-.73,0A16.09,16.09,0,0,0,200.67,240.35Zm14,4.81v7.28l.55,0V236.53a79.65,79.65,0,0,0-.15-10.59v-1.76a2.55,2.55,0,0,0-.07-2.08c0-2.47,0-4.94-.07-7.41a3.49,3.49,0,0,0,0-2.58q-.34-24-.68-48a55.07,55.07,0,0,0-.1-8.71q-.21-8.5-.4-17v-7.3h-.32v24.35a45,45,0,0,0,.17,8.76q.36,30.91.73,61.83a57.09,57.09,0,0,0,.24,10.62l.07,3.62A11.45,11.45,0,0,0,214.62,245.16Zm-6.49-8.24c0-3.63,0-7.27-.08-10.91a31.74,31.74,0,0,0-.12-6.24v-.84l0-.58c0-.92,0-1.83,0-2.75a3.64,3.64,0,0,0-.09-2.56q-.09-7.33-.19-14.69a9.2,9.2,0,0,0-.09-3.35c0-.45,0-.9,0-1.35a9.83,9.83,0,0,0-.07-4l0-.71a.47.47,0,0,0,0-.73q-.14-7.11-.26-14.2a41.39,41.39,0,0,0-.23-8.1q-.17-6.16-.32-12.33c.22-9-.4-18-.7-27.06-.16,9.51-.41,19,.18,28.52,0,3.64,0,7.28.08,10.91a72,72,0,0,0,.21,10.59l.06,1.67a.42.42,0,0,0,0,.71q.09,8.06.19,16.11l.06,3.35,0,.89a3.26,3.26,0,0,0,0,2l0,.86a1,1,0,0,0,.05,1.13q.14,8.29.28,16.58a27.89,27.89,0,0,0,.15,6.26l.36,17.07.15,11.33.84,0c-.14-3.76.25-7.53-.39-11.29l0-1.82A10.08,10.08,0,0,0,208.13,236.92Zm31.32-98.58v-7.26h-.39v7.25L239,161.68c-.13,5.9-.22,11.8.12,17.69v.85a36.89,36.89,0,0,0,.05,7.72c0,1.21,0,2.43,0,3.64a.49.49,0,0,0,0,.73v45.57h1V222.33a188.26,188.26,0,0,0-.07-20.71L240,179.29c0-3.16.11-6.32,0-9.48-.15-5.44.15-10.9-.41-16.33Zm-18.17,3.84v-7.47a23.05,23.05,0,0,0-.34,7.45q0,19.78-.07,39.57a100.18,100.18,0,0,0,.08,11c0,.93,0,1.86,0,2.79a10.23,10.23,0,0,0,0,3.9l.06,3.64a.48.48,0,0,0,0,.74l0,1.17a16.81,16.81,0,0,0,.07,6c0,1,0,2.07,0,3.11a.41.41,0,0,0,0,.7q.07,12.35.17,24.69v15.08l1,0c-.2-5,.26-10-.29-15.06V233.3a.42.42,0,0,0,0-.71q-.08-20-.16-40c.08-6.71.17-13.41-.26-20.11Q221.45,157.35,221.28,142.18Zm90.83,114.45L308.6,273l.6.13a59.06,59.06,0,0,0,3.68-16.57c0-.43.26-1.13-.41-1.1S312.08,256.18,312.11,256.63Zm-83.91-91c.23-.23.17-.45,0-.66l-.23-22.72a99.48,99.48,0,0,0-.38-13.92c0,4.62-.7,9.25.08,13.85-.37,15.75-.08,31.49-.11,47.24-.1,5.88-.2,11.76.18,17.63l.09,7.47a.46.46,0,0,0,0,.72q0,5.13,0,10.26a.4.4,0,0,0,0,.67c0,5.62,0,11.24.12,16.86,0,.69-.49,1.59.49,2.08.63,3.19-1.22,6.36.1,9.55,0-3.17.87-6.35-.14-9.53a12.73,12.73,0,0,0,.2-1.63q0-21.12-.12-42.25c.12-6.7.2-13.41-.21-20.1l0-1.2a6.56,6.56,0,0,0-.05-3.57Zm15.65,81.31c1.08-6.25,1.36-97.94.45-99.86C244.39,180.31,243.09,213.58,243.85,246.89Zm42-108.64a298.55,298.55,0,0,0-2.64,54C283.86,174.26,284.61,156.24,285.9,138.25Zm12,135.88.6.17c2.48-4.22,5.85-18.5,4.84-21.18C301.44,260.26,299.64,267.2,297.85,274.13ZM318,249.29c-.33,7.6-2.59,14.92-3.09,22.46C317.53,264.47,317.84,256.87,318,249.29Zm-15.49,24.88c2.39-2.53,5.76-15.41,5.17-19.57C306.3,261.21,304.29,267.64,302.48,274.17ZM124.37,118.32c-.39,8.74.17,17.46.64,26.18,1-4.31.13-8.61,0-12.91S124.61,122.74,124.37,118.32ZM110.8,141.74c.45-8.92-.5-17.79-.81-26.69C109.6,124,110.25,132.85,110.8,141.74ZM333,266.81a86.42,86.42,0,0,0,1.52-16.44C333.62,255.82,332.5,261.24,333,266.81Zm-88-141.7c-.48,6.93-1.48,13.9,0,20.79Zm77.66,128.74q-.4,3.25-.82,6.53c-.29,2.32-.59,4.63-.85,7,0,.4-.21,1.06.5,1.09s.56-.62.61-1c.32-2.82.7-5.64.93-8.47C323.18,257.26,323.74,255.58,322.68,253.85ZM250.77,142.64c-.09-4.92.18-10.61-.42-16.29C250.21,132,249.5,137.74,250.77,142.64ZM181,126.48v17.15h.58C181.93,137.89,181,132.18,181,126.48Zm91.79-32.94a22.85,22.85,0,0,0-3,7.72c-.12.46,0,.81.45.88s.66-.33.76-.72C271.55,98.8,272.15,96.17,272.76,93.54ZM118.37,130.43q-.34-6.72-.68-13.44C117.75,121.48,117.06,126,118.37,130.43Zm169,48.19a73.9,73.9,0,0,0-.42,14.86C287.18,188.51,287.26,183.55,287.32,178.62Zm.32-13.44.72,0,.84-12.69-.55,0Q288.14,158.84,287.64,165.18ZM118.29,143.59c.87-2.44.49-4.93.41-7.58C117.09,138.57,118.28,141.11,118.29,143.59Zm53.05-8q-.33-4.5-.65-9A20.09,20.09,0,0,0,171.34,135.56ZM313.93,247.38l-.7-.11q-.41,3.64-.79,7.28l.79.09Q313.59,251,313.93,247.38ZM171.69,142H171a9.36,9.36,0,0,0,.68,5.77Zm157.62,104.9c-.18,1.71-.37,3.42-.55,5.14A6.32,6.32,0,0,0,329.31,246.85Zm-41.52-77.64c-.8,2.62-.78,2.9.17,4.12C287.92,171.93,288.36,170.56,287.79,169.21Zm54.15,83.73h-.31v8.13h.31Zm-4-3.06V246A3.37,3.37,0,0,0,337.92,249.88ZM261.14,125.17l.38,0v-3h-.38Zm28.62,16c-.19,2-.39,3.94-.65,6.58A11.65,11.65,0,0,0,289.76,141.13ZM231.93,279.18c-.12.06-.22.15-.31.14s-.19-.1-.29-.15c.06,0,.12-.09.18-.09S231.77,279.14,231.93,279.18Z"/><path class="cls-3" d="M111.91,233.54c1.79-1.31,2.51-.86,2.91,1.81,2.57-.1,1.37-2.42,2-3.62s.31-2.68,2.22-1.08c.71.6,1.74.26,1.88-1,.06-.56,0-.94.72-1.24,3.78-1.59,7.49-3.33,11.27-4.93a17.64,17.64,0,0,1,3.18-.61,5.55,5.55,0,0,0-4.18,0c-5.12,1.69-10.25,3.35-15.33,5.16-4.77,1.71-8.44,4.7-10.33,9.84-.94-1.17-1.71-2.57-3.39-1.72-1.27.64-.8,1.78-.6,2.74.37,1.75,1.75,1.41,3.17,1.17-2.39,8.95-1.1,17.76,0,26.84a43.17,43.17,0,0,1-12-4.6,64.09,64.09,0,0,1-9.33-6.53c-3.89-3.31-5.74-8.05-6.28-13.24s-1.32-10.24-.88-15.43c.64-7.54,2.09-8.34,8.33-4.41,3.82,2.42,7.47,5.11,11.26,7.58a14.14,14.14,0,0,0,6.28,2.7c-7.21-5-13.47-11.34-21.66-14.84.07-.29.06-.5.15-.56a64.27,64.27,0,0,1,20.36-8.94c2.8-.67,5.47.53,8.08,1.49,7.81,2.9,15.45,6.25,23.61,8.12,1.88.44,3.78.56,5.65,1.46a4.49,4.49,0,0,1,2.58,3.05,26.88,26.88,0,0,1,.75,7.32c.2,7.25-.88,14.44-1.16,21.67-.24,6-3.69,9.31-9.15,10.94-1.14.34-2.26.71-3.86,1.22.69-1-.57-1.71.45-2.46a.68.68,0,0,0,.08-1.18,1.37,1.37,0,0,0-1.56-.12c-.48.24-.81.51-.56,1.1,1.06,2.47-.2,3.44-2.44,3.94-1.23.27-2.38.87-3.59,1.25-.6.18-1.19.66-1.88-.18-.54-.65-1.29-.32-1.66.52-.68,1.53-1.64,1.75-2.74.45s-1.76-1-2.23.35c-.27.77-.63,1-1.37.78s-1.61-.14-1.72-1.28a5.93,5.93,0,0,0-1-2.57c-.85-1.39,1.46-2.21,1.21-3.8,0-.23,1.65-.8,1.28-2.05a.77.77,0,0,0-.93-.55c-1.31.26-1.1,1.54-1.71,2.4,0-1.69-2-3.38.43-5,.67-.45,1-1.66-.46-1.86s-.85-1.14-.93-1.81c-.15-1.32.77-.45,1.22-.53a1.37,1.37,0,0,0,1.2-1.73c-.26-1.61-1.43-.91-2.5-.71a32.36,32.36,0,0,0,.26-4.62c-.16-1.89,1.63-1.47,2.31-2.28,1.17-1.37-1.69-1.8-.87-3.23.27-.47.62-.93,1.06-.7,2.76,1.45,3-1.58,4.08-2.56s0-1.8-1.39-1.3Zm27.49-.41a1.45,1.45,0,0,0,1.29,2,.62.62,0,0,0,.76-.65c-.11-1.13-1-1.18-1.88-1.24a.87.87,0,0,1-.22,0c-.25-.64.32-1.77-.83-1.85-1.69-.12-2.39,1.21-3.07,2.56A4.47,4.47,0,0,1,139.4,233.13Zm-26.8,8.69c.39-1,.84-2-.58-2.46a1.19,1.19,0,0,0-1.57,1c-.36,2.08,1.11,1.5,2.21,1.4,0,.47-.1.94-.1,1.41a1.29,1.29,0,0,0,1.51,1.41,1.35,1.35,0,0,0,1.33-1.41,1.29,1.29,0,0,0-1.4-1.53A13.4,13.4,0,0,0,112.6,241.82ZM125.46,238c.07-.13.12-.32.23-.38.76-.39,1.2-1,.54-1.68a2.43,2.43,0,0,0-2.36-.76,1.32,1.32,0,0,0-1.07,1.4,1.45,1.45,0,0,0,1.55,1.47c.39,0,.78-.07,1.17-.1-.52,1.08-.27,2.72-2.16,2.82-.35,0-.33,1-.16,1,1.63,0,1.74,1.92,3.19,2.64-.18-1.5-1.09-3-.14-3.8C128.59,238.72,127,238.48,125.46,238ZM124,230.85c.27-.72,1.49-1.13.76-2.17a1.07,1.07,0,0,0-1.29-.28,1.45,1.45,0,0,0-.91,1.49c0,1.11.81.92,1.5.91-1,1.85-2.28,2.16-3.43.93-.66-.71-1.3-.42-1.76.29s.49,3.68,1.36,4a1.5,1.5,0,0,0,1.9-.49c1.53-2,3-2.39,5.37-1.39a1.56,1.56,0,0,0,1.77-.19,1.47,1.47,0,0,0,.42-1.53c-.19-.68-.7-1.33-1.31-1.12C126.83,231.87,125.52,230.62,124,230.85Zm-5.15,5.41a1.1,1.1,0,0,0-.72-1.26c-.49-.18-1.2,0-1.16.42.11,1.3-.69,1.44-1.62,1.73a1.37,1.37,0,0,0-.94,1.89c.35.88,1.13.92,2,.81C118.74,239.54,117.36,236.87,118.89,236.26ZM101.8,246.1a1.18,1.18,0,0,0-1.2,1.36c0,.94.6,1.19,1.42,1.19,1,0,1.5-.47,1.4-1.44S102.65,246.1,101.8,246.1Zm16.32,9.05c-.61.25-2-.24-2,.84-.06,1.33,1.34,1,2.19,1s1.81.26,1.81-.88S119,255.24,118.12,255.15Zm-19.25-20.7a1.11,1.11,0,0,0-1.07,1.25c0,.9.15,1.77,1.28,1.88.85.09,1.36-.33,1.29-1.22A2,2,0,0,0,98.87,234.45Zm30.3,4c.75-.16,1.44-.47,1.42-1.33a1.35,1.35,0,0,0-1.34-1.4c-.92-.07-1.26.6-1.34,1.35S128.37,238.3,129.17,238.42Zm-11.52,5.85c-.53,1-2.34-.43-2.59,1.22-.11.76.59,1.1,1.28,1a2.76,2.76,0,0,0,2.45-1.53C118.91,244.62,118.31,244.2,117.65,244.27Zm-7.31,11.45c1-.15,1.28-.92,1.41-1.8.1-.68-.24-1.1-.92-.94a1.9,1.9,0,0,0-1.57,1.79C109.2,255.48,109.63,255.71,110.34,255.72Zm1.71-36.36c1.42.38,2.79,1.35,4.66.35A5.55,5.55,0,0,0,112.05,219.36Zm4.28,33.28c.57,0,1.17-.11,1.22-.81s-.44-1.12-1.14-1.2-1.1.14-1.2.8C115.09,252.27,115.73,252.44,116.33,252.64ZM138,256.51c-.31-.62-.39-1.52-1.37-1.34s-.92,1.19-1.1,1.87.5.74,1,.65C137.23,257.57,138.05,257.54,138,256.51ZM113,250.43a1.16,1.16,0,0,0,1.23-1.3c0-.69-.27-1.22-1-1.28s-1.38.3-1.44,1.15A1.24,1.24,0,0,0,113,250.43Zm3.71,10.67c.7,0,1.24-.26,1.28-1.07s-.39-1-1-1.08a1,1,0,0,0-1.23,1C115.74,260.58,116,261.07,116.69,261.1Zm17.4-8.05c-.23-.52-.36-1.22-1.15-1.25a1.18,1.18,0,0,0-1.28,1.12c-.12.8.34,1.17,1.07,1.22A1.16,1.16,0,0,0,134.09,253.05ZM135,260c-.17-1-1.39-.81-2.15-1.21-.32-.16-.88.27-.73.66a2.74,2.74,0,0,0,1.86,1.81A1.08,1.08,0,0,0,135,260Zm-12.66-38.59c.66-.47,2.06,0,2.25-1.42.05-.41-.48-.68-.89-.51-.9.35-2.17.27-2.52,1.39C121,221.47,121.77,221.37,122.38,221.36Zm-3.49,41.78c1.38,0,1.6-.45,1.63-1s-.1-1.28-1-1.27a1,1,0,0,0-1,1C118.53,262.53,118.71,263.13,118.89,263.14Zm7.91-35a.84.84,0,0,0-.66.91c.07.75.57,1.05,1.3,1a.77.77,0,0,0,.84-.89C128.22,228.39,127.66,228.14,126.8,228.09Zm-4.94,20a1,1,0,0,0-1,1c0,.65.44.95,1,1s1.14-.24,1.19-.85C123.11,248.48,122.49,248.24,121.86,248.07Zm17.31-6.45c-.28-.71-1-.68-1.69-.73-.51,0-1.06.1-1,.64,0,1.19,1.13.8,1.79,1S139.07,242.3,139.17,241.62Zm-27.79,22.83c0-.51-.09-.94-.68-1a.94.94,0,0,0-1.19.81.91.91,0,0,0,.82,1.16C111,265.48,111.31,265.07,111.38,264.45Zm6.09-.94a1,1,0,0,0-1.08-.86c-.81,0-1.11.52-1.08,1.25a.94.94,0,0,0,1.08,1C117.14,264.86,117.52,264.42,117.47,263.51Zm-3.84-5.37a1.09,1.09,0,0,0-1.19,1.18.93.93,0,0,0,.9,1.12,1.2,1.2,0,0,0,1.29-1C114.76,258.7,114.27,258.29,113.63,258.14Zm6.8-21.22c-.56,0-1.11.1-1,.83a1.16,1.16,0,0,0,1.23,1.16c.73,0,.91-.49.88-1.1S121.26,236.73,120.43,236.92Zm11.21,4.2c.72-.09,1.22-.35,1.21-1.15s-.48-1.11-1.19-1.14-.95.39-1,1S130.86,241.08,131.64,241.12Zm-10.88,16.42c-.6,0-1.18.17-1.21.84a1,1,0,0,0,1.17,1.15,1,1,0,0,0,1.06-1C121.82,257.81,121.33,257.63,120.76,257.54Zm9.49-29.18c-.7,0-1.13.3-1.16.94s.15,1.13.88,1.16,1.16-.07,1.27-.77S130.88,228.55,130.25,228.36Zm1.92,27.71c0-.59-.26-1-.93-1.09s-1.22.27-1.2,1c0,.53.14,1.08.88,1.12S132,256.76,132.17,256.07Zm-9.32-3c-.11-.47-.33-.86-.92-.73a1.1,1.1,0,0,0-1,1.12.72.72,0,0,0,.91.76C122.49,254.12,122.76,253.67,122.85,253.06Zm-10,8.84-.28-.23c0,.13-.13.27-.11.39s.17.16.26.24C112.8,262.17,112.84,262,112.88,261.9Z"/><path class="cls-3" d="M355.22,170.1c-2.3,1.75-4.51,3.65-7.32,4.67-.26-2.63.19-4.54,3-5.66a14.39,14.39,0,0,0,6.45-5.57c-2.94,1.72-5.67,3.74-8.8,5.33-.53-1.81-.27-3,1.52-3.86a16.66,16.66,0,0,0,2.85-2.09,8.93,8.93,0,0,0,2.51-2.15l.5-.46c.42-.21,1.06-.69.82-.92-.6-.57-.81.35-1.21.6l-.39.36-2.77,2.13-3.62,1.91c-.67-1.31-.27-2.09.92-2.85a30.8,30.8,0,0,0,8-7.94c-3,2.23-5.75,4.75-9.24,6.38.57-3.06,4-3.81,5.37-6.19l.33-.34.95-1.11c.1-.17.33-.44.29-.49-.26-.32-.49-.14-.67.13l-1,1-.47.48a25.63,25.63,0,0,1-5.33,3.45c-.56-3.61,3.25-4.16,4.19-6.5l.94-1,.46-.49c.27-.18.56-.46.25-.7s-.63.17-.84.46l0,.05-1.15,1c-1.06.81-2.09,1.68-3.2,2.42-.42.28-.9,1.28-1.49.49-.44-.6-.9-1.44.08-2.27a20.94,20.94,0,0,0,4.52-4.78l.62-.73c.25-.42,1.09-.73.52-1.29-.22-.22-.69.43-.89.85l-.67.73c-1.32,1.14-2.59,2.34-4,3.38-.48.35-1,1.49-1.93.41-.8-.93,0-1.37.48-2,2-2.33,4.26-4.48,5.75-7.22.29-.23.75-.54.4-.85s-.49.33-.74.51c-2,2.11-3.83,4.45-6.21,6.19-.54.39-1.09,1.55-1.92.52s.5-1.11.87-1.53c2.64-2.9,5.15-5.88,6.61-9.61a58.19,58.19,0,0,1-8,8.86c-.47.39-.78,1.41-1.68.64-1.07-.93.28-1.15.58-1.57,1.31-1.84,2.72-3.6,4.22-5.55l-6,5.34-.58-.43,3-4.33c.43-.41,1-.77.66-1.58a2.92,2.92,0,0,0-.55.42,5.85,5.85,0,0,0-.5.79c-1.43,1.47-2.88,2.94-4.29,4.43-.71.76-1.53,1-2.27.26s.36-1.16.68-1.66c.6-.93,1.32-1.77,2-2.64l.72-.88c.11-.16.23-.31.35-.47s.51-.41.19-.68-.44.13-.57.34l-.45.5-.67.68c-1.79,1.64-3.64,3.22-5.34,4.95-.57.57-1.14.71-1.64.41-.79-.45-.3-1,.1-1.56.57-.75,1.07-1.54,1.6-2.32l.59-.7c.29-.38,1-.78.49-1.25-.3-.29-.71.29-.91.69l-.6.65c-2,1.44-3.18,4.17-6.46,4.54,1.38-2.43,3.45-3.95,4.1-6.51l-6.87,6.4-.39-.27,2.92-5.18c-3,1.79-4.42,5.06-6.85,7.33l-.56-.45,5.06-7.72c-3.89,2.7-5.91,7.2-9.82,9.88.9-3,2.8-5.53,4.18-8.29,0-.21.13-.52.05-.6-.24-.19-.38,0-.46.26-2.83,3.3-4.86,7.19-7.73,10.48l5.17-10.32-.47-.29c-2.32,3.47-4.63,6.94-7.23,10.82.39-3.39,2.26-5.8,2.78-8.66-.92,0-.94,1-1.62,1.11,0-.07-.14-.16-.13-.24.77-5,1.59-10,2.29-15.06.26-1.84.34-2.66,2.92-2.21,7.1,1.23,14.31,1.8,21.49,2.59a86.16,86.16,0,0,1,10.11,1.5c10,2.32,15.72,9.07,16.81,19.64.82,8-.08,15.84-1.18,23.71-.2,1.42-.89,2.72-.62,4.28s-.67,2.66-2.24,3.41a62.29,62.29,0,0,0-10.32,5.88c-.66.49-1.59.77-1.8,2.11,5.18-1.7,9.16-5.1,13.85-7.9-.92,13-1.41,25.88-11.94,35.33-7.72,6.93-17,10.72-26.93,13a87,87,0,0,1-11.78,2.24,25.49,25.49,0,0,0-5.41.61c-1.08.33-1.61-.34-1.56-1.45.17-3.17.37-6.34.47-9.51,0-1.36.91-1.18,1.78-1.26,4-.37,8.06-.67,12.07-1.19,9.74-1.25,16.45-6.91,21.45-15,.47-.44,1-.83.88-1.68-.74.23-1,.8-1.25,1.31-2.62,2.85-5.12,5.83-8.71,8.15.17-2,.31-3.66.5-5.87A6.07,6.07,0,0,0,327,207.4c0,2.25-.91,3.51-3.3,3.89.35-2.21.71-4.42,1.13-7-2.41,2.56-1.1,6.45-3.92,8.35.78-3.7.8-7.36,3.54-10.67,11.13-13.47,14.62-29.06,11.47-46.18-.28-1.52-.75-3-1.19-4.54,2.57,2.29,3.54,5.46,4.59,8.89.88-3.79-.28-7.15-4.5-13.57a2.27,2.27,0,0,1,2.58,1,21.41,21.41,0,0,1,4.5,8.82,11.51,11.51,0,0,0,.76,2.23,30,30,0,0,0-.93-7.69c2.35,2.56,3.05,5.78,3.52,9,.78,5.54.47,11.1.17,16.65-.27,5.15.1,5.41,4.71,3.25a34.34,34.34,0,0,0,7.48-5c.35-.29.82-.55.46-1.4a48.24,48.24,0,0,1-10.6,5.78,2.6,2.6,0,0,1,1.53-3.37,23,23,0,0,0,6.63-5.33l.43-.47c.16-.19.57-.33.27-.64s-.47,0-.62.27Zm-30-33.82c-.21.18-.65.32-.29.66s.51-.07.67-.31.47-.43.16-.68S325.34,136.08,325.21,136.28Zm29.57,10.5-.46.49c-.2.18-.65.32-.27.66s.51-.13.71-.32l.41-.49c.17-.22.54-.43.09-.7C355.19,146.38,354.94,146.65,354.78,146.78ZM352,193.12a14.44,14.44,0,0,0-4.47,2.81,11.3,11.3,0,0,0,4.61-2.61l.81-.39c-.08-.1-.16-.27-.25-.27A.65.65,0,0,0,352,193.12Zm-8.17-2.86c4.63-1.31,8.55-3.85,12.35-6.63A36.12,36.12,0,0,0,343.85,190.26Zm1.42,2.92c4.33-.57,7.51-3.2,10.53-6.09C352.39,189.28,348.74,191,345.27,193.18Zm-21.83-57.92c-.12-.08-.35-.28-.41-.24a2.47,2.47,0,0,0-.63.62c-.2.28.15.47.27.45A.94.94,0,0,0,323.44,135.26Z"/><path class="cls-3" d="M302.45,196.77c.43-13.6,1.84-27.12,2.95-40.67a6,6,0,0,1,2.86-4.45c4.65-3.46,10.23-4.24,15.71-4.79,2.11-.22,3.87,2,5.33,3.65,3.11,3.59,4.21,8,4.44,12.55a56.84,56.84,0,0,1-8.37,32.43,23.83,23.83,0,0,1-17.3,11.75c-1.93.32-3.79-.83-5.67-1.35-.58-.16-.34-1-.32-1.52C302.19,201.84,302.32,199.3,302.45,196.77Z"/><path class="cls-3" d="M252.78,229.47c.15-5.67-.35-4.38,4.68-5.73,8.49-2.3,16.9-4.92,25.33-7.43,1.19-.36,2-.56,2.28,1.14,1.76,10.56,3.64,21.11,5.39,31.67.62,3.72-.08,4.87-3.48,6.57a33,33,0,0,1-8.85,2.65,113.32,113.32,0,0,0-15,3.8,30,30,0,0,1-3.21.91c-3.18.67-3.4.4-3.75-2.84-1-8.76-2-17.5-3-26.24C253,232.47,252.91,231,252.78,229.47ZM271,239.4a28.84,28.84,0,0,0-12.32-7.91c-.8-.24-1.2.09-1,1.34.53,4.07,1.64,8,4.6,11,1.88,1.93,4.13,3.63,7,2.56,2.17-.83,2.95.69,2.93,1.8,0,2.41,2,4.35,1.23,6.84-.25.8.25,1.4,1.15,1.42s1-.61,1.11-1.28a3.15,3.15,0,0,0-.07-1.19c-.69-2,.23-3.15,2-4.06a9.84,9.84,0,0,0,4.46-5.1A19.81,19.81,0,0,0,282,230c-2.87,5.09-6.95,9.27-9.18,15-1.4-1.92-1-4-1.86-5.63a2.29,2.29,0,0,0,2.73-1.67c2.06-5.08,1.35-9.69-2.16-14.17-.38,1.88-.66,3.57-1.06,5.23C269.55,232.36,270.79,235.85,271,239.4Z"/><path class="cls-3" d="M65.41,205.71a36.88,36.88,0,0,0,9.92,4.13c1.51.45,3.11.63,4.65,1,.58.14,1.61-.34,1.6.85,0,.84.14,1.85-1.19,2-.19-.88.19-2.31-1.34-2.21a1.91,1.91,0,0,0-1.68,2.43c.81,2.16-1,2.82-1.75,4.16-.75-.51-.73-1.89-1.87-1.56-.47.14-.73.73-.78,1.36-.12,1.39,1,1.33,1.89,1.66-.92,1.18-.27,3.59-3,3.14-.73-.12-1.19,1.15-.49,1.59,2.64,1.64,1.57,4.09,1.27,6.15a5.6,5.6,0,0,0,.16,3.43c.47,1.09.25,2.49.27,3.75,0,.84.34,2-1.33,1.44-.47-.17-.88.31-1,.83a1.3,1.3,0,0,0,.56,1.24c.87.68,1.4-.21,2.06-.51a20.93,20.93,0,0,1,.69,5.37c-2.4-.27-4.84,1.32-7.24-.21a7.48,7.48,0,0,0-1.85-.39,3.52,3.52,0,0,1-2.93-3.75c-.05-11.26-.87-22.52,0-33.79.39-4.9,1.32-6,6.11-7.12,8.82-2,17.53-4.56,26.42-6.12s7-1.92,7.41,5.82c.24,4.37.13,4.38-4.06,5.59a6.89,6.89,0,0,0-1.57.52c-3.29,1.92-6.77,2-10.52,2-5.73,0-11.12-1.39-16.6-2.54C68.21,205.74,67.19,205.15,65.41,205.71Zm9.83,6.54c-.23-.71.25-2.05-1-2-1.53.1-1.41,1.66-1.6,2.72a1.2,1.2,0,0,0,1.15,1.49C75.13,214.45,75.27,213.37,75.24,212.25ZM70.45,229c.08-.68,0-1.32-.86-1.33-1.37,0-1.57,1.13-1.74,2.1s.48,1.33,1.27,1.3C70.44,231,70.36,229.92,70.45,229Zm-1.74-19.8c-.27-1.31-1.6-1-2.41-1.47s-1.21.18-1.26.83c-.1,1.14.83,1.42,1.69,1.58A1.57,1.57,0,0,0,68.71,209.2Zm.43,28.74c-.23-.81-.19-1.76-1.35-1.69-1,.07-1.06.84-1.12,1.55-.09.92.28,1.63,1.29,1.58C68.8,239.34,69.11,238.65,69.14,237.94Zm-3.91-9a1.25,1.25,0,0,0,1.21-1.41,1.19,1.19,0,0,0-1.34-1.3c-.86,0-1.26.52-1.24,1.38S64.35,228.85,65.23,228.9Zm2.43-14.26c.81,0,1.23-.4,1.16-1.14-.1-1-.95-1.17-1.72-1.25s-1.32.14-1.27,1C65.9,214.38,66.85,214.46,67.66,214.64Zm-3.12,7.42a1,1,0,0,0,1.1.91,2.16,2.16,0,0,0,1.68-1.76c.12-.76-.74-.65-1.24-.67C65.13,220.51,64.64,221.05,64.54,222.06Zm5.32,2.53c0-.71-.35-1-1-1s-1.35.11-1.49.87.48,1.09,1.16,1.16A1.11,1.11,0,0,0,69.86,224.59ZM66.4,233a.81.81,0,0,0-1-.83,1,1,0,0,0-1,1.1c0,.54.29.94.87.83A1.3,1.3,0,0,0,66.4,233Z"/><path class="cls-3" d="M172.23,258.83c-1.11.45-1,1.44-.9,2.34.27,1.88.64,3.74,1,5.61.13.79,1.21,1.92-.51,2.13-1,.13-2.51,0-2.78-1.16a51,51,0,0,1-1.65-9.82c-.05-1.85,2.08-.82,3-.61a4.94,4.94,0,0,0,2.66.22c1.45-.38,2.87,0,2.5,2.16a2.56,2.56,0,0,0,.59,2.4c.78-1.55.24-3,.69-4.25,2.78-.47,3.1,1.19,3.24,3.45a31.72,31.72,0,0,0,1.25,6.51c.26.94.24,1.42-.68,1.76a1.41,1.41,0,0,1-2-1c-.46-1.51-.73-3.08-1.09-4.62-.14-.57-.07-1.4-1.05-1.2-.82.16-.55.82-.49,1.34.13,1.1.34,2.2.41,3.3,0,.51.72,1.31-.36,1.52a1.23,1.23,0,0,1-1.66-1.14c-.46-2.57-1-5.12-1.55-7.68C172.72,259.66,172.8,259.14,172.23,258.83Z"/><path class="cls-3" d="M159.33,115.11c3.76-4.31,7.9-7.63,11.81-11.18,1.18-1.06,3.09-.24,5.27-.45-2.81,2.16-5.13,3.89-7.38,5.69a19.17,19.17,0,0,0-4,4.37c-.29.43-.75.89-.19,1.46s1.09.17,1.47-.16c1.44-1.25,2.86-2.51,4.19-3.86,1.95-2,3.84-4,5.69-6.08a3.51,3.51,0,0,1,4-1.21c-1.74,1.82-3.43,3.55-5.09,5.32-1.3,1.39-3.05,2.61-3.74,4.26-1.23,2.93-3.29,2.8-5.71,2.48C163.63,115.48,161.59,115.33,159.33,115.11Z"/><path class="cls-3" d="M283.56,204.39A25.94,25.94,0,0,0,270.74,201c-8.15.13-13,5.44-18.15,10.48-.58.57-.69,1.65-2.06,1.75,3.56-6.7,8.58-11.94,15.33-14.54,3.08-1.18,7.29.53,11,1a10.45,10.45,0,0,1,5,2.17,5.8,5.8,0,0,1,2.08,2.23A2.57,2.57,0,0,0,283.56,204.39Z"/><path class="cls-3" d="M189,269.2c-1,.06-2,.54-2.72-.41-.22-.28-.54-.55-.77-.35-3.2,2.67-2.55-.77-3-2A44.38,44.38,0,0,1,181,260c-.11-.62-1.05-1.78.55-2,1.37-.2,2.19.16,2.26,1.81.1,2.14.46,4.26.75,6.39.09.65,0,1.66,1.11,1.41.89-.21.46-1.09.37-1.62-.37-2.11-.87-4.19-1.26-6.3-.12-.65-.75-1.73.77-1.58.94.09,2.36-.66,2.27,1.37A26.78,26.78,0,0,0,189,269.2Z"/><path class="cls-3" d="M162.12,267.35c-1.75.27-2.73,0-2.86-2a62.15,62.15,0,0,0-1.18-7.1c-1.63,1-1.06,2.35-1.06,3.48s.25,2.37.31,3.55c0,.44.61,1.19-.35,1.28-.76.08-1.4-.2-1.36-1.2.1-2.56-1-5-1.06-7.5,0-.75-.93-1.89.29-2.2s2.43.06,2.17,1.79c1.1,0,1-1.74,2.33-1.28.86.29,1.62.31,1.49,1.61A22,22,0,0,0,162.12,267.35Z"/><path class="cls-3" d="M172.07,116c2.62-3,5-6,7.27-9.13,2.76-3.74,2.76-3.74,8.06-3.36-1,1-2,2-2.93,3-2.68,2.64-5.56,5.11-8,8C175.16,116.05,173.64,115.76,172.07,116Z"/><path class="cls-3" d="M157.48,105.44c2-1.36,4.19-1.39,6.94-1.38-2.14,1.84-4,3.35-5.76,5a28.63,28.63,0,0,0-5,5.23c-1.08,1.67-2.21,0-3.34-.44,2.12-2.85,4.93-5,6.73-8l0,0q.7.19.51-.51Z"/><path class="cls-3" d="M249.14,232.48c2,11.6,1.79,23.46,4.46,35.63-2.21-2.07-2.26-4.3-2.4-6.27-.68-9.58-2-19.11-2.15-28.72A4.48,4.48,0,0,1,249.14,232.48Z"/><path class="cls-3" d="M163.75,256.7c1.61-.09,2.73.32,2.52,2.61a24.21,24.21,0,0,0,.58,7.08c.11.58.76,1.64-.22,1.76-.82.11-2.17.36-2.57-1a38.44,38.44,0,0,1-1.89-9.28C162.13,256.62,162.6,256.49,163.75,256.7Z"/><path class="cls-3" d="M193.12,116c3.28-4.24,6.36-8.35,9.6-12.33,1.08-1.33,2.76-.35,4.41-.22-2,2-4.09,3.87-6,5.93-1.62,1.73-3.09,3.61-4.57,5.47C195.45,116.22,195.49,116.26,193.12,116Z"/><path class="cls-3" d="M211.83,104c1.2-1,2.47-1.76,4.22-1.11-2.47,2.83-4.92,5.6-7.34,8.39a36.46,36.46,0,0,0-2.53,3.16c-1.28,1.87-1.24,1.9-3.73,1.85,3-4.29,6.91-7.79,9.41-12.32Z"/><path class="cls-3" d="M201.29,103.31c-3.26,3.79-6.54,7.42-9.59,11.23-1,1.22-1.81,1.88-3.45,1.27,3-3.74,5.95-7.41,8.82-11.19A3.43,3.43,0,0,1,201.29,103.31Z"/><path class="cls-3" d="M155.82,114.57a80.65,80.65,0,0,1,9.85-10.11c1.16-1,2.63-.48,4.44-.76-3.93,3.47-8.05,6-10.87,9.83C158.2,114.93,157.39,115.06,155.82,114.57Z"/><path class="cls-3" d="M211.86,104c-.42-.53-.69,0-.9.2A140,140,0,0,0,200.68,115c-.57.71-1,1.82-2.5,1,3.29-4.18,6.52-8.39,9.89-12.5a2.34,2.34,0,0,1,3.76.5Z"/><path class="cls-3" d="M248.16,258.52a6.75,6.75,0,0,1,.59,5.24c-.13.59-.5,1-1.17.87-1-.22-.32-.88-.21-1.27a9.31,9.31,0,0,0,.64-3.76c-1.52,1.6-1.38,3.7-3,5.55.31-2.46,1.24-4.28,1-6.65-1.47,2.18-1.47,4.58-2.79,6.41.26-2.38.94-4.7.86-7.1,0-.71.37-1.12,1-1,1.08.16,1.88-.66,3-.7.43.75-.4,1.43-.22,2.16-.2.39-.5.94,0,1.11S248.22,258.88,248.16,258.52Z"/><path class="cls-3" d="M240.17,265.5c-.26-2.46,1-4.74.49-7.71-1.48,3-1.23,6-3.24,8.15a52.78,52.78,0,0,0,.8-7.76c0-1,.62-1.17,1.41-1.09.3,0,.59.3.88.29.89,0,2.09-1,2.58-.18.67,1.05-.06,2.42-.36,3.63C242.06,263.54,241.56,264.42,240.17,265.5Z"/><path class="cls-3" d="M220.43,103.53c.92-1.19,2.16-.93,3.81-.84-4.24,4.7-7.54,9.78-12,13.85l-.61-.53c2.4-3.27,4.81-6.52,7.16-9.82.47-.66,1.33-1.19,1.13-2.21l0,0c.51.17.52-.16.51-.51Z"/><path class="cls-3" d="M282.16,265.59,258,272.38c-1.5.42-2.52-.45-3.51-1.18,6.53-.22,12.64-2.44,18.89-3.94C276.29,266.57,279.07,265.34,282.16,265.59Z"/><path class="cls-3" d="M196.94,103.87c-2.15,2-4.33,3.89-6.42,5.91-1.25,1.21-2.68,2.46-3.17,4.09-.74,2.46-2.3,2.18-4.43,1.88,4.13-3.44,7.18-7.47,10.33-11.4a3,3,0,0,1,3.11-1.15Z"/><path class="cls-2" d="M234.63,221.2q.1,12.39.21,24.77c0,2.7,0,5.4,0,8.1l-.61,0c-.47-10.94-.56-21.87-.45-32.82C234.08,221.57,234.34,221.3,234.63,221.2Z"/><path class="cls-3" d="M178,115.64c4.31-3.34,7.48-7.46,10.61-11.59,1-1.32,2.39-.6,4.31-.89-2.65,2.39-4.79,4.21-6.8,6.18a21.81,21.81,0,0,0-4.2,4.79C181,115.88,180,116.2,178,115.64Z"/><path class="cls-3" d="M190.36,258c.71-.15,1,.35,1,1.22a33.45,33.45,0,0,0,1.25,9.12c.16.47.22,1-.52,1-.57,0-1.36.3-1.6-.57a63.27,63.27,0,0,1-1.85-9.75C188.51,257.81,189.47,258.16,190.36,258Z"/><path class="cls-3" d="M220,104c-.12-.08-.32-.24-.34-.22-3.45,3.51-6.93,7-9.47,11.26-.7,1.16-1.21,1.39-2.46,1.13a93.57,93.57,0,0,1,7.48-9.78c.84-1,1.53-2,2.34-3,1-1.22,2-1,2.91.17l0,0-.53,0,0,.54Z"/><path class="cls-3" d="M237.68,102.72c-4.19,4.12-6.81,8.93-10.26,13.12,0,0-.29-.06-.64-.14,2.82-4.13,5.63-8.18,8.35-12.29C235.7,102.55,236.34,102.57,237.68,102.72Z"/><path class="cls-3" d="M157,105.88c-3.16,1.59-5.35,4.34-7.94,6.61-.56.49-.84,1.37-2.26,1.23,2.91-3.08,5.56-6,8.35-8.75.63-.62,1.8-1,2.3.47l0,0c-.46-.12-.84-.15-.51.51Z"/><path class="cls-3" d="M143.24,113.35c3.08-2.83,5-7,9.14-8.61l.5.56a38.94,38.94,0,0,1-4.89,4.22C146.23,110.63,145.8,113.31,143.24,113.35Z"/><path class="cls-2" d="M256,145.6c-.53-5.57,0-11.13-.16-16.7h.75v16.63Z"/><path class="cls-3" d="M219.58,111.86a53.29,53.29,0,0,0,4.63-7.43c.68-1.53,1.61-2.25,3.6-1.65L220,112.16Z"/><path class="cls-3" d="M293.79,252c2.15,4.64,2.48,9.63-2.81,10.18C296.15,259.57,292.18,255.12,293.79,252Z"/><path class="cls-2" d="M250.15,214.87c-1.53,5.43-.22,11.06-.87,16.95C248,228.53,248.44,218.35,250.15,214.87Z"/><path class="cls-2" d="M213.29,272.33c-5.56.72-11.15.3-16.72.45-.81,0-1.74-.44-2.4.45a10,10,0,0,1-7.29-.9Z"/><path class="cls-3" d="M268.76,111.38c2-4.45,7.14-5.5,10.48-2.13.25.26,1,.51.29,1-.33.25-.65.2-1-.12-3.61-2.94-5.69-2.72-8.72.85-.2.23-.43.45-.64.67A2.2,2.2,0,0,0,268.76,111.38Z"/><path class="cls-3" d="M317.18,213.31c1.55-2.18.25-5.84,4.11-7.3C319.24,208.47,320.83,212.21,317.18,213.31Z"/><path class="cls-2" d="M239.62,253.29V239.16l.6,0c.62,4.62,0,9.32.33,14Z"/><path class="cls-3" d="M140.68,112c2.39-2.47,3.89-6,8.18-6.19l-7.81,6.55Z"/><path class="cls-3" d="M153.32,265.49c-.84,0-1.1-.26-1.15-.72-.29-2.74-.62-5.48-.83-8.23,0-.54-.67-1.6.49-1.68s.82.92.82,1.6A35.13,35.13,0,0,0,153.32,265.49Z"/><path class="cls-3" d="M283.77,106.86c.48-2.54,1-5.08,1.44-7.62.14-.8.5-1.1,1.28-.91.95.24.43.78.27,1.27-.8,2.45-1.59,4.9-2.39,7.34Z"/><path class="cls-2" d="M169.45,276c-.47.29-1.29-.15-1.5.7-1.34.68-3.06,0-3.89-.3-2.29-.9-4.83-.71-7-2C161.21,274.88,165.38,275,169.45,276Z"/><path class="cls-3" d="M228.23,109c1-1.69,2.09-3.37,3.07-5.08.63-1.09,1.37-1.74,3.08-1-2.27,1.91-3.75,4.38-5.75,6.44Z"/><path class="cls-2" d="M182.22,254.74c2.21.35,3-.56,2.55-2.73s.32-4.18.86-6.25v9.33C184.46,255.29,183.18,256.6,182.22,254.74Z"/><path class="cls-3" d="M235.58,108.64c.86-1.58,1.81-3.13,2.55-4.77.54-1.19,1.33-1.42,2.72-1.07-1.66,2.14-3.27,4.19-4.88,6.25Z"/><path class="cls-3" d="M314,213.8c.71-1.72,0-4.25,3.34-5C315.81,210.61,316.6,213.21,314,213.8Z"/><path class="cls-2" d="M276.84,141.05c.82-.08,1.54.1,1.25,1.1-.58,2,0,4.23-.8,6.25l-.2-1.64c-.78.29-.18,1.16-.84,1.58A32.06,32.06,0,0,1,276.84,141.05Z"/><path class="cls-2" d="M266.25,131.66v-9.47H267c-.14,3.15.29,6.29-.28,9.44l-.23,0Z"/><path class="cls-3" d="M288.67,106.83a12.53,12.53,0,0,1,1.29-6.58A12.53,12.53,0,0,1,288.67,106.83Z"/><path class="cls-3" d="M286.14,207.53a20.13,20.13,0,0,1,1.68,7.31l-2.19-5.92C285.87,208.48,285.53,207.83,286.14,207.53Z"/><path class="cls-3" d="M309.65,214.28c1.4-1.49.8-3.83,3.6-3.84C312,211.74,312.78,214.07,309.65,214.28Z"/><path class="cls-2" d="M174.16,253.72c1.17-.06,1-.88,1-1.69,0-1.32,0-2.65,0-4.44,1.63,2.23.09,4.68,1.45,6.48C175.78,254.05,174.91,254.28,174.16,253.72Z"/><path class="cls-3" d="M148.65,258.81c-.16-1.3-.34-2.6-.48-3.9,0-.4-.33-1.06.45-1,.53,0,1.12.26,1,1-.16,1.3-.33,2.6-.5,3.9Z"/><path class="cls-2" d="M118.62,153.56a10,10,0,0,1,.74-6.86v6.84Z"/><path class="cls-3" d="M287.09,103.78c.22-1.3.43-2.6.68-3.89.08-.39,0-1.06.74-.81.59.19.56.59.34,1.11-.49,1.21-.92,2.44-1.37,3.66Z"/><path class="cls-3" d="M309.9,210.67l-2.44,3.76C307.63,213,306.88,210.93,309.9,210.67Z"/><path class="cls-2" d="M281.58,134.57l.48-7.2c.14,2.39.87,4.8-.19,7.14l-.13.1Z"/><path class="cls-2" d="M290.52,227.68c-.54-1.92-1.27-4-.75-6.13Z"/><path class="cls-3" d="M227.1,105.9c1.14-1,1.2-3.12,3.9-3.55L226.83,107Z"/><path class="cls-3" d="M304.64,214.26a5.44,5.44,0,0,1,0-3c.1-.45-.07-1.24.85-1s.55.72.32,1.24C305.47,212.2,305.17,213,304.64,214.26Z"/><path class="cls-2" d="M132.44,160.23a11.62,11.62,0,0,1-.23-4.28l.66,0a10.24,10.24,0,0,1,.31,4.3Z"/><path class="cls-2" d="M111.91,233.54l.27.61c-1,.71-.64,2.67-2.72,2.61A6.12,6.12,0,0,1,111.91,233.54Z"/><path class="cls-3" d="M218.85,113.8c-.67.81-.62,2.43-2.55,2.12a8.14,8.14,0,0,1,2.12-2.49Z"/><path class="cls-2" d="M126.32,162.54a6.19,6.19,0,0,1,.19,2.93c-.31-.29-.56,0-.83.1a6.79,6.79,0,0,1-.15-2.94Z"/><path class="cls-2" d="M288.61,263.26a3.93,3.93,0,0,1-3.16,1.06A4.08,4.08,0,0,1,288.61,263.26Z"/><path class="cls-2" d="M111.37,163.07a4.19,4.19,0,0,1-.14-2.35l.81-.08a4.57,4.57,0,0,1,.17,2.43Z"/><path class="cls-2" d="M275.09,157.49H275c-.37-1.22.5-2.25.52-3.41A3.92,3.92,0,0,1,275.09,157.49Z"/><path class="cls-2" d="M139,165.07a5.3,5.3,0,0,1-.1-2.44l.75,0a3.82,3.82,0,0,1,.17,2.43Z"/><path class="cls-2" d="M256.94,161.07a9.49,9.49,0,0,1,.12,4A7.43,7.43,0,0,1,256.94,161.07Z"/><path class="cls-2" d="M286.14,207.53c-.61.3-.27.95-.51,1.39-.7-.8-.26-1.85-.63-2.72l.4-.31A2.65,2.65,0,0,1,286.14,207.53Z"/><path class="cls-2" d="M125.87,169.39a4.77,4.77,0,0,1-.17-3A5.6,5.6,0,0,1,125.87,169.39Z"/><path class="cls-2" d="M266.77,155.4a4,4,0,0,1,0,2.52Z"/><path class="cls-2" d="M290.49,262.8c-.05.42-.41.37-.68.38s-.3-.16-.45-.25a3.8,3.8,0,0,1,.71-.5C290.36,262.3,290.43,262.57,290.49,262.8Z"/><path class="cls-2" d="M250.6,159.2a2.44,2.44,0,0,1,0,2.08Z"/><path class="cls-2" d="M225.41,108.06c.34-.46.69-.91,1-1.37l.33.38c-.07.62-.58,1-.93,1.38Z"/><path class="cls-3" d="M219.57,112.66c-.24.38-.48.76-.73,1.14l-.42-.37.81-1.14Z"/><path class="cls-3" d="M141.05,112.34c-.32.36-.53.87-1.15.94-.18-.81.45-1,.78-1.3Z"/><path class="cls-2" d="M234,111.82l-1,1.36-.4-.32,1-1.52Z"/><path class="cls-2" d="M250.58,155.87a1.75,1.75,0,0,1,0,1.59Z"/><path class="cls-2" d="M284.43,204.57l.63.76-.43.36-.82-1.06Z"/><path class="cls-3" d="M339.76,142.72c-.21.55-.58,1.12-1.14.59-.39-.38.18-.77.56-1Z"/><path class="cls-2" d="M227.1,105.9l-.27,1.13-.05,0-.33-.37Z"/><path class="cls-2" d="M139.21,169.39a.89.89,0,0,1,0-1.15Z"/><path class="cls-2" d="M235.22,110l-.24.53-.49-.54.63-.79Z"/><path class="cls-2" d="M234,110.94l.53-1,.49.54-.56.79Z"/><path class="cls-3" d="M228.63,109.33a.61.61,0,0,1-.9.24l.5-.62C228.37,109.07,228.5,109.2,228.63,109.33Z"/><path class="cls-3" d="M235.22,110l-.1-.8.46-.54.39.41Z"/><path class="cls-3" d="M109.87,103.1c-.14.16-.37.47-.41.45-.41-.24-.11-.5,0-.76Z"/><path class="cls-2" d="M233,113.18c-.16.12-.39.37-.45.34-.34-.22-.15-.45.05-.66Z"/><path class="cls-2" d="M238.47,253.58l.61-.06Z"/><path class="cls-2" d="M133.43,186.57a.44.44,0,0,1-.05-.65C133.4,186.13,133.42,186.35,133.43,186.57Z"/><path class="cls-2" d="M266.78,145.86v0Z"/><path class="cls-2" d="M133.86,178.24c0,.22,0,.44.07.66C133.91,178.68,133.88,178.46,133.86,178.24Z"/><path class="cls-3" d="M219.23,112.29l.35-.43.44.3-.45.5Z"/><path class="cls-3" d="M269.13,111.68c-.13.14-.33.42-.37.4-.37-.22-.12-.46,0-.7A2.2,2.2,0,0,1,269.13,111.68Z"/><path class="cls-2" d="M250.6,164.44a.42.42,0,0,1,0,.65Z"/><path class="cls-2" d="M234.42,111.3l-.43.52-.44-.48.41-.4Z"/><path class="cls-2" d="M224.32,110.25c-.11.1-.28.29-.32.27-.32-.2-.11-.36.07-.51Z"/><path class="cls-2" d="M224.07,110l.45-.24-.2.48Z"/><path class="cls-2" d="M133.29,184.13l0-.57a3.12,3.12,0,0,1,.15.39C133.42,184,133.33,184.07,133.29,184.13Z"/><path class="cls-2" d="M285,206.2l-.37-.51.43-.36c.12.18.23.37.34.56Z"/><path class="cls-3" d="M284.43,204.57l-.62.06a1.42,1.42,0,0,1-.25-.24,2.57,2.57,0,0,1,.33-.33Z"/><path class="cls-2" d="M225.41,109c-.16.11-.42.34-.47.3-.31-.23-.11-.46.09-.67Z"/><path class="cls-2" d="M225,108.59c.12-.18.25-.35.38-.53l.44.39-.44.51Z"/><path class="cls-1" d="M243.85,246.89c-.76-33.31.54-66.58.45-99.86C245.21,149,244.93,240.64,243.85,246.89Z"/><path class="cls-1" d="M261.75,199.08c-1.21-5.39-1.38-10.88-1.73-16.35-1-16.43-.37-32.84.55-49.67a4.7,4.7,0,0,1,.51,2.76c-.69,19.38.05,38.74.87,58.11a19.48,19.48,0,0,1-.19,5.17Z"/><path class="cls-1" d="M285.9,138.25c-1.29,18-2,36-2.64,54A298.55,298.55,0,0,1,285.9,138.25Z"/><path class="cls-1" d="M184.81,231.37l0,.75c0,.23,0,.46,0,.69l0,1.33h-.71q-1-30.71-2-61.41a4.19,4.19,0,0,0-.13-2.55c0-.27,0-.55,0-.83.31-.22.28-.42,0-.6l0-.83.8,0q1,30.47,2.06,60.92l0,1.11v1.44Z"/><path class="cls-1" d="M214.17,164.09q.35,24,.68,48a5.24,5.24,0,0,0,0,2.58c0,2.47.05,4.94.07,7.41a2.64,2.64,0,0,0,.07,2.08v1.76l-.77.07q-.36-30.91-.73-61.83Z"/><path class="cls-1" d="M174.13,226.07q-.33-9-.67-18a3.34,3.34,0,0,0-.15-2.54q-.67-17.87-1.36-35.74h.81q.59,15.19,1.16,30.41a2.54,2.54,0,0,0,.16,2.07q.43,11.89.86,23.8Z"/><path class="cls-1" d="M191.3,163.13l1.1,34.22,0,2.07.07,3.61a2.69,2.69,0,0,0,.14,2.08l.05,1.8c-.29.15-.58.35-.91.09q-.54-21-1.07-41.89l0-.69c0-.45,0-.9,0-1.34Z"/><path class="cls-1" d="M200,180.23c0,2.52.07,5,.1,7.57a18.9,18.9,0,0,0,.23,5.86q.42,19.68.85,39.37l-.73,0q-.43-16.37-.88-32.72a.67.67,0,0,0,0-1l-.27-15.11C199.86,182.94,198.56,181.34,200,180.23Z"/><path class="cls-1" d="M297.85,274.13c1.79-6.93,3.59-13.87,5.44-21,1,2.68-2.36,17-4.84,21.18Z"/><path class="cls-1" d="M234.63,221.2c-.29.1-.55.37-.88.09l-.12-21.86v-.67q0-6.33-.07-12.65c0-.24,0-.48,0-.72l-.06-8.34a16.71,16.71,0,0,0,0-5.9c0-1.23,0-2.46,0-3.68l.83-.08q.11,18.77.22,37.55c0,.39,0,.79,0,1.18Q234.57,213.67,234.63,221.2Z"/><path class="cls-1" d="M239.13,180.22v-.85c.28-.1.55-.37.87-.08l.12,22.33c-.19,6.91-.24,13.81.07,20.71v15.55h-1V192.31c0-.24,0-.49,0-.73,0-1.21,0-2.43,0-3.64A26.28,26.28,0,0,0,239.13,180.22Z"/><path class="cls-2" d="M234.26,167.39l-.83.08c-.07-5.63-.16-11.26-.19-16.89,0-6.18,0-12.36.26-18.54C233.92,143.82,234.47,155.59,234.26,167.39Z"/><path class="cls-1" d="M318,249.29c-.13,7.58-.44,15.18-3.09,22.46C315.38,264.21,317.64,256.89,318,249.29Z"/><path class="cls-1" d="M302.48,274.17c1.81-6.53,3.82-13,5.17-19.57C308.24,258.76,304.87,271.64,302.48,274.17Z"/><path class="cls-1" d="M221.12,204.93c0-.39,0-.78,0-1.17s0-.49,0-.74l-.06-3.64a6.81,6.81,0,0,0,0-3.9c0-.93,0-1.86,0-2.79.3-.16.61-.36.94-.06q.09,20,.16,40c0,.24,0,.47,0,.71v6.08h-.69q-.09-12.34-.17-24.69V214c0-1,0-2.07,0-3.11A21.25,21.25,0,0,0,221.12,204.93Z"/><path class="cls-1" d="M228.57,201.2q.06,21.12.12,42.25a12.73,12.73,0,0,1-.2,1.63l0,0c-1-.49-.48-1.39-.49-2.08-.08-5.62-.09-11.24-.12-16.86l0-.67q0-5.13,0-10.26l0-.72-.09-7.47c.41-.88.07-1.82.23-2.72S227.31,202,228.57,201.2Z"/><path class="cls-1" d="M228.34,179.9c0,.4,0,.8,0,1.2-.44,2.09-.06,4.2-.18,6.3-.05.69.47,1.61-.65,2,0-15.75-.26-31.49.11-47.24l.13.1.17,0q.12,11.36.23,22.72l0,.66.09,10.75A7.31,7.31,0,0,0,228.34,179.9Z"/><path class="cls-1" d="M312.88,256.58a59.06,59.06,0,0,1-3.68,16.57l-.6-.13,3.51-16.39Z"/><path class="cls-2" d="M206,155.07c-.59-9.5-.34-19-.18-28.52.3,9,.92,18,.7,27.06C205.9,153.93,206.28,154.62,206,155.07Z"/><path class="cls-2" d="M240,179.29c-.32-.29-.59,0-.87.08-.34-5.89-.25-11.79-.12-17.69.86-.55.44-1.41.47-2.13.09-2,.1-4.05.14-6.07.56,5.43.26,10.89.41,16.33C240.11,173,240,176.13,240,179.29Z"/><path class="cls-2" d="M124.37,118.32c.24,4.42.6,8.84.68,13.27s1,8.6,0,12.91C124.54,135.78,124,127.06,124.37,118.32Z"/><path class="cls-2" d="M110.8,141.74c-.55-8.89-1.2-17.77-.81-26.69C110.3,124,111.25,132.82,110.8,141.74Z"/><path class="cls-1" d="M333,266.81c-.47-5.57.65-11,1.52-16.44A86.42,86.42,0,0,1,333,266.81Z"/><path class="cls-1" d="M220.87,181.73q0-19.78.07-39.57l.17,0,.17,0q.18,15.16.35,30.34c-.06,2.4-.08,4.81-.18,7.21C221.42,180.41,221.93,181.32,220.87,181.73Z"/><path class="cls-2" d="M245,125.11V145.9C243.54,139,244.54,132,245,125.11Z"/><path class="cls-2" d="M190.47,148.8a2.41,2.41,0,0,1-.41-1.8c0-6.84,0-13.68.16-20.54q.28,11.19.55,22.39A.45.45,0,0,1,190.47,148.8Z"/><path class="cls-2" d="M227.53,189.37c1.12-.36.6-1.28.65-2,.12-2.1-.26-4.21.18-6.3.41,6.69.33,13.4.21,20.1-1.26.81-.44,2.05-.63,3.08s.18,1.84-.23,2.72C227.33,201.13,227.43,195.25,227.53,189.37Z"/><path class="cls-1" d="M322.68,253.85c1.06,1.73.5,3.41.37,5.07-.23,2.83-.61,5.65-.93,8.47-.05.42.09,1.06-.61,1s-.54-.69-.5-1.09c.26-2.33.56-4.64.85-7S322.41,256,322.68,253.85Z"/><path class="cls-2" d="M198.46,146.44c-.55-6.69-.34-13.39-.27-20.09a189.31,189.31,0,0,1,.67,19.2Z"/><path class="cls-2" d="M220.87,181.73c1.06-.41.55-1.32.58-2,.1-2.4.12-4.81.18-7.21.43,6.7.34,13.4.26,20.11-.33-.3-.64-.1-.94.06A100.18,100.18,0,0,1,220.87,181.73Z"/><path class="cls-2" d="M138.4,142.12c-.13-.27-.37-.54-.37-.81,0-6.1,0-12.2,0-15.51.32,3.59.64,10,.77,16.39A.32.32,0,0,1,138.4,142.12Z"/><path class="cls-2" d="M221.38,239.39h.69c.55,5,.09,10,.29,15.06l-1,0Z"/><path class="cls-2" d="M250.77,142.64c-1.27-4.9-.56-10.6-.42-16.29C251,132,250.68,137.72,250.77,142.64Z"/><path class="cls-2" d="M227.94,142.2l-.17,0-.13-.1c-.78-4.6-.11-9.23-.08-13.85A99.48,99.48,0,0,1,227.94,142.2Z"/><path class="cls-2" d="M181,126.48c.07,5.7,1,11.41.58,17.14H181Z"/><path class="cls-1" d="M207.86,215.6c0,.92,0,1.83,0,2.75-.26.2-.22.4,0,.58v.84c-.29.1-.55.35-.87.08q-.13-8.29-.28-16.58a1,1,0,0,0-.05-1.13l0-.86a1.93,1.93,0,0,0,0-2l0-.89c.31-.16.61-.31.94-.06q.09,7.35.19,14.69A3.88,3.88,0,0,0,207.86,215.6Z"/><path class="cls-1" d="M272.76,93.54c-.61,2.63-1.21,5.26-1.83,7.88-.1.39-.28.79-.76.72s-.57-.42-.45-.88A22.85,22.85,0,0,1,272.76,93.54Z"/><path class="cls-1" d="M239.62,153.48c0,2-.05,4.05-.14,6.07,0,.72.39,1.58-.47,2.13l.05-23.34.2,0,.19,0Z"/><path class="cls-2" d="M208.17,243.18c.64,3.76.25,7.53.39,11.29l-.84,0-.15-11.33Z"/><path class="cls-1" d="M207.36,189c0,.24,0,.47,0,.71a7.74,7.74,0,0,0,.07,4c0,.45,0,.9,0,1.35-.3.12-.59.31-.91.06q-.09-8.06-.19-16.11l0-.71-.06-1.67c.51-.77-.28-1.93.78-2.53q.14,7.1.26,14.2C207.35,188.48,207.35,188.73,207.36,189Z"/><path class="cls-1" d="M213.67,138.36q.2,8.5.4,17l-.72,0V138.36h.32Z"/><path class="cls-2" d="M214.25,226l.77-.07a79.65,79.65,0,0,1,.15,10.59l-.68.1A57.09,57.09,0,0,1,214.25,226Z"/><path class="cls-2" d="M118.37,130.43c-1.31-4.43-.62-9-.68-13.44Q118,123.71,118.37,130.43Z"/><path class="cls-2" d="M240.19,222.33c-.31-6.9-.26-13.8-.07-20.71A188.26,188.26,0,0,1,240.19,222.33Z"/><path class="cls-2" d="M200,180.23c-1.4,1.11-.1,2.71-.72,4a62,62,0,0,1-.31-10.55c1.15-.8.21-2.07.68-3A51.46,51.46,0,0,1,200,180.23Z"/><path class="cls-2" d="M287.32,178.62c-.06,4.93-.14,9.89-.42,14.86A73.9,73.9,0,0,1,287.32,178.62Z"/><path class="cls-1" d="M192,213.57c0-1.24-.08-2.47-.13-3.71l.9-.05q.18,6.65.35,13.29l-.85.08-.12-6.12,0-.66c0-.72-.07-1.45-.1-2.17Z"/><path class="cls-2" d="M287.64,165.18q.51-6.33,1-12.68l.55,0-.84,12.69Z"/><path class="cls-2" d="M207.09,174c-1.06.6-.27,1.76-.78,2.53A72,72,0,0,1,206.1,166l.76,0A41.39,41.39,0,0,1,207.09,174Z"/><path class="cls-1" d="M208.17,243.18h-.6l-.36-17.07.84-.1c0,3.64,0,7.28.08,10.91a16.5,16.5,0,0,0,0,4.44Z"/><path class="cls-2" d="M184.17,234.15h.71c.78,2.87-.07,5.7.08,8.56h-.79Z"/><path class="cls-2" d="M175.24,234.53a27.35,27.35,0,0,1-.07,9.59,22.71,22.71,0,0,1-.54-6.62C175.71,236.69,174.79,235.47,175.24,234.53Z"/><path class="cls-1" d="M214.49,236.63l.68-.1v15.89l-.55,0v-7.28a17.94,17.94,0,0,0-.06-4.91Z"/><path class="cls-2" d="M213.35,155.42l.72,0a55.07,55.07,0,0,1,.1,8.71l-.65.09A45,45,0,0,1,213.35,155.42Z"/><path class="cls-2" d="M118.29,143.59c0-2.48-1.2-5,.41-7.58C118.78,138.66,119.16,141.15,118.29,143.59Z"/><path class="cls-2" d="M228.49,245.08c1,3.18.16,6.36.14,9.53-1.32-3.19.53-6.36-.1-9.55Z"/><path class="cls-2" d="M181.71,157.39a11.77,11.77,0,0,1,.53-8.1v8.11Z"/><path class="cls-2" d="M171.68,161.27c-.34-3-1-6,.6-9.49v7C171.3,159.43,172.06,160.49,171.68,161.27Z"/><path class="cls-2" d="M199.15,155c.73,2.37.16,4.8.25,7.2l-.54,0c-.69-2.37-.37-4.79-.32-7.2Z"/><path class="cls-2" d="M171.34,135.56a20.09,20.09,0,0,1-.65-9Q171,131.07,171.34,135.56Z"/><path class="cls-2" d="M200.67,240.35a16.09,16.09,0,0,1-.08-6.59l.73,0v6.62Z"/><path class="cls-2" d="M193.11,244.16c-.66-2.19-.37-4.43-.37-6.66l.66-.05a24.41,24.41,0,0,1,.29,6.72Z"/><path class="cls-2" d="M313.93,247.38q-.35,3.63-.7,7.26l-.79-.09q.39-3.63.79-7.28Z"/><path class="cls-2" d="M208.05,226l-.84.1a27.89,27.89,0,0,1-.15-6.26c.32.27.58,0,.87-.08A31.74,31.74,0,0,1,208.05,226Z"/><path class="cls-2" d="M171.69,142v5.77A9.36,9.36,0,0,1,171,142Z"/><path class="cls-1" d="M206.86,165.94l-.76,0c0-3.63,0-7.27-.08-10.91.26-.45-.12-1.14.52-1.46Q206.71,159.77,206.86,165.94Z"/><path class="cls-1" d="M337,257.38v-6.31h.72v9.29l-.86-.06c0-.76.05-1.51.07-2.27C337,257.82,337,257.6,337,257.38Z"/><path class="cls-1" d="M198.86,162.16l.54,0,.21,8.44c-.47.95.47,2.22-.68,3l-.09-9.5,0-.66Z"/><path class="cls-2" d="M191.3,163.13l-.64,0a17.79,17.79,0,0,1-.23-5.73H191C191.67,159.26,191.33,161.2,191.3,163.13Z"/><path class="cls-2" d="M125.28,154.15c-.78-2.27,0-4.41.73-6.58V154Z"/><path class="cls-2" d="M111,151.68c-1-2.22.44-4.27.73-6.43v6.39Z"/><path class="cls-1" d="M193.4,237.45l-.66.05-.15-7.55a1.1,1.1,0,0,0-.07-1.12l0-.8c.25-.09.47-.41.79-.11Z"/><path class="cls-1" d="M111,151.68l.73,0q.16,4.5.32,9l-.81.08Z"/><path class="cls-1" d="M125.28,154.15,126,154l.18,6.58a1.1,1.1,0,0,0,0,1.12l.08.81-.79.09Z"/><path class="cls-2" d="M329.31,246.85a6.32,6.32,0,0,1-.55,5.14C328.94,250.27,329.13,248.56,329.31,246.85Z"/><path class="cls-2" d="M193.27,227.92c-.32-.3-.54,0-.79.11a16.77,16.77,0,0,1-.2-4.85l.85-.08A17.3,17.3,0,0,1,193.27,227.92Z"/><path class="cls-1" d="M200.67,240.35h.65v9.23h-.65Z"/><path class="cls-2" d="M131.82,136.42c-.73-2.09-.7-2.7.22-4.79h.07c0,1.61,0,3.23-.05,4.85l-.14,0Z"/><path class="cls-2" d="M287.79,169.21c.57,1.35.13,2.72.17,4.12C287,172.11,287,171.83,287.79,169.21Z"/><path class="cls-1" d="M199.15,155l-.61,0c0-2.84,0-5.68-.08-8.52l.4-.89Q199,150.26,199.15,155Z"/><path class="cls-2" d="M174.13,226.07l.81,0a7.55,7.55,0,0,1,.2,3.31c-1.06.61-.24,1.73-.66,2.51A21.23,21.23,0,0,1,174.13,226.07Z"/><path class="cls-1" d="M138.4,142.12a.32.32,0,0,0,.38.07q.14,4.5.29,9l-.61,0Z"/><path class="cls-1" d="M191,157.36h-.61a59.51,59.51,0,0,1,0-8.55.45.45,0,0,0,.3,0c.06,1.24.12,2.48.17,3.72a7.13,7.13,0,0,0,.05,3Z"/><path class="cls-1" d="M341.94,252.94v8.13h-.31v-8.13Z"/><path class="cls-2" d="M337.92,249.88a3.37,3.37,0,0,1,0-3.85Z"/><path class="cls-1" d="M131.82,136.42l.1.12.14,0,.24,8-.49-.06Z"/><path class="cls-1" d="M171.68,161.27c.38-.78-.38-1.84.6-2.48.09,2.72.19,5.43.28,8.14h-.78C171.75,165,171.71,163.16,171.68,161.27Z"/><path class="cls-1" d="M174.48,231.86c.42-.78-.4-1.9.66-2.51,0,1.72.07,3.45.1,5.18-.45.94.47,2.16-.61,3Z"/><path class="cls-1" d="M132.87,155.93l-.66,0-.11-7.63.56,0,.14,4.67,0,1.59Z"/><path class="cls-1" d="M181.71,157.39h.53q.12,3.81.25,7.6l-.73,0Z"/><path class="cls-2" d="M261.14,125.17v-3h.38v3Z"/><path class="cls-2" d="M221.28,142.18l-.17,0-.17,0a23.05,23.05,0,0,1,.34-7.45Z"/><path class="cls-2" d="M289.76,141.13a11.65,11.65,0,0,1-.65,6.58C289.37,145.07,289.57,143.1,289.76,141.13Z"/><path class="cls-1" d="M139.63,162.61l-.75,0c0-2.55-.11-5.09-.16-7.63h.64l.14,5.63.06,1.15Z"/><path class="cls-2" d="M139.36,155h-.64a8.11,8.11,0,0,1-.26-3.85l.61,0A7.94,7.94,0,0,1,139.36,155Z"/><path class="cls-2" d="M239.13,180.22a26.28,26.28,0,0,1,.05,7.72A36.89,36.89,0,0,1,239.13,180.22Z"/><path class="cls-2" d="M132.66,148.34l-.56,0a7,7,0,0,1-.29-3.87l.49.06A7.68,7.68,0,0,1,132.66,148.34Z"/><path class="cls-1" d="M193.11,244.16h.58v7.28h-.58Z"/><path class="cls-2" d="M239.45,138.34l-.19,0-.2,0v-7.25h.39Z"/><path class="cls-2" d="M213.67,138.36h-.32v-7.29h.32Z"/><path class="cls-2" d="M336.87,260.3l.86.06a7.26,7.26,0,0,1-.64,4.07A8,8,0,0,1,336.87,260.3Z"/><path class="cls-2" d="M278,138.19a13.53,13.53,0,0,1,.9-5.26,20.22,20.22,0,0,1-.55,5.54C278.22,138.38,278.1,138.29,278,138.19Z"/><path class="cls-2" d="M206.58,195.06c.32.25.61.06.91-.06a9.2,9.2,0,0,1,.09,3.35c-.33-.25-.63-.1-.94.06Z"/><path class="cls-2" d="M200.29,193.66a18.9,18.9,0,0,1-.23-5.86A17.74,17.74,0,0,1,200.29,193.66Z"/><path class="cls-2" d="M221.12,204.93a21.25,21.25,0,0,1,.07,6A16.81,16.81,0,0,1,221.12,204.93Z"/><path class="cls-2" d="M233.48,171.15a16.71,16.71,0,0,1,0,5.9A19.45,19.45,0,0,1,233.48,171.15Z"/><path class="cls-2" d="M171.78,166.93h.78a5.78,5.78,0,0,1,.2,2.83H172A5.86,5.86,0,0,1,171.78,166.93Z"/><path class="cls-2" d="M181.76,165l.73,0a5.31,5.31,0,0,1,.22,2.9l-.8,0A6.87,6.87,0,0,1,181.76,165Z"/><path class="cls-2" d="M192.78,209.81l-.9.05a7.07,7.07,0,0,1-.1-2.86c.33.26.62.06.91-.09A7.09,7.09,0,0,1,192.78,209.81Z"/><path class="cls-2" d="M214.56,240.25a17.94,17.94,0,0,1,.06,4.91A11.45,11.45,0,0,1,214.56,240.25Z"/><path class="cls-2" d="M208.15,241.36a16.5,16.5,0,0,1,0-4.44A10.08,10.08,0,0,1,208.15,241.36Z"/><path class="cls-2" d="M207.45,193.65a7.74,7.74,0,0,1-.07-4A9.83,9.83,0,0,1,207.45,193.65Z"/><path class="cls-2" d="M221,195.48a6.81,6.81,0,0,1,0,3.9A10.23,10.23,0,0,1,221,195.48Z"/><path class="cls-2" d="M228.34,179.9a7.31,7.31,0,0,1-.05-3.57A6.56,6.56,0,0,1,228.34,179.9Z"/><path class="cls-2" d="M191,155.55a7.13,7.13,0,0,1-.05-3A5.13,5.13,0,0,1,191,155.55Z"/><path class="cls-2" d="M312.88,256.58l-.77.05c0-.45-.24-1.13.36-1.15S312.88,256.15,312.88,256.58Z"/><path class="cls-2" d="M182,170.19a4.19,4.19,0,0,1,.13,2.55A3.41,3.41,0,0,1,182,170.19Z"/><path class="cls-2" d="M207.86,215.6a3.88,3.88,0,0,1-.09-2.56A3.64,3.64,0,0,1,207.86,215.6Z"/><path class="cls-2" d="M173.31,205.49a3.34,3.34,0,0,1,.15,2.54A4.24,4.24,0,0,1,173.31,205.49Z"/><path class="cls-2" d="M214.88,214.69a5.24,5.24,0,0,1,0-2.58A3.49,3.49,0,0,1,214.88,214.69Z"/><path class="cls-2" d="M174.08,202.24a2.54,2.54,0,0,1-.16-2.07A2.8,2.8,0,0,1,174.08,202.24Z"/><path class="cls-2" d="M192.64,205.11a2.69,2.69,0,0,1-.14-2.08A2.6,2.6,0,0,1,192.64,205.11Z"/><path class="cls-2" d="M215,224.18a2.64,2.64,0,0,1-.07-2.08A2.55,2.55,0,0,1,215,224.18Z"/><path class="cls-2" d="M192.43,199.42l0-2.07A2.53,2.53,0,0,1,192.43,199.42Z"/><path class="cls-2" d="M206.66,199.3a1.93,1.93,0,0,1,0,2A3.26,3.26,0,0,1,206.66,199.3Z"/><path class="cls-2" d="M132.83,154.6l0-1.59A1.78,1.78,0,0,1,132.83,154.6Z"/><path class="cls-1" d="M231.93,279.18c-.16,0-.29-.08-.42-.1s-.12.06-.18.09c.1.05.19.15.29.15S231.81,279.24,231.93,279.18Z"/><path class="cls-2" d="M278.34,138.47c-.1.36-.2.72-.32,1.07,0,0-.3,0-.32-.09a1.07,1.07,0,0,1,.29-1.26C278.1,138.29,278.22,138.38,278.34,138.47Z"/><path class="cls-2" d="M184.79,229.93l0-1.11A1.1,1.1,0,0,1,184.79,229.93Z"/><path class="cls-2" d="M192.52,228.83a1.1,1.1,0,0,1,.07,1.12A.89.89,0,0,1,192.52,228.83Z"/><path class="cls-2" d="M234.49,206.12c0-.39,0-.79,0-1.18A.92.92,0,0,1,234.49,206.12Z"/><path class="cls-2" d="M206.73,202.14a1,1,0,0,1,.05,1.13A1,1,0,0,1,206.73,202.14Z"/><path class="cls-2" d="M126.24,161.73a1.1,1.1,0,0,1,0-1.12A.93.93,0,0,1,126.24,161.73Z"/><path class="cls-2" d="M199.51,199.3a.67.67,0,0,1,0,1Z"/><path class="cls-2" d="M139.56,161.78l-.06-1.15C139.72,161,139.88,161.38,139.56,161.78Z"/><path class="cls-2" d="M239.2,191.58c0,.24,0,.49,0,.73A.49.49,0,0,1,239.2,191.58Z"/><path class="cls-2" d="M207.36,189c0-.24,0-.49,0-.73A.47.47,0,0,1,207.36,189Z"/><path class="cls-2" d="M227.89,225.45l0,.67A.4.4,0,0,1,227.89,225.45Z"/><path class="cls-2" d="M207.92,218.93c-.24-.18-.28-.38,0-.58Z"/><path class="cls-2" d="M192.14,216.4l0,.66A.43.43,0,0,1,192.14,216.4Z"/><path class="cls-2" d="M184.81,231.37v-.67A.42.42,0,0,1,184.81,231.37Z"/><path class="cls-2" d="M221.2,214v.7A.41.41,0,0,1,221.2,214Z"/><path class="cls-2" d="M184.84,232.81v-.69A.4.4,0,0,1,184.84,232.81Z"/><path class="cls-2" d="M222.07,233.3c0-.24,0-.47,0-.71A.42.42,0,0,1,222.07,233.3Z"/><path class="cls-2" d="M192,213.57l0,.66Z"/><path class="cls-2" d="M206.37,178.24l0,.71A.42.42,0,0,1,206.37,178.24Z"/><path class="cls-2" d="M198.81,163.48l0,.66A.41.41,0,0,1,198.81,163.48Z"/><path class="cls-2" d="M227.8,214.47l0,.72A.46.46,0,0,1,227.8,214.47Z"/><path class="cls-2" d="M228.2,165.58l0-.66C228.37,165.13,228.43,165.35,228.2,165.58Z"/><path class="cls-2" d="M190.68,164.42l0,.69C190.44,164.89,190.4,164.67,190.68,164.42Z"/><path class="cls-2" d="M337,257.38c0,.22-.05.44-.07.65Z"/><path class="cls-2" d="M221.08,203c0,.25,0,.49,0,.74A.48.48,0,0,1,221.08,203Z"/><path class="cls-2" d="M181.94,168.76c.31.18.34.38,0,.6Z"/><path class="cls-2" d="M233.54,185.39c0,.24,0,.48,0,.72A.43.43,0,0,1,233.54,185.39Z"/><path class="cls-2" d="M233.62,198.76v.67A.4.4,0,0,1,233.62,198.76Z"/><path class="cls-1" d="M124,230.86c1.48-.24,2.79,1,4.38.44.61-.21,1.12.44,1.31,1.12a1.47,1.47,0,0,1-.42,1.53,1.56,1.56,0,0,1-1.77.19c-2.34-1-3.84-.63-5.37,1.39a1.5,1.5,0,0,1-1.9.49c-.87-.32-1.86-3.24-1.36-4s1.1-1,1.76-.29c1.15,1.23,2.38.92,3.43-.93Z"/><path class="cls-1" d="M125.46,238c1.5.46,3.13.7.79,2.57-1,.76,0,2.3.14,3.8-1.45-.72-1.56-2.62-3.19-2.64-.17,0-.19-.95.16-1,1.89-.1,1.64-1.74,2.16-2.82Z"/><path class="cls-1" d="M118.89,236.26c-1.53.61-.15,3.28-2.45,3.59-.86.11-1.64.07-2-.81a1.37,1.37,0,0,1,.94-1.89c.93-.29,1.73-.43,1.62-1.73,0-.43.67-.6,1.16-.42A1.1,1.1,0,0,1,118.89,236.26Z"/><path class="cls-1" d="M125.52,238c-.39,0-.78.09-1.17.1a1.45,1.45,0,0,1-1.55-1.47,1.32,1.32,0,0,1,1.07-1.4,2.43,2.43,0,0,1,2.36.76c.66.69.22,1.29-.54,1.68-.11.06-.16.25-.23.38Z"/><path class="cls-1" d="M101.8,246.1c.85,0,1.54.21,1.62,1.11s-.42,1.45-1.4,1.44c-.82,0-1.38-.25-1.42-1.19A1.18,1.18,0,0,1,101.8,246.1Z"/><path class="cls-1" d="M118.12,255.15c.92.09,2-.13,2,1s-1.09.94-1.81.88-2.25.31-2.19-1C116.16,254.91,117.51,255.4,118.12,255.15Z"/><path class="cls-1" d="M112.6,241.82a13.4,13.4,0,0,1,1.4-.18,1.29,1.29,0,0,1,1.4,1.53,1.35,1.35,0,0,1-1.33,1.41,1.29,1.29,0,0,1-1.51-1.41c0-.47.07-.94.1-1.41Z"/><path class="cls-1" d="M139.4,233.13a4.47,4.47,0,0,0-4,.76c.68-1.35,1.38-2.68,3.07-2.56,1.15.08.58,1.21.83,1.85Z"/><path class="cls-1" d="M98.87,234.45a2,2,0,0,1,1.5,1.91c.07.89-.44,1.31-1.29,1.22-1.13-.11-1.28-1-1.28-1.88A1.11,1.11,0,0,1,98.87,234.45Z"/><path class="cls-1" d="M129.17,238.42c-.8-.12-1.37-.5-1.26-1.38s.42-1.42,1.34-1.35a1.35,1.35,0,0,1,1.34,1.4C130.61,238,129.92,238.26,129.17,238.42Z"/><path class="cls-1" d="M112.66,241.76c-1.1.1-2.57.68-2.21-1.4a1.19,1.19,0,0,1,1.57-1c1.42.48,1,1.5.58,2.46Z"/><path class="cls-1" d="M117.65,244.27c.66-.07,1.26.35,1.14.68a2.76,2.76,0,0,1-2.45,1.53c-.69.11-1.39-.23-1.28-1C115.31,243.84,117.12,245.28,117.65,244.27Z"/><path class="cls-1" d="M110.34,255.72c-.71,0-1.14-.24-1.08-.95a1.9,1.9,0,0,1,1.57-1.79c.68-.16,1,.26.92.94C111.62,254.8,111.31,255.57,110.34,255.72Z"/><path class="cls-1" d="M112.05,219.36a5.55,5.55,0,0,1,4.66.35C114.84,220.71,113.47,219.74,112.05,219.36Z"/><path class="cls-1" d="M116.33,252.64c-.6-.2-1.24-.37-1.12-1.21.1-.66.58-.88,1.2-.8s1.19.46,1.14,1.2S116.9,252.59,116.33,252.64Z"/><path class="cls-1" d="M138,256.51c0,1-.81,1.06-1.48,1.18-.49.09-1.14-.1-1-.65s.12-1.69,1.1-1.87S137.73,255.89,138,256.51Z"/><path class="cls-1" d="M113,250.43a1.24,1.24,0,0,1-1.26-1.43c.06-.85.6-1.21,1.44-1.15s1,.59,1,1.28A1.16,1.16,0,0,1,113,250.43Z"/><path class="cls-1" d="M116.69,261.09c-.73,0-1-.51-1-1.11a1,1,0,0,1,1.23-1c.61.09,1,.4,1,1.08S117.39,261.07,116.69,261.09Z"/><path class="cls-1" d="M134.09,253.05a1.16,1.16,0,0,1-1.36,1.09c-.73,0-1.19-.42-1.07-1.22a1.18,1.18,0,0,1,1.28-1.12C133.73,251.83,133.86,252.53,134.09,253.05Z"/><path class="cls-1" d="M135,260a1.08,1.08,0,0,1-1,1.26,2.74,2.74,0,0,1-1.86-1.81c-.15-.39.41-.82.73-.66C133.65,259.14,134.87,258.91,135,260Z"/><path class="cls-1" d="M122.38,221.36c-.61,0-1.37.11-1.16-.54.35-1.12,1.62-1,2.52-1.39.41-.17.94.1.89.51C124.44,221.35,123,220.89,122.38,221.36Z"/><path class="cls-1" d="M118.89,263.14c-.18,0-.36-.61-.36-1.27a1,1,0,0,1,1-1c.88,0,1,.61,1,1.27S120.27,263.18,118.89,263.14Z"/><path class="cls-1" d="M124.1,230.8c-.69,0-1.5.2-1.5-.91a1.45,1.45,0,0,1,.91-1.49,1.07,1.07,0,0,1,1.29.28c.73,1-.49,1.45-.76,2.17Z"/><path class="cls-1" d="M126.8,228.09c.86,0,1.42.3,1.48,1.06a.77.77,0,0,1-.84.89c-.73,0-1.23-.29-1.3-1A.84.84,0,0,1,126.8,228.09Z"/><path class="cls-1" d="M121.86,248.07c.63.17,1.25.41,1.19,1.17,0,.61-.57.89-1.19.85s-1.07-.35-1-1A1,1,0,0,1,121.86,248.07Z"/><path class="cls-1" d="M139.17,241.62c-.1.68-.38,1.08-.95.91s-1.75.19-1.79-1c0-.54.54-.69,1-.64C138.16,240.94,138.89,240.91,139.17,241.62Z"/><path class="cls-1" d="M111.38,264.45c-.07.62-.4,1-1,.95a.91.91,0,0,1-.82-1.16.94.94,0,0,1,1.19-.81C111.29,263.51,111.4,263.94,111.38,264.45Z"/><path class="cls-1" d="M117.47,263.51c0,.91-.33,1.35-1.08,1.39a.94.94,0,0,1-1.08-1c0-.73.27-1.24,1.08-1.25A1,1,0,0,1,117.47,263.51Z"/><path class="cls-1" d="M113.63,258.14c.64.15,1.13.56,1,1.27a1.2,1.2,0,0,1-1.29,1,.93.93,0,0,1-.9-1.12A1.09,1.09,0,0,1,113.63,258.14Z"/><path class="cls-1" d="M120.43,236.92c.83-.19,1,.27,1.07.89s-.15,1.09-.88,1.1a1.16,1.16,0,0,1-1.23-1.16C119.32,237,119.87,236.87,120.43,236.92Z"/><path class="cls-1" d="M131.64,241.12c-.78,0-1-.55-1-1.26s.3-1.05,1-1,1.18.35,1.19,1.14S132.36,241,131.64,241.12Z"/><path class="cls-1" d="M120.76,257.54c.57.09,1.06.27,1,1a1,1,0,0,1-1.06,1,1,1,0,0,1-1.17-1.15C119.58,257.71,120.16,257.57,120.76,257.54Z"/><path class="cls-1" d="M130.25,228.36c.63.19,1.1.58,1,1.33s-.68.8-1.27.77-.9-.59-.88-1.16S129.55,228.34,130.25,228.36Z"/><path class="cls-1" d="M132.17,256.07c-.14.69-.47,1.12-1.25,1.07s-.86-.59-.88-1.12c0-.77.45-1.09,1.2-1S132.13,255.48,132.17,256.07Z"/><path class="cls-1" d="M122.85,253.06c-.09.61-.36,1.06-1,1.15a.72.72,0,0,1-.91-.76,1.1,1.1,0,0,1,1-1.12C122.52,252.2,122.74,252.59,122.85,253.06Z"/><path class="cls-1" d="M139.35,233.18a.87.87,0,0,0,.22,0c.87.06,1.77.11,1.88,1.24a.62.62,0,0,1-.76.65,1.45,1.45,0,0,1-1.29-2Z"/><path class="cls-1" d="M112.88,261.9c0,.14-.08.27-.13.4-.09-.08-.25-.14-.26-.24s.07-.26.11-.39Z"/><path class="cls-1" d="M343.85,190.26a36.12,36.12,0,0,1,12.35-6.63C352.4,186.41,348.48,189,343.85,190.26Z"/><path class="cls-1" d="M345.27,193.18c3.47-2.15,7.12-3.9,10.53-6.09C352.78,190,349.6,192.61,345.27,193.18Z"/><path class="cls-1" d="M352.16,193.32a11.3,11.3,0,0,1-4.61,2.61,14.44,14.44,0,0,1,4.47-2.81A2.43,2.43,0,0,1,352.16,193.32Z"/><path class="cls-1" d="M352.37,162.48l2.77-2.13.28.42a8.93,8.93,0,0,1-2.51,2.15Z"/><path class="cls-1" d="M336.5,201c.29-.51.51-1.08,1.25-1.31.15.85-.41,1.24-.88,1.68Z"/><path class="cls-1" d="M341.76,137.59a5.85,5.85,0,0,1,.5-.79,2.92,2.92,0,0,1,.55-.42c.31.81-.23,1.17-.66,1.58Z"/><path class="cls-1" d="M323.44,135.26a.94.94,0,0,1-.77.83c-.12,0-.47-.17-.27-.45A2.47,2.47,0,0,1,323,135C323.09,135,323.32,135.18,323.44,135.26Z"/><path class="cls-1" d="M353.78,152.93l1-1,.38.36-.95,1.11Z"/><path class="cls-1" d="M353.11,149.4l-.94,1-.38-.62,1.15-1C353,149,353.06,149.18,353.11,149.4Z"/><path class="cls-1" d="M332.34,137.69c.2-.4.61-1,.91-.69.5.47-.2.87-.49,1.25Z"/><path class="cls-1" d="M352,144.43c.2-.42.67-1.07.89-.85.57.56-.27.87-.52,1.29Z"/><path class="cls-1" d="M355.53,160c.4-.25.61-1.17,1.21-.6.24.23-.4.71-.82.92Z"/><path class="cls-1" d="M352.32,144.87l-.62.73-.42-.44c.22-.25.44-.49.67-.73Z"/><path class="cls-1" d="M352,193.12a.65.65,0,0,1,.7-.46c.09,0,.17.17.25.27l-.81.39A2.43,2.43,0,0,0,352,193.12Z"/><path class="cls-1" d="M351.25,139.43c.25-.18.29-.9.74-.51s-.11.62-.4.85Z"/><path class="cls-1" d="M332.76,138.25l-.59.7-.43-.61.6-.65Z"/><path class="cls-1" d="M338.6,137.1l-.72.88-.43-.51.67-.68Z"/><path class="cls-1" d="M355.72,169.65c.15-.24.31-.57.62-.27s-.11.45-.27.64Z"/><path class="cls-1" d="M353,148.67c.21-.29.38-.81.84-.46s0,.52-.25.7Z"/><path class="cls-1" d="M356.07,170l-.43.47-.42-.39.5-.45Z"/><path class="cls-1" d="M354.76,147.61c-.2.19-.37.62-.71.32s.07-.48.27-.66Z"/><path class="cls-1" d="M354.32,147.27l.46-.49.39.34-.41.49Z"/><path class="cls-1" d="M354.78,146.78c.16-.13.41-.4.48-.36.45.27.08.48-.09.7Z"/><path class="cls-1" d="M338.12,136.79l.45-.5.38.34c-.12.16-.24.31-.35.47Z"/><path class="cls-1" d="M325.59,136.63c-.16.24-.33.63-.67.31s.08-.48.29-.66Z"/><path class="cls-1" d="M338.57,136.29c.13-.21.21-.62.57-.34s0,.48-.19.68Z"/><path class="cls-1" d="M325.21,136.28c.13-.2.19-.61.54-.33s0,.48-.16.68Z"/><path class="cls-1" d="M355.14,160.35l.39-.36.39.32-.5.46Z"/><path class="cls-1" d="M353.31,153.41l.47-.48.39.52-.33.34Z"/><path class="cls-1" d="M354.74,152c.18-.27.41-.45.67-.13,0,.05-.19.32-.29.49Z"/><path class="cls-1" d="M316.64,137.73c.08-.23.22-.45.46-.26.08.08,0,.39-.05.6Z"/><path class="cls-1" d="M353.57,148.91l-.46.49c-.05-.22-.11-.45-.17-.67l0-.06Z"/><path class="cls-1" d="M270.91,239.36c.86,1.65.46,3.71,1.86,5.63,2.23-5.71,6.31-9.89,9.18-15a19.81,19.81,0,0,1,.05,14.81,9.84,9.84,0,0,1-4.46,5.1c-1.8.91-2.72,2-2,4.06a3.15,3.15,0,0,1,.07,1.19c-.06.67-.29,1.29-1.11,1.28s-1.4-.62-1.15-1.42c.78-2.49-1.28-4.43-1.23-6.84,0-1.11-.76-2.63-2.93-1.8-2.83,1.07-5.08-.63-7-2.56-3-3-4.07-6.93-4.6-11-.16-1.25.24-1.58,1-1.34A28.84,28.84,0,0,1,271,239.4Z"/><path class="cls-1" d="M271,239.4c-.17-3.55-1.41-7-.54-10.65.4-1.66.68-3.35,1.06-5.23,3.51,4.48,4.22,9.09,2.16,14.17a2.29,2.29,0,0,1-2.73,1.67Z"/><path class="cls-1" d="M75.24,212.25c0,1.12-.11,2.2-1.47,2.24A1.2,1.2,0,0,1,72.62,213c.19-1.06.07-2.62,1.6-2.72C75.49,210.2,75,211.54,75.24,212.25Z"/><path class="cls-1" d="M70.45,229c-.09.92,0,2-1.33,2.07-.79,0-1.43-.45-1.27-1.3s.37-2.1,1.74-2.1C70.45,227.68,70.53,228.32,70.45,229Z"/><path class="cls-1" d="M68.71,209.2a1.57,1.57,0,0,1-2,.94c-.86-.16-1.79-.44-1.69-1.58,0-.65.45-1.32,1.26-.83S68.44,207.89,68.71,209.2Z"/><path class="cls-1" d="M69.14,237.94c0,.71-.34,1.4-1.18,1.44-1,.05-1.38-.66-1.29-1.58.06-.71.13-1.48,1.12-1.55C69,236.18,68.91,237.13,69.14,237.94Z"/><path class="cls-1" d="M65.23,228.9c-.88-.05-1.35-.44-1.37-1.33s.38-1.36,1.24-1.38a1.19,1.19,0,0,1,1.34,1.3A1.25,1.25,0,0,1,65.23,228.9Z"/><path class="cls-1" d="M67.66,214.64c-.81-.18-1.76-.26-1.83-1.4,0-.85.6-1.05,1.27-1s1.62.24,1.72,1.25C68.89,214.24,68.47,214.65,67.66,214.64Z"/><path class="cls-1" d="M64.54,222.06c.1-1,.59-1.55,1.54-1.52.5,0,1.36-.09,1.24.67A2.16,2.16,0,0,1,65.64,223,1,1,0,0,1,64.54,222.06Z"/><path class="cls-1" d="M69.86,224.59a1.11,1.11,0,0,1-1.34,1c-.68-.07-1.32-.33-1.16-1.16s.8-.89,1.49-.87S69.89,223.88,69.86,224.59Z"/><path class="cls-1" d="M66.4,233a1.3,1.3,0,0,1-1.09,1.1c-.58.11-.89-.29-.87-.83a1,1,0,0,1,1-1.1A.81.81,0,0,1,66.4,233Z"/><path class="cls-1" d="M157,105.9c-.33-.66,0-.63.51-.51Q157.7,106.1,157,105.9Z"/><path class="cls-1" d="M248.16,258.52c.06.36.06,1-.32.82s-.22-.72,0-1.11C247.94,258.32,248.05,258.42,248.16,258.52Z"/><path class="cls-1" d="M219.94,104l0-.54.53,0C220.46,103.84,220.45,104.17,219.94,104Z"/></svg>