<svg xmlns="http://www.w3.org/2000/svg" xmlns:xlink="http://www.w3.org/1999/xlink" width="1000" zoomAndPan="magnify" viewBox="0 0 750 749.999995" height="1000" preserveAspectRatio="xMidYMid meet" version="1.0"><path fill="#86cb3c" d="M 374.78125 618.628906 C 240.332031 618.628906 130.929688 509.226562 130.929688 374.78125 C 130.929688 240.332031 240.332031 130.929688 374.78125 130.929688 C 509.226562 130.929688 618.628906 240.332031 618.628906 374.78125 C 618.628906 509.226562 509.226562 618.628906 374.78125 618.628906 Z M 374.78125 618.628906 " fill-opacity="1" fill-rule="evenodd"/><path fill="#86cb3c" d="M 374.78125 94.023438 C 368.628906 94.023438 363.355469 89.191406 363.355469 82.601562 L 363.355469 11.421875 C 363.355469 5.273438 368.628906 0 374.78125 0 C 381.371094 0 386.203125 5.273438 386.203125 11.421875 L 386.203125 82.601562 C 386.203125 89.191406 381.371094 94.023438 374.78125 94.023438 Z M 374.78125 94.023438 " fill-opacity="1" fill-rule="evenodd"/><path fill="#86cb3c" d="M 521.089844 133.128906 C 518.894531 133.128906 517.136719 132.6875 515.378906 131.808594 C 509.667969 128.734375 507.910156 121.703125 510.984375 116.433594 L 547.011719 54.480469 C 550.085938 48.769531 557.117188 47.011719 562.390625 50.085938 C 567.664062 53.164062 569.859375 60.191406 566.34375 65.90625 L 530.753906 127.417969 C 528.558594 131.371094 525.042969 133.128906 521.089844 133.128906 Z M 521.089844 133.128906 " fill-opacity="1" fill-rule="evenodd"/><path fill="#86cb3c" d="M 627.855469 240.332031 C 623.902344 240.332031 619.945312 238.136719 618.191406 234.621094 C 615.113281 228.910156 616.871094 222.320312 622.144531 218.804688 L 684.09375 183.214844 C 689.367188 180.140625 696.398438 181.898438 699.472656 187.609375 C 702.546875 192.882812 700.789062 199.914062 695.519531 202.988281 L 633.566406 238.578125 C 631.808594 239.894531 630.050781 240.332031 627.855469 240.332031 Z M 627.855469 240.332031 " fill-opacity="1" fill-rule="evenodd"/><path fill="#86cb3c" d="M 738.578125 386.203125 L 666.960938 386.203125 C 660.808594 386.203125 655.535156 381.371094 655.535156 374.78125 C 655.535156 368.628906 660.808594 363.355469 666.960938 363.355469 L 738.578125 363.355469 C 744.726562 363.355469 750 368.628906 750 374.78125 C 750 381.371094 744.726562 386.203125 738.578125 386.203125 Z M 738.578125 386.203125 " fill-opacity="1" fill-rule="evenodd"/><path fill="#86cb3c" d="M 689.804688 568.101562 C 687.609375 568.101562 685.851562 567.664062 684.09375 566.34375 L 622.144531 530.753906 C 616.871094 527.679688 615.113281 520.648438 618.191406 515.378906 C 621.265625 509.667969 628.296875 507.910156 633.566406 510.984375 L 695.519531 547.011719 C 700.789062 550.085938 702.546875 557.117188 699.472656 562.390625 C 697.714844 565.90625 693.761719 568.101562 689.804688 568.101562 Z M 689.804688 568.101562 " fill-opacity="1" fill-rule="evenodd"/><path fill="#86cb3c" d="M 556.679688 701.230469 C 552.722656 701.230469 548.769531 699.035156 547.011719 695.519531 L 510.984375 633.566406 C 507.910156 628.296875 509.667969 621.265625 515.378906 618.191406 C 520.648438 615.113281 527.679688 616.871094 530.753906 622.144531 L 566.34375 684.09375 C 569.859375 689.367188 567.664062 696.398438 562.390625 699.472656 C 560.632812 700.789062 558.4375 701.230469 556.679688 701.230469 Z M 556.679688 701.230469 " fill-opacity="1" fill-rule="evenodd"/><path fill="#86cb3c" d="M 374.78125 750 C 368.628906 750 363.355469 744.726562 363.355469 738.578125 L 363.355469 666.960938 C 363.355469 660.808594 368.628906 655.535156 374.78125 655.535156 C 381.371094 655.535156 386.203125 660.808594 386.203125 666.960938 L 386.203125 738.578125 C 386.203125 744.726562 381.371094 750 374.78125 750 Z M 374.78125 750 " fill-opacity="1" fill-rule="evenodd"/><path fill="#86cb3c" d="M 193.320312 701.230469 C 191.125 701.230469 189.367188 700.789062 187.609375 699.472656 C 181.898438 696.398438 180.140625 689.367188 183.214844 684.09375 L 218.804688 622.144531 C 222.320312 616.871094 228.910156 614.675781 234.621094 618.191406 C 239.894531 621.265625 241.652344 628.296875 238.578125 633.566406 L 202.988281 695.519531 C 200.789062 699.035156 197.277344 701.230469 193.320312 701.230469 Z M 193.320312 701.230469 " fill-opacity="1" fill-rule="evenodd"/><path fill="#86cb3c" d="M 60.191406 568.101562 C 56.238281 568.101562 52.285156 565.90625 50.085938 562.390625 C 47.011719 557.117188 48.769531 550.085938 54.480469 547.011719 L 116.433594 510.984375 C 121.703125 507.910156 128.734375 509.667969 131.808594 515.378906 C 134.886719 520.648438 133.128906 527.679688 127.855469 530.753906 L 65.90625 566.34375 C 64.148438 567.664062 61.949219 568.101562 60.191406 568.101562 Z M 60.191406 568.101562 " fill-opacity="1" fill-rule="evenodd"/><path fill="#86cb3c" d="M 82.601562 386.203125 L 11.421875 386.203125 C 5.273438 386.203125 0 381.371094 0 374.78125 C 0 368.628906 5.273438 363.355469 11.421875 363.355469 L 82.601562 363.355469 C 89.191406 363.355469 94.023438 368.628906 94.023438 374.78125 C 94.023438 381.371094 89.191406 386.203125 82.601562 386.203125 Z M 82.601562 386.203125 " fill-opacity="1" fill-rule="evenodd"/><path fill="#86cb3c" d="M 122.144531 240.332031 C 119.949219 240.332031 118.191406 239.894531 116.433594 238.578125 L 54.480469 202.988281 C 48.769531 199.914062 47.011719 192.882812 50.085938 187.609375 C 53.164062 181.898438 60.191406 180.140625 65.90625 183.214844 L 127.855469 218.804688 C 133.128906 222.320312 134.886719 228.910156 131.808594 234.621094 C 129.613281 238.136719 125.660156 240.332031 122.144531 240.332031 Z M 122.144531 240.332031 " fill-opacity="1" fill-rule="evenodd"/><path fill="#86cb3c" d="M 228.910156 133.128906 C 224.957031 133.128906 221 131.371094 218.804688 127.855469 L 183.214844 65.90625 C 180.140625 60.191406 181.898438 53.164062 187.609375 50.085938 C 192.882812 47.011719 199.914062 48.769531 202.988281 54.480469 L 238.578125 116.433594 C 241.652344 121.703125 239.894531 128.734375 234.621094 131.808594 C 232.863281 132.6875 230.667969 133.128906 228.910156 133.128906 Z M 228.910156 133.128906 " fill-opacity="1" fill-rule="evenodd"/><path fill="#f5fbee" d="M 457.382812 513.179688 C 456.0625 513.179688 454.746094 513.179688 453.425781 512.300781 L 374.78125 481.984375 L 296.574219 512.300781 C 293.058594 514.058594 288.664062 513.179688 285.589844 510.984375 C 282.511719 508.789062 280.753906 505.273438 281.195312 501.316406 L 286.027344 417.398438 L 232.425781 352.371094 C 230.226562 349.296875 229.351562 345.34375 230.667969 341.386719 C 231.984375 337.875 234.621094 334.796875 238.578125 333.917969 L 319.859375 312.828125 L 365.554688 241.652344 C 367.3125 238.578125 371.265625 236.820312 374.78125 236.820312 C 378.734375 236.820312 382.25 238.578125 384.445312 241.652344 L 430.140625 312.828125 L 511.421875 333.917969 C 514.9375 334.796875 518.015625 337.875 519.332031 341.386719 C 520.648438 345.34375 519.773438 349.296875 517.136719 352.371094 L 463.972656 417.398438 L 468.804688 501.316406 C 468.804688 505.273438 467.046875 508.789062 463.972656 510.984375 C 462.214844 512.742188 459.578125 513.179688 457.382812 513.179688 Z M 457.382812 513.179688 " fill-opacity="1" fill-rule="evenodd"/></svg>