<svg xmlns="http://www.w3.org/2000/svg" xmlns:xlink="http://www.w3.org/1999/xlink" width="1000" zoomAndPan="magnify" viewBox="0 0 750 749.999995" height="1000" preserveAspectRatio="xMidYMid meet" version="1.0"><defs><clipPath id="96c69ecb83"><path d="M 0 5.625 L 750 5.625 L 750 744.375 L 0 744.375 Z M 0 5.625 " clip-rule="nonzero"/></clipPath></defs><g clip-path="url(#96c69ecb83)"><path fill="#86cb3c" d="M 732.210938 187.574219 L 469.976562 187.574219 L 541.304688 160.722656 C 543.671875 159.832031 545.820312 158.445312 547.609375 156.65625 C 564.308594 139.957031 573.507812 117.753906 573.507812 94.136719 C 573.507812 70.519531 564.308594 48.316406 547.609375 31.617188 C 530.910156 14.921875 508.707031 5.722656 485.09375 5.722656 C 461.476562 5.722656 439.273438 14.917969 422.574219 31.617188 C 420.785156 33.40625 419.398438 35.558594 418.507812 37.921875 L 374.820312 153.964844 L 331.132812 37.921875 C 330.242188 35.554688 328.855469 33.40625 327.066406 31.617188 C 310.367188 14.921875 288.167969 5.722656 264.550781 5.722656 C 240.929688 5.722656 218.730469 14.917969 202.03125 31.617188 C 185.332031 48.316406 176.132812 70.519531 176.132812 94.136719 C 176.132812 117.753906 185.332031 139.957031 202.03125 156.65625 C 203.820312 158.445312 205.972656 159.828125 208.335938 160.722656 L 279.664062 187.574219 L 17.789062 187.574219 C 7.972656 187.574219 0.0195312 195.53125 0.0195312 205.347656 L 0.0195312 301.746094 C 0.0195312 311.5625 7.972656 319.519531 17.789062 319.519531 L 46.796875 319.519531 L 46.796875 726.507812 C 46.796875 736.324219 54.75 744.28125 64.566406 744.28125 L 685.078125 744.28125 C 694.890625 744.28125 702.847656 736.324219 702.847656 726.507812 L 702.847656 319.519531 L 732.210938 319.519531 C 742.027344 319.519531 749.984375 311.5625 749.984375 301.746094 L 749.984375 205.347656 C 749.980469 195.53125 742.027344 187.574219 732.210938 187.574219 Z M 450.320312 54.304688 C 459.953125 45.871094 472.167969 41.269531 485.09375 41.269531 C 499.214844 41.269531 512.488281 46.765625 522.472656 56.753906 C 532.460938 66.738281 537.960938 80.015625 537.960938 94.136719 C 537.960938 107.058594 533.355469 119.277344 524.921875 128.910156 L 405.277344 173.953125 Z M 211.679688 94.136719 C 211.679688 80.011719 217.179688 66.734375 227.167969 56.75 C 237.152344 46.765625 250.429688 41.265625 264.550781 41.265625 C 277.472656 41.265625 289.691406 45.871094 299.320312 54.304688 L 344.363281 173.949219 L 224.722656 128.90625 C 216.289062 119.273438 211.679688 107.058594 211.679688 94.136719 Z M 35.5625 223.121094 L 286.421875 223.121094 L 286.421875 283.972656 L 35.5625 283.972656 Z M 82.339844 319.515625 L 286.421875 319.515625 L 286.421875 708.734375 L 82.339844 708.734375 Z M 321.96875 708.734375 L 321.96875 223.117188 L 427.714844 223.117188 L 427.714844 708.734375 Z M 667.304688 708.734375 L 463.257812 708.734375 L 463.257812 319.515625 L 667.304688 319.515625 Z M 714.4375 283.972656 L 463.257812 283.972656 L 463.257812 223.117188 L 714.4375 223.117188 Z M 714.4375 283.972656 " fill-opacity="1" fill-rule="nonzero"/></g></svg>