<?xml version="1.0" encoding="UTF-8"?>
<svg id="_Слой_1" data-name="Слой 1" xmlns="http://www.w3.org/2000/svg" viewBox="0 0 400 400">
  <defs>
    <style>
      .cls-1 {
        fill: #f6b375;
      }

      .cls-1, .cls-2 {
        stroke-width: 0px;
      }

      .cls-2 {
        fill: #441c16;
      }
    </style>
  </defs>
  <rect class="cls-1" x="-15.94" y="-11.79" width="441.56" height="423.73"/>
  <g>
    <path class="cls-2" d="m55.45,192.12c1.76,0,3.53,1.24,5.29,3.71,3.44,2.83,6.79,4.59,10.06,5.29,9.53,6.97,14.3,15.09,14.3,24.36,0,5.38-3.71,8.56-11.12,9.53-4.15,0-9.27-3.71-15.35-11.12-2.83-5.12-4.24-7.94-4.24-8.47-2.83.71-6.18,1.06-10.06,1.06h-1.59c-8.83-3.44-13.24-7.32-13.24-11.65v-3.18c0-6.35,8.65-9.53,25.94-9.53Zm-17.47,10.06c-.71-.35-1.24-.53-1.59-.53-.71.35-1.24.53-1.59.53v.53c0,.79,1.76,1.5,5.29,2.12,9.88-2.47,14.83-5.12,14.83-7.94l-1.06-.53c-8.12,3.88-13.41,5.82-15.88,5.82Zm23.3-51.89c5.12,0,8.82,4.06,11.12,12.18v.53c0,6.18-3.71,13.06-11.12,20.65-3.97,1.06-6.27,1.59-6.88,1.59-7.06-3.53-10.59-8.47-10.59-14.83v-.53c4.77-11.65,9.18-17.47,13.24-17.47,0-.53,1.41-1.23,4.24-2.12Zm9.53-37.06h1.06c6,.53,9,3.53,9,9,1.76,1.59,2.65,3.53,2.65,5.82,0,6.62-2.83,11.91-8.47,15.88l.53,1.06v1.59h-1.06c-.71,0-1.06-.35-1.06-1.06-3.18,2.12-5.82,3.18-7.94,3.18h-1.06c-6-.79-9-3.62-9-8.47-.88,0-1.59-1.41-2.12-4.24v-2.12c0-3.79,4.41-10.33,13.24-19.59,1.32-.71,2.73-1.06,4.24-1.06Zm-16.41,61.42c.35.71.53,1.24.53,1.59h1.59c.44,0,1.5-3.53,3.18-10.59,1.85-3,3.62-5.47,5.29-7.41v-.53h-.53c-4.59,0-7.94,5.65-10.06,16.94Zm2.12,32.3c.53,1.77,1.76,2.65,3.71,2.65.71,0,1.06-.53,1.06-1.59-.71-1.76-1.24-2.65-1.59-2.65l-3.18,1.59Zm2.65-68.83c.09.71.44,1.06,1.06,1.06,3.35,0,6.35-3,9-9v-.53h-1.59c-.62,0-2.91,2.65-6.88,7.94-.71.35-1.24.53-1.59.53Zm.53,76.24c1.15,5.29,2.56,7.94,4.24,7.94h.53c1.41-.53,2.12-1.06,2.12-1.59v-1.06l-4.24-7.94h-.53c-.71.18-1.41,1.06-2.12,2.65Zm5.29-76.77l-.53,2.65v1.59h.53c.97,0,2.03-.35,3.18-1.06-1.06-1.68-1.59-2.73-1.59-3.18h-1.59Zm46.59,66.18c9.18,0,13.77,3.18,13.77,9.53,0,4.06-3.88,7.94-11.65,11.65-3.09,3.88-6.8,5.82-11.12,5.82-6.8,0-11.21-2.82-13.24-8.47v-.53c0-7.23,6.18-13.24,18.53-18h3.71Zm-16.94,21.71v.53c2.29,0,4.59-2.82,6.88-8.47l7.94-4.24.53-1.06-2.65-.53c-8.47,3.71-12.71,8.3-12.71,13.77Zm19.59-13.77l-.53,1.06v1.06h1.06c.71,0,1.06-.35,1.06-1.06l-1.59-1.06Zm44.48-10.06h.53c5.29,0,9.18,3.88,11.65,11.65v.53c-1.06,7.06-4.59,10.59-10.59,10.59-.35,0-1.94-.53-4.76-1.59-2.12,3.88-5.12,5.82-9,5.82h-.53c-5.91,0-9.79-4.24-11.65-12.71,1.41-7.06,4.94-10.59,10.59-10.59,2.91.71,4.85,1.06,5.82,1.06,2.29-3.18,4.94-4.77,7.94-4.77Zm-23.3,15.36v.53h.53c1.41-.44,2.12-2.03,2.12-4.77v-.53c-1.77,0-2.65,1.59-2.65,4.77Zm3.18,4.24l-.53,1.06c0,.53.71,1.24,2.12,2.12h1.59c0-.35.18-.88.53-1.59-2.03-1.06-3.27-1.59-3.71-1.59Zm6.88-11.12c0,.53-.35,1.24-1.06,2.12,0,1.77.71,2.83,2.12,3.18l1.59-2.12v-2.12c0-.71-.35-1.06-1.06-1.06h-1.59Zm10.59-46.59h4.24c4.68,0,8.38,3.35,11.12,10.06v3.71c-1.68,6-5.38,9-11.12,9-6.62-.97-10.68-5.03-12.18-12.18v-1.59l.53-2.65,2.65.53c.71-.18,1.41-1.06,2.12-2.65h-2.65v-.53c0-.53,1.06-1.41,3.18-2.65h1.06l-.53,1.06v.53c.71,0,1.06.18,1.06.53l1.06-.53,2.65.53,1.06-1.59c-1.85-.35-3.62-.53-5.29-.53.09-.71.44-1.06,1.06-1.06Zm2.12-51.36h2.65c5.12,0,8.65,3.36,10.59,10.06v.53c-.44,2.21-2.03,4.5-4.77,6.88,3.18,3.18,4.77,6,4.77,8.47,0,3.97-3.71,6.62-11.12,7.94-7.77-1.59-11.65-5.29-11.65-11.12,0-2.38,1.59-4.32,4.77-5.82v-.53c-3.18-3.44-4.77-5.91-4.77-7.41v-.53c0-4.59,3.18-7.41,9.53-8.47Zm.53,127.6h1.06c7.41,2.56,11.12,6.44,11.12,11.65v1.06c0,5.82-3.53,9.18-10.59,10.06-7.77-2.73-11.65-6.79-11.65-12.18,1.5-7.06,4.85-10.59,10.06-10.59Zm-1.06,26.47h2.65c7.06,2.47,10.59,6.35,10.59,11.65v.53c0,5.21-2.83,8.56-8.47,10.06h-2.65c-7.41-2.73-11.12-6.62-11.12-11.65,1.41-7.06,4.41-10.59,9-10.59Zm-6.35-144.02l-.53,1.06c0,.53.71,1.24,2.12,2.12.71,0,1.06-.35,1.06-1.06-.18-.71-1.06-1.41-2.65-2.12Zm-.53,16.41c0,.53.71,1.24,2.12,2.12.71,0,1.06-.35,1.06-1.06,0-.53-.71-1.24-2.12-2.12-.71.09-1.06.44-1.06,1.06Zm.53,76.77v2.65c.09.71.44,1.06,1.06,1.06.71-1.15,1.06-2.2,1.06-3.18l-.53-2.12c-.53,0-1.06.53-1.59,1.59Zm2.65-5.82v1.06c.26,2.83,1.5,4.24,3.71,4.24.88-1.15,1.59-2.56,2.12-4.24-.71-2.12-1.77-3.18-3.18-3.18-1.59.71-2.47,1.41-2.65,2.12Zm.53-85.25c.35,1.24,1.59,2.12,3.71,2.65v-1.06c0-.79-1.24-1.32-3.71-1.59Zm0,15.36c0,.53.71,1.24,2.12,2.12h1.59v-.53c0-.79-1.24-1.32-3.71-1.59Zm1.06,108.54l-.53,1.06c0,.71.88,1.06,2.65,1.06v-1.59c-.62-.35-1.32-.53-2.12-.53Zm-.53,27.53v.53l2.65.53c0-.35.18-.88.53-1.59-.71,0-1.06-.35-1.06-1.06-1.41.53-2.12,1.06-2.12,1.59Zm.53-157.78c0,.53.88,1.24,2.65,2.12,3.18-.88,4.76-1.76,4.76-2.65-.88-1.76-2.47-2.65-4.76-2.65-1.77.18-2.65,1.24-2.65,3.18Zm0,15.35c0,.53.88,1.24,2.65,2.12,3.18-.88,4.76-1.76,4.76-2.65-.88-1.76-2.3-2.65-4.24-2.65-2.12,0-3.18,1.06-3.18,3.18Zm2.65,86.3c0,.53.53,1.06,1.59,1.59.62-.35,1.32-.53,2.12-.53-.53-1.41-1.06-2.12-1.59-2.12h-1.06c-.71.09-1.06.44-1.06,1.06Zm0,38.12v1.06c.35,0,.88.18,1.59.53,1.06-.35,1.59-.71,1.59-1.06-.35-.71-.53-1.24-.53-1.59h-1.59c-.71.09-1.06.44-1.06,1.06Zm0,25.41v2.12h3.18v-1.06c0-.71-.35-1.06-1.06-1.06h-2.12Zm5.82-162.02c-.71,1.41-1.24,2.12-1.59,2.12,0,.53.71,1.24,2.12,2.12,1.59-.71,2.47-1.41,2.65-2.12-1.77-1.41-2.83-2.12-3.18-2.12Zm-1.59,17.47c0,.53.71,1.24,2.12,2.12,1.59-.71,2.47-1.41,2.65-2.12l-2.65-2.12c-.35,0-1.06.71-2.12,2.12Zm2.12,33.36l-.53,2.65v2.12c.79,0,1.5.18,2.12.53,1.41-.35,2.12-1.41,2.12-3.18l-2.65-2.12h-1.06Zm.53,36l-.53,1.06v1.06c.09.71.44,1.06,1.06,1.06.71,0,1.06-.35,1.06-1.06v-.53c0-.53-.53-1.06-1.59-1.59Zm0,38.12l-.53,1.06v2.12h.53c.71-.35,1.23-.53,1.59-.53v-1.06c0-.53-.53-1.06-1.59-1.59Zm-.53,27.53v2.12h.53c.53,0,1.06-.53,1.59-1.59-.35-.71-.53-1.23-.53-1.59h-.53c-.71.09-1.06.44-1.06,1.06Zm2.12-61.95c.09.71.44,1.06,1.06,1.06h1.06v-1.59h-.53c-.71.35-1.24.53-1.59.53Zm0,38.65v.53c.35,0,.88.18,1.59.53l.53-1.06c0-.71-.35-1.06-1.06-1.06-.71.09-1.06.44-1.06,1.06Zm0,26.47l1.06.53,1.06-.53c-.35-.71-.53-1.23-.53-1.59-.53,0-1.06.53-1.59,1.59Z"/>
    <path class="cls-2" d="m200,257.25c6.62,0,11.38,5.12,14.3,15.36v3.18c0,3-1.77,6.35-5.29,10.06,1.15,0,2.03,1.77,2.65,5.29-1.68,7.76-5.21,11.65-10.59,11.65h-2.12c-4.59-1.15-6.88-3.44-6.88-6.88v-.53c0-3.27.88-6.09,2.65-8.47-3.53-1.06-6.71-4.76-9.53-11.12-.35-.62-.53-1.5-.53-2.65,3.18,0,4.77-1.76,4.77-5.29-.35-.71-.53-1.23-.53-1.59-2.12.97-3.18,2.74-3.18,5.29h-1.06v-.53c0-6.35,3.53-10.94,10.59-13.77h4.76Zm-10.59,21.71v.53c.88,2.12,2.29,3.18,4.24,3.18l1.06-1.59-3.71-2.65c-.71.35-1.24.53-1.59.53Zm5.82,13.24c.53,1.41,1.06,2.12,1.59,2.12,2.82,0,4.24-1.59,4.24-4.77v-.53c0-.71-.35-1.06-1.06-1.06-3.18.53-4.76,1.94-4.76,4.24Zm2.65-25.94l1.06,3.71h.53c2.47,0,3.71-1.24,3.71-3.71v-1.06c-.71-.88-1.06-1.59-1.06-2.12-2.56,0-3.97,1.06-4.24,3.18Zm0,33.89c0,.71.53,1.06,1.59,1.06.71-.35,1.24-.53,1.59-.53v-.53c0-.71-.35-1.06-1.06-1.06h-1.06c-.71.09-1.06.44-1.06,1.06Zm3.71-1.59v.53h1.59c.53,0,1.24-.71,2.12-2.12l-1.06-.53c-1.59.71-2.47,1.41-2.65,2.12Zm2.65-8.47c.35,1.41,1.23,2.12,2.65,2.12.71-.88,1.06-1.41,1.06-1.59v-1.59l-.53-1.06c-2.12.26-3.18.97-3.18,2.12Zm4.24-21.71c-1.06,1.59-1.59,3.18-1.59,4.77.35.62.53,1.32.53,2.12h.53c1.41-.62,2.12-1.85,2.12-3.71v-1.59c0-.53-.53-1.06-1.59-1.59Z"/>
    <path class="cls-2" d="m237.06,172h3.18c4.5,0,7.68,3.18,9.53,9.53v1.59c0,3.88-3.53,6.35-10.59,7.41-5.56,0-9.44-3-11.65-9v-2.12c0-3.62,3.18-6.09,9.53-7.41Zm-7.41,10.06v2.12c.53,0,1.23.35,2.12,1.06h.53v-1.06c0-.53-.71-1.24-2.12-2.12h-.53Zm10.06-48.71h4.24c5.29,0,9.18,3.88,11.65,11.65,0,6.27-3.88,9.97-11.65,11.12-6.18,0-10.24-4.41-12.18-13.24,0-.62.35-1.68,1.06-3.18l2.12,1.06c1.41-1.76,2.12-2.82,2.12-3.18h-2.65v-.53c0-.53,1.06-1.41,3.18-2.65h1.06v.53l-.53,1.06c1.06,0,1.59.18,1.59.53l1.06-.53c.62.35,1.32.53,2.12.53l1.06-1.59c-1.94-.35-3.35-.53-4.24-.53v-1.06Zm-6.35,50.83v.53c0,.79,1.24,1.5,3.71,2.12v-1.06c0-.71-1.24-1.23-3.71-1.59Zm.53-7.41v1.59c.53,0,1.59.53,3.18,1.59,2.82-.44,4.24-1.32,4.24-2.65,0-1.06-1.41-1.94-4.24-2.65-2.12.71-3.18,1.41-3.18,2.12Zm11.65,69.89h1.06c5.65,0,9.53,4.06,11.65,12.18-1.41,6.71-4.24,10.06-8.47,10.06h-2.12c-7.77-2.03-11.65-5.91-11.65-11.65v-.53c1.15-6.71,4.32-10.06,9.53-10.06Zm-2.65-65.65l-1.59,2.12v.53l1.59,1.59c1.76-.44,2.65-.97,2.65-1.59v-.53c-.18-.71-1.06-1.41-2.65-2.12Zm-.53,74.13v1.06c.09.71.44,1.06,1.06,1.06h1.59l-.53-2.65c-.62.35-1.32.53-2.12.53Zm2.65,9l1.59,2.12,2.12-1.06c-.35-.71-.53-1.23-.53-1.59h-2.12l-1.06.53Zm2.65-120.72v2.12c.35,1.06,1.41,1.59,3.18,1.59.71-1.15,1.06-2.21,1.06-3.18l-2.12-2.12h-.53c-.53,0-1.06.53-1.59,1.59Zm3.71,111.19c.35.71.53,1.24.53,1.59h.53c.53,0,1.06-.71,1.59-2.12l-1.59-1.06c-.71,0-1.06.53-1.06,1.59Zm12.71-54.54c6.35,1.41,9.53,4.59,9.53,9.53-1.68,6-5.21,9-10.59,9h-2.12c-6-1.15-9-4.15-9-9,2.03-6.35,6.09-9.53,12.18-9.53Zm-10.06,57.18v.53h1.06c.71,0,1.06-.35,1.06-1.06l-1.06-.53c-.71.09-1.06.44-1.06,1.06Zm1.06-45v2.12l2.65.53.53-1.06-2.12-1.59h-1.06Zm2.65-5.29c1.32,1.06,2.56,1.59,3.71,1.59,2.47-1.24,3.71-2.12,3.71-2.65v-.53c0-.53-.53-1.06-1.59-1.59h-2.12c-2.47,0-3.71,1.06-3.71,3.18Zm1.06,6.88c0,.79,1.23,1.32,3.71,1.59v-1.06c0-.71-.35-1.06-1.06-1.06l-2.65.53Zm14.83-103.25c7.06,2.91,10.59,6.8,10.59,11.65v1.59c-1.32,6.35-4.15,9.53-8.47,9.53h-1.59c-5.65,0-9.53-4.06-11.65-12.18,0-5.91,3.71-9.44,11.12-10.59Zm-7.41,99.54v1.06c.09.71.44,1.06,1.06,1.06h1.06c.53,0,1.23-.71,2.12-2.12l-2.12-1.59h-.53c-.53,0-1.06.53-1.59,1.59Zm1.06-91.07c0,3.18,1.41,4.76,4.24,4.76,1.06-2.47,1.76-3.71,2.12-3.71,0-.53-.88-1.76-2.65-3.71-2.21.71-3.44,1.59-3.71,2.65Zm9.53,146.66h2.12c5.56,0,9.27,3.88,11.12,11.65v1.59c0,4.59-2.83,7.77-8.47,9.53h-2.65c-5.29,0-9-4.06-11.12-12.18,1.59-7.06,4.59-10.59,9-10.59Zm-7.94,11.65v.53c1.76,0,2.65-1.76,2.65-5.29h-.53c-1.41.44-2.12,2.03-2.12,4.76Zm2.65,4.24v.53c.71,1.24,1.76,2.12,3.18,2.65.71-.88,1.06-1.41,1.06-1.59-1.77-.97-2.65-1.67-2.65-2.12-.71.35-1.24.53-1.59.53Zm1.06-154.08l-.53,1.06v.53c.09.71.44,1.06,1.06,1.06h1.06c.71,0,1.06-.35,1.06-1.06,0-.79-.88-1.32-2.65-1.59Zm5.29-9.53c.35.62.53,1.32.53,2.12h1.06c.71,0,1.06-.35,1.06-1.06-.35-.71-.53-1.24-.53-1.59h-1.06l-1.06.53Zm0,154.08c.35,2.12.88,3.18,1.59,3.18,1.59-.71,2.47-1.41,2.65-2.12,0-1.85-.53-2.91-1.59-3.18-1.59.71-2.47,1.41-2.65,2.12Zm3.18-151.96c0,.35-.18.88-.53,1.59l1.06.53c.71,0,1.06-.35,1.06-1.06l-1.59-1.06Zm3.71,154.61v3.18c.09.71.44,1.06,1.06,1.06.71-.88,1.06-1.41,1.06-1.59v-2.12l-.53-1.06c-.71.35-1.24.53-1.59.53Zm12.71-68.3c7.76,2.56,11.65,6.97,11.65,13.24v.53c-.53,5.29-3,7.94-7.41,7.94-4.85,0-8.74-3.71-11.65-11.12v-3.71c0-3.62,2.47-5.91,7.41-6.88Zm11.12-103.78h1.59c4.32,0,7.68,4.24,10.06,12.71-3.71,14.47-9.88,21.71-18.53,21.71-7.06-3.35-10.59-8.65-10.59-15.88,4.24-9.79,8.82-15.62,13.77-17.47l3.71-1.06Zm-17.47,112.78v2.65c0,.53.53,1.06,1.59,1.59l.53-1.06c-.71-2.12-1.41-3.18-2.12-3.18Zm.53-4.24c.71.35,1.23.53,1.59.53,1.59-.71,2.47-1.41,2.65-2.12v-.53c-.71,0-1.06-.18-1.06-.53-1.85.71-2.91,1.59-3.18,2.65Zm30.71,50.3c8.12,1.41,12.18,4.59,12.18,9.53,0,4.06-4.24,8.3-12.71,12.71-2.38,3.18-5.03,4.77-7.94,4.77h-2.65c-.79,0-1.5-.18-2.12-.53l-1.06.53c-3.62,0-6.8-2.82-9.53-8.47,0-7.41,6-13.41,18-18,1.94-.35,3.88-.53,5.82-.53Zm-21.71-48.18c-.71,1.15-1.06,2.21-1.06,3.18.09.71.44,1.06,1.06,1.06h2.12l.53-2.65c0-.62-.88-1.15-2.65-1.59Zm1.06,9.53v1.06c1.85,0,2.91-.53,3.18-1.59v-1.59h-1.06c-.53,0-1.24.71-2.12,2.12Zm.53-97.95v2.65l.53,1.06c1.59,0,3-3.53,4.24-10.59,1.85-3.26,3.62-5.74,5.29-7.41v-1.06c-4.41,0-7.77,5.12-10.06,15.36Zm1.59,158.84h1.59c.35,0,2.65-3.18,6.88-9.53,4.59-1.15,6.88-2.56,6.88-4.24h-2.65c-4.06,0-8.3,3.88-12.71,11.65v2.12Zm20.65-93.72h1.59l17.47,5.82c2.91,0,5.21,2.29,6.88,6.88h9.53c1.85,0,3.79,1.41,5.82,4.24,3.18,1.5,4.76,3.44,4.76,5.82v2.65c0,7.77-8.12,11.65-24.36,11.65-6-3.18-10.06-6.35-12.18-9.53-10.24-3.62-15.35-8.03-15.35-13.24-1.41-1.32-2.12-2.91-2.12-4.76,1.24-6.35,3.88-9.53,7.94-9.53Zm-2.12,6.35v1.59c.09.71.44,1.06,1.06,1.06h1.59c.26,0,.79-.53,1.59-1.59,0-.53-.71-1.41-2.12-2.65-1.41.53-2.12,1.06-2.12,1.59Zm.53,73.6v2.12h.53c.53,0,1.06-.53,1.59-1.59l-1.06-.53h-1.06Zm18.53-150.9h1.59c4.06,0,6.88,2.3,8.47,6.88,0,.88.88,3.18,2.65,6.88v.53c0,7.06-2.83,12.53-8.47,16.41l.53,1.06v1.59h-1.06c-.71,0-1.06-.35-1.06-1.06-3.09,2.12-6.27,3.18-9.53,3.18-4.41,0-7.41-3.18-9-9.53-1.06-.26-1.59-1.67-1.59-4.24v-1.06c0-3.79,4.41-10.33,13.24-19.59,1.32-.71,2.73-1.06,4.24-1.06Zm-14.83,81.54c0,2.21,3.35,4.15,10.06,5.82h1.59c5.38-.44,8.21-1.32,8.47-2.65,0-.88-.71-1.41-2.12-1.59-3.8.71-6.27,1.06-7.41,1.06h-2.65l-6.35-2.65h-1.59Zm3.18-56.65c.09.71.44,1.06,1.06,1.06,4.68-1.94,7.68-4.59,9-7.94v-1.59h-.53c-1.94,0-4.41,2.47-7.41,7.41-.88.71-1.59,1.06-2.12,1.06Zm11.65,90.01c6.71,1.77,11.65,5.29,14.83,10.59,1.76,0,3.53,5.29,5.29,15.88,0,5.03-3.18,8.03-9.53,9h-2.65c-4.85-1.06-9.79-4.94-14.83-11.65-2.83-5.12-4.24-9-4.24-11.65,0-5.47,2.47-9.18,7.41-11.12l3.71-1.06Zm-7.94,7.41v1.06c.62,1.41,1.85,2.12,3.71,2.12h.53v-1.06c0-1.85-.53-2.91-1.59-3.18-1.15.71-2.03,1.06-2.65,1.06Zm2.12-97.95l-.53,2.65v1.59l3.71-1.06c-1.24-2.12-2.12-3.18-2.65-3.18h-.53Zm9.53,10.59c13.77,5.03,20.65,10.15,20.65,15.36,1.76,2.83,2.65,6,2.65,9.53-1.32,6.71-4.5,10.06-9.53,10.06,0,2.38-3.53,4.15-10.59,5.29-7.06-3.35-10.59-8.65-10.59-15.88,1.76-3.26,2.65-5.21,2.65-5.82-3.18-1.32-4.76-3.97-4.76-7.94,1.06-7.06,4.24-10.59,9.53-10.59Zm-9,94.78c1.15,5.65,2.73,8.47,4.76,8.47,1.41-.35,2.12-1.41,2.12-3.18-.88-.09-1.94-2.38-3.18-6.88l-1.06-.53h-.53c-.35,0-1.06.71-2.12,2.12Zm6.35-36.53h-2.12c-.71.09-1.06.44-1.06,1.06v.53l3.71,1.06h1.06c6.44,0,11.56-2.47,15.36-7.41l-1.06-.53h-1.59c-5.12,3.53-9.88,5.29-14.3,5.29Zm0-52.95l-1.59,2.12v2.65c0,1.41,2.82,6.35,8.47,14.83-.26,2.83-.62,4.24-1.06,4.24l1.06,2.65c1.41,0,2.82-3.53,4.24-10.59,1.85-3.26,3.62-5.74,5.29-7.41v-1.06h-.53c-2.47.18-5.29,3.18-8.47,9h-1.06c0-1.15-1.77-4.68-5.29-10.59v-1.59c0-.79.18-1.5.53-2.12-.53-1.41-1.06-2.12-1.59-2.12Z"/>
  </g>
</svg>