<?xml version="1.0" encoding="UTF-8"?>
<svg id="_Слой_1" data-name="Слой 1" xmlns="http://www.w3.org/2000/svg" viewBox="0 0 400 400">
  <defs>
    <style>
      .cls-1 {
        fill: #f6b375;
      }

      .cls-1, .cls-2 {
        stroke-width: 0px;
      }

      .cls-2 {
        fill: #441c16;
      }
    </style>
  </defs>
  <rect class="cls-1" x="-15.94" y="-11.79" width="441.56" height="423.73"/>
  <g>
    <path class="cls-2" d="m49.9,257.78c8.47,1.15,12.71,3.97,12.71,8.47v.53c0,4.59-3.53,8.47-10.59,11.65-3.71,4.24-7.41,6.35-11.12,6.35-6.53,0-10.94-1.94-13.24-5.82l-.53-1.06v-2.65c0-6.97,5.82-12.62,17.47-16.94,1.23-.35,3-.53,5.29-.53Zm-6.35,7.94c-7.77,5.03-11.65,9.44-11.65,13.24v1.06h1.59c.35,0,2.65-3.18,6.88-9.53,4.59-1.15,6.88-2.56,6.88-4.24-1.06,0-2.3-.18-3.71-.53Zm-1.59-151.96l17.47,5.82c4.59.79,6.88,2.74,6.88,5.82,1.24,0,2.12,1.94,2.65,5.82v.53c0,5.91-3.88,9.27-11.65,10.06h-4.76c-5.38,0-10.85-3.53-16.41-10.59-1.77-4.24-2.65-6.88-2.65-7.94,1.06-6.35,3.88-9.53,8.47-9.53Zm2.65,115.42c5.47,0,9.53,3.71,12.18,11.12v2.65c0,5.12-3.35,8.29-10.06,9.53h-1.06c-5.29,0-9-4.06-11.12-12.18v-.53c1.5-7.06,4.85-10.59,10.06-10.59Zm-9.53,10.59c.35.71.53,1.24.53,1.59h1.59c.71-2.29,1.06-3.88,1.06-4.76v-.53c-.88,0-1.94,1.24-3.18,3.71Zm3.71,5.29l-.53,1.06c0,.53.71,1.24,2.12,2.12h1.59v-1.06c-.71-1.41-1.77-2.12-3.18-2.12Zm0-123.9c.35,1.41,1.41,2.12,3.18,2.12.71-.88,1.06-1.41,1.06-1.59v-1.06c0-.53-.53-1.06-1.59-1.59h-1.06c-.53,0-1.06.71-1.59,2.12Zm4.77,3.71c1.94,3.53,5.47,5.29,10.59,5.29h1.06c5.65-.35,8.47-1.23,8.47-2.65,0-.79-.88-1.32-2.65-1.59-3.27,1.06-6.27,1.59-9,1.59-1.5,0-3.27-.88-5.29-2.65h-3.18Zm1.06,111.19c.26,2.12.79,3.18,1.59,3.18,1.41-.35,2.12-1.41,2.12-3.18-.35-1.23-.53-1.94-.53-2.12h-1.06c-.53,0-1.24.71-2.12,2.12Zm6.35,30.18v1.06c.09.71.44,1.06,1.06,1.06l1.06-1.59-1.06-.53h-1.06Zm.53-27v2.65c.09.71.44,1.06,1.06,1.06.71-1.15,1.06-2.21,1.06-3.18l-.53-2.12c-.53,0-1.06.53-1.59,1.59Zm22.24-32.83h.53c5.21,0,9.09,3.53,11.65,10.59v3.18c0,4.32-3.18,7.33-9.53,9-8.12-2.21-12.18-6.09-12.18-11.65v-1.59c1.32-6.35,4.5-9.53,9.53-9.53Zm5.29,47.12c4.94,0,10.24,4.06,15.88,12.18,2.47,4.94,3.71,9.71,3.71,14.3,0,5.12-3.53,7.94-10.59,8.47h-3.18c-7.41-3.35-13.06-9.88-16.94-19.59-.35-1.41-.53-2.65-.53-3.71,0-5.56,2.82-9.44,8.47-11.65h3.18Zm-9-37.59c0,.71.88,1.06,2.65,1.06.35-.71.53-1.24.53-1.59l-1.06-.53h-1.06c-.71.09-1.06.44-1.06,1.06Zm.53,45.54c.62,1.41,1.85,2.12,3.71,2.12h.53v-1.06c0-1.85-.53-2.91-1.59-3.18-1.59.71-2.47,1.41-2.65,2.12Zm2.65-37.06v1.06c.35,0,.88.18,1.59.53.62-.35,1.32-.53,2.12-.53-.53-1.41-1.06-2.12-1.59-2.12h-1.06c-.71.09-1.06.44-1.06,1.06Zm1.59,41.3c-.71,1.41-1.24,2.12-1.59,2.12,1.15,5.65,2.73,8.47,4.76,8.47,1.41-.35,2.12-1.41,2.12-3.18-.88-.09-1.94-2.38-3.18-6.88l-2.12-.53Zm6.88-164.67h2.12c7.06,2.56,10.59,6.44,10.59,11.65v2.12c-.62,4.94-2.74,7.41-6.35,7.41h-1.06c-3.62,0-7.15-2.65-10.59-7.94v-1.59c.18,0,.71.35,1.59,1.06h.53v-1.06c0-1.85-.53-2.91-1.59-3.18h-.53v2.12h-1.06v-3.71c.27-2.12.79-3.18,1.59-3.18,0,.71.53,1.06,1.59,1.06,1.15-.71,2.03-1.06,2.65-1.06v-1.59c-.71,0-1.06-.18-1.06-.53-.35,0-1.41.71-3.18,2.12v-.53c1.23-2.12,2.82-3.18,4.77-3.18Zm-1.59,111.72l-.53,1.06v1.06c.09.71.44,1.06,1.06,1.06.71,0,1.06-.35,1.06-1.06v-.53c0-.53-.53-1.06-1.59-1.59Zm1.59,3.71c.09.71.44,1.06,1.06,1.06h1.06v-1.59h-.53c-.71.35-1.24.53-1.59.53Zm3.18-106.95c.53,1.41,1.06,2.12,1.59,2.12h1.06c.53,0,1.06-.53,1.59-1.59v-1.59l-2.65-.53-1.59,1.59Zm2.12,6.88c.35.71.53,1.24.53,1.59h1.06c.88-.71,1.59-1.06,2.12-1.06v-2.12c-1.15,0-2.38.53-3.71,1.59Zm22.77,76.77h.53c6,.97,9.71,4.68,11.12,11.12v2.12c-1.24,6.35-4.41,9.53-9.53,9.53s-8.91-3.53-11.65-10.59v-2.65c1.32-6.35,4.5-9.53,9.53-9.53Zm52.42,59.3c3.88,2.12,5.82,5.12,5.82,9v2.12c0,5.74-6.71,9.27-20.12,10.59-1.59,0-4.41-.88-8.47-2.65,0,6-5.47,9.71-16.41,11.12-3.88,0-5.82.18-5.82.53-9.88-3.62-14.83-8.21-14.83-13.77,0-7.41,8.65-11.12,25.94-11.12,2.03,0,4.15,1.41,6.35,4.24h.53c.09-6.71,9.09-10.06,27-10.06Zm-57.71-51.36c.53,3.53,1.94,5.29,4.24,5.29l2.12-4.24c-.88-2.12-1.94-3.18-3.18-3.18-.79.18-1.85.88-3.18,2.12Zm21.18,61.42c-2.38,2.56-6.97,4.5-13.77,5.82-1.24-.35-1.94-.53-2.12-.53-.71.35-1.24.53-1.59.53v.53c0,.97,1.94,1.68,5.82,2.12,9.18-2.12,13.77-4.76,13.77-7.94-.62-.35-1.32-.53-2.12-.53Zm-16.41-51.36v1.06c.35,0,.88.18,1.59.53.62-.35,1.32-.53,2.12-.53-.53-1.41-1.06-2.12-1.59-2.12h-1.06c-.71.09-1.06.44-1.06,1.06Zm12.71-102.19h2.12c4.94,0,7.76,3.18,8.47,9.53v.53c0,3.88-3.88,6.71-11.65,8.47-6.35-1.41-9.53-4.24-9.53-8.47v-1.59c0-4.06,3.53-6.88,10.59-8.47Zm-7.94,11.65v1.06c0,.53.53,1.06,1.59,1.59h1.59v-1.59c-.62,0-1.68-.35-3.18-1.06Zm2.12,78.89l-.53,1.06v1.06c.09.71.44,1.06,1.06,1.06.71,0,1.06-.35,1.06-1.06v-.53c0-.53-.53-1.06-1.59-1.59Zm1.06-85.25v2.12l3.71.53c1.5-.53,2.56-1.41,3.18-2.65v-.53c0-.53-.53-1.06-1.59-1.59h-1.59c-1.85,0-3.09.71-3.71,2.12Zm.53,7.94c.35,1.06,1.41,1.59,3.18,1.59.71,0,1.06-.35,1.06-1.06v-.53h-4.24Zm0,81.01c0,.53.53,1.06,1.59,1.59l.53-1.06-.53-1.06c-.71.35-1.24.53-1.59.53Zm8.47-86.3c0,1.41-.35,2.12-1.06,2.12.35.71.53,1.24.53,1.59h.53c1.85,0,2.91-.53,3.18-1.59v-1.06c-.53,0-1.24-.35-2.12-1.06h-1.06Zm14.29,54.54h.53c8.12,1.68,12.18,6.09,12.18,13.24-1.24,6.35-5.12,9.53-11.65,9.53-5.21,0-9.09-3.53-11.65-10.59v-3.18c.26-2.12.79-3.18,1.59-3.18v1.59h1.06c.53,0,1.23-.71,2.12-2.12v-1.06h-1.06l-2.12,1.59v-1.06c2.38-3.18,5.38-4.77,9-4.77Zm4.24-34.42h2.12c5.91,0,9.44,3.71,10.59,11.12-1.41,4.94-5.12,7.41-11.12,7.41-5.29,0-9.18-3.18-11.65-9.53v-.53c0-4.41,3.35-7.24,10.06-8.47Zm-8.47,36v.53c.09.71.44,1.06,1.06,1.06h2.12l2.65-.53c0-.71-1.24-1.23-3.71-1.59-.62.35-1.32.53-2.12.53Zm1.06-25.94v1.59c0,.79.88,1.32,2.65,1.59v-1.06c0-.53-.71-1.24-2.12-2.12h-.53Zm6.35,115.42c-.71-.35-1.24-.53-1.59-.53-.71.35-1.24.53-1.59.53v.53c0,.88,1.94,1.59,5.82,2.12,9.53-2.47,14.3-5.12,14.3-7.94l-1.06-.53h-1.06c-6.09,3.88-11.03,5.82-14.83,5.82Zm-2.65-113.31v.53c0,.71,1.06,1.41,3.18,2.12l.53-1.06c0-.62-1.24-1.15-3.71-1.59Zm.53-7.41v1.59c.53,0,1.59.53,3.18,1.59,2.82-.44,4.24-1.32,4.24-2.65,0-1.06-1.41-1.94-4.24-2.65-2.12.71-3.18,1.41-3.18,2.12Zm4.76,38.12l-1.06,2.65c.26,1.77,1.32,2.65,3.18,2.65.26,0,.79-.53,1.59-1.59-.88-2.47-2.12-3.71-3.71-3.71Zm3.71-33.89c0,.53-.35,1.24-1.06,2.12v.53c0,.53.53,1.06,1.59,1.59,1.15-.71,2.03-1.06,2.65-1.06v-1.06c0-.71-1.06-1.41-3.18-2.12Z"/>
    <path class="cls-2" d="m217.74,114.82c9.88,0,14.83,3.18,14.83,9.53,0,3.8-4.06,7.86-12.18,12.18-2.21,3.18-5.56,4.76-10.06,4.76h-.53c.62.88,1.32,2.3,2.12,4.24,1.94,0,5.29-.18,10.06-.53,2.47,0,6.18,3,11.12,9v3.71c0,7.77-7.24,11.65-21.71,11.65h-1.06c-2.12,0-4.59-1.06-7.41-3.18-3.8,3.97-7.5,6.09-11.12,6.35h-1.06c-3.88,0-7.06-2.12-9.53-6.35v-3.71c0-9.71,4.59-17.47,13.77-23.3,2.38-1.06,3.79-1.59,4.24-1.59-1.41-1.5-2.12-2.91-2.12-4.24v-1.06c0-7.15,6-12.97,18-17.47h2.65Zm-30.71,36.53v1.06c0,.71,1.24,1.41,3.71,2.12.09-.71.44-1.06,1.06-1.06-.71-2.12-1.41-3.18-2.12-3.18h-.53c-.88.71-1.59,1.06-2.12,1.06Zm4.24,5.29l-1.06,1.59v.53c.79,5.29,1.85,7.94,3.18,7.94h1.59c.53,0,1.06-.53,1.59-1.59v-1.06c-.97-1.32-2.03-3.62-3.18-6.88-.62-.35-1.32-.53-2.12-.53Zm14.83,97.95h2.65c7.15,2.21,13.32,6.09,18.53,11.65,2.47,5.82,3.71,9.53,3.71,11.12v2.12c-1.41,6-3.88,9-7.41,9h-1.06c-9.53-2.47-14.3-5.65-14.3-9.53-1.59-2.29-4.41-5.29-8.47-9-.53-1.15-1.06-2.73-1.59-4.77,1.59-7.06,4.24-10.59,7.94-10.59Zm11.12-38.65h1.59c4.06,0,6.88,2.3,8.47,6.88,0,.97.88,3.27,2.65,6.88v.53c0,6-2.65,11.47-7.94,16.41,0,1.77-.35,2.65-1.06,2.65,0-.71-.35-1.06-1.06-1.06-3.79,2.12-6.62,3.18-8.47,3.18-6.35-.88-9.53-3.88-9.53-9-1.41-.44-2.12-2.03-2.12-4.76v-1.06c0-3.88,4.41-10.41,13.24-19.59,1.32-.71,2.73-1.06,4.24-1.06Zm.53-37.59h1.06c4.68,0,8.21,4.24,10.59,12.71,0,5.12-3.71,11.83-11.12,20.12-3.44,1.06-5.74,1.59-6.88,1.59-7.41-2.73-11.12-8.21-11.12-16.41,4.32-8.12,7.15-12.53,8.47-13.24,4.24-3.18,7.23-4.76,9-4.76Zm-15.88-41.83c.71,0,1.06.18,1.06.53,1.23,0,3.35-3,6.35-9,5.29-2.21,7.94-3.79,7.94-4.77l-1.06-.53h-1.06c-4.85,0-9.27,4.24-13.24,12.71v1.06Zm3.18,18.53c-.71-.35-1.24-.53-1.59-.53-.71.35-1.24.53-1.59.53v.53c0,.88,1.94,1.59,5.82,2.12,9.53-2.82,14.3-5.29,14.3-7.41v-.53l-2.12-.53c-6.27,3.88-11.21,5.82-14.83,5.82Zm0,104.31l-1.59,2.65v1.59c0,2.47,3.35,8.12,10.06,16.94h1.06l.53-2.65c-3.09-1.85-6.09-6.26-9-13.24v-.53c.35-1.94.53-3.35.53-4.24-.35,0-.88-.18-1.59-.53Zm9-27.53c-2.03,1.32-3.97,3.97-5.82,7.94-.26,0-1.15.35-2.65,1.06.09.71.44,1.06,1.06,1.06,2.12,0,5.12-2.65,9-7.94v-1.59c-.35,0-.88-.18-1.59-.53Zm-3.18,9.53v2.12c.09.71.44,1.06,1.06,1.06,1.76-.71,2.65-1.23,2.65-1.59-1.06-1.68-1.59-2.73-1.59-3.18h-.53c-.53,0-1.06.53-1.59,1.59Zm.53-40.77v2.65l.53,1.06c1.41,0,3-3.88,4.76-11.65,3.18-3.97,4.77-6.44,4.77-7.41-4.41,0-7.77,5.12-10.06,15.35Zm9.53-76.77v1.06h1.06l1.06-.53c-.35-.71-.53-1.23-.53-1.59h-.53c-.71.09-1.06.44-1.06,1.06Z"/>
    <path class="cls-2" d="m272.27,243.48c1.59,0,4.77,2.3,9.53,6.88,1.06,1.32,1.59,2.91,1.59,4.77,0,8.47-8.12,12.71-24.36,12.71-8.47-4.15-12.71-8.03-12.71-11.65v-4.76c2.73-5.29,9.62-7.94,20.65-7.94h5.29Zm-12.71-61.42h2.65c4.94,0,8.47,3.18,10.59,9.53v1.06c0,4.33-3.71,6.97-11.12,7.94-5.47,0-9.35-3.18-11.65-9.53v-1.06c0-4.15,3.18-6.79,9.53-7.94Zm-4.77,70.95h-2.12c-.71.09-1.06.44-1.06,1.06,1.41.71,2.12,1.24,2.12,1.59.35,0,.53-.18.53-.53l2.65.53h.53c4.94,0,9.71-2.29,14.3-6.88,0-.53-.53-1.06-1.59-1.59-5.91,3.88-11.03,5.82-15.35,5.82Zm-2.12-60.89l-.53,1.06c0,.53.71,1.24,2.12,2.12.71,0,1.06-.35,1.06-1.06-.18-.71-1.06-1.41-2.65-2.12Zm14.83-48.18c6.35,1.15,9.53,4.15,9.53,9,0,5.12-3.53,8.3-10.59,9.53h-1.59c-4.68,0-7.85-2.82-9.53-8.47,1.68-6.71,5.74-10.06,12.18-10.06Zm-11.65,50.3c.35,1.24,1.59,2.12,3.71,2.65,0-.35.18-.53.53-.53,0-1.15-1.41-1.85-4.24-2.12Zm1.06-6.35c0,.53.88,1.24,2.65,2.12,2.91-.71,4.5-1.41,4.76-2.12-.79-2.12-2.21-3.18-4.24-3.18s-3.18,1.06-3.18,3.18Zm1.59-31.77v1.06c0,.79.88,1.32,2.65,1.59l.53-1.06-2.12-1.59h-1.06Zm2.65-6.35c.53,1.77,1.76,2.65,3.71,2.65,2.47-1.23,3.71-2.12,3.71-2.65v-.53c0-.53-.88-1.24-2.65-2.12-2.21.44-3.79,1.32-4.77,2.65Zm6.88-45h1.06c5.74,0,9.62,4.24,11.65,12.71v1.06c-.88,5.29-3.18,7.94-6.88,7.94-5.21,0-9.27-3.88-12.18-11.65v-2.65c0-3.88,2.12-6.35,6.35-7.41Zm-5.82,53.48l2.65.53h.53c.71,0,1.06-.35,1.06-1.06l-2.65-.53h-.53c-.71.09-1.06.44-1.06,1.06Zm.53-44.48v1.06l.53,2.65h1.59v-.53c0-1.85-.53-2.91-1.59-3.18h-.53Zm.53-4.77v.53c.71,0,1.06.18,1.06.53,1.5-.53,2.56-1.41,3.18-2.65v-.53h-.53c-1.85,0-3.09.71-3.71,2.12Zm2.12,82.07c-.71,1.41-1.24,2.12-1.59,2.12.35,1.15,1.06,1.85,2.12,2.12,1.59-.71,2.47-1.41,2.65-2.12-1.77-1.41-2.83-2.12-3.18-2.12Zm5.29-38.65l-1.06,1.59v.53c0,.53.53,1.06,1.59,1.59h.53c.88-.71,1.59-1.06,2.12-1.06v-1.06c-.35-1.06-1.41-1.59-3.18-1.59Zm.53-38.65c.35,1.41,1.23,2.12,2.65,2.12,1.06-1.32,1.59-2.56,1.59-3.71l-2.65-.53c-.53,0-1.06.71-1.59,2.12Zm2.12,7.41v.53h1.59c1.41-.71,2.12-1.76,2.12-3.18h-.53c-1.24,0-2.29.88-3.18,2.65Zm18.53,41.3h1.59c7.76,1.94,11.65,5.82,11.65,11.65v1.06c0,5.74-3.71,9.09-11.12,10.06-5.29,0-9.18-3.18-11.65-9.53-.35-.62-.53-1.5-.53-2.65v-1.59l.53-2.65h.53l1.59,1.06c.53,0,1.23-.71,2.12-2.12v-1.06h-2.12v-.53c2.03-2.47,4.5-3.71,7.41-3.71Zm2.65,90.54c6.79,1.94,11.74,5.47,14.83,10.59,1.76,0,3.53,5.29,5.29,15.88,0,5.65-3.53,8.65-10.59,9h-3.18c-7.86-3.44-13.68-10.32-17.47-20.65v-3.18c0-5.29,2.47-8.82,7.41-10.59l3.71-1.06Zm-7.94,7.41v1.06c.62,1.41,1.85,2.12,3.71,2.12l.53-1.06c0-1.85-.53-2.91-1.59-3.18-1.15.71-2.03,1.06-2.65,1.06Zm10.06-163.61c9.09,3.62,16.15,5.91,21.18,6.88l5.29,7.94v4.77c0,4.94-4.59,7.94-13.77,9-7.15,0-13.5-3.71-19.06-11.12-1.77-4.15-2.65-6.97-2.65-8.47,1.5-6,4.5-9,9-9Zm-8.47,67.24v1.06l2.65.53h1.59c.53,0,1.06-.53,1.59-1.59-1.94-.35-3.35-.53-4.24-.53-.71.35-1.24.53-1.59.53Zm2.65,101.66c-.71,1.41-1.24,2.12-1.59,2.12,1.15,5.65,2.73,8.47,4.76,8.47,1.41-.35,2.12-1.41,2.12-3.18-.88-.09-1.94-2.38-3.18-6.88-1.24-.35-1.94-.53-2.12-.53Zm2.65-162.02v1.06c0,1.06.71,1.59,2.12,1.59l2.12-1.59c-.71-1.59-1.41-2.47-2.12-2.65h-.53c-.53,0-1.06.53-1.59,1.59Zm3.71,69.89c.26,1.77,1.32,2.65,3.18,2.65.53,0,1.06-.71,1.59-2.12-.44-1.5-1.32-2.56-2.65-3.18h-.53c-.53,0-1.06.88-1.59,2.65Zm.53-65.65c0,2.21,3.53,4.15,10.59,5.82,6.35-.71,9.53-1.59,9.53-2.65v-.53c0-.53-.71-1.06-2.12-1.59-3.27,1.06-6.27,1.59-9,1.59h-.53c-4.32-1.76-6.62-2.65-6.88-2.65h-1.59Zm42.36,143.49c9.18.71,13.77,3.35,13.77,7.94v1.06c0,4.76-3.35,8.47-10.06,11.12-4.15,4.59-8.03,6.88-11.65,6.88-9.18-.71-13.77-3.53-13.77-8.47v-1.06c0-7.5,6.35-13.32,19.06-17.47h2.65Zm-10.06-85.78h.53c4.06,0,7.59,2.83,10.59,8.47.35.62.53,1.5.53,2.65v2.12c0,5.21-3.35,8.38-10.06,9.53-7.41-2.82-11.12-6.35-11.12-10.59v-2.65c1.15-6.35,4.32-9.53,9.53-9.53Zm-6.88,108.01c2.03,0,4.68-3,7.94-9,4.94-2.03,7.41-3.62,7.41-4.77-.26,0-1.32-.18-3.18-.53-6.35,2.91-10.41,7.15-12.18,12.71v1.59Zm1.59-99.54c.79,3.18,2.2,4.77,4.24,4.77l2.12-4.24c-.53-2.12-1.77-3.18-3.71-3.18-1.5.79-2.38,1.68-2.65,2.65Zm10.06-79.95h3.18c10.33,3.8,16.85,8.56,19.59,14.3,1.76,4.59,2.65,7.59,2.65,9v.53c-1.15,6.71-3.8,10.06-7.94,10.06h-.53c-1.59,0-4.41-.88-8.47-2.65-1.94-.35-5.12-4.06-9.53-11.12-4.24-3.35-6.35-6.18-6.35-8.47v-2.12c1.32-6.35,3.79-9.53,7.41-9.53Zm-5.29,89.48v1.06c.71,0,1.06.18,1.06.53.62-.35,1.5-.53,2.65-.53-.53-1.41-1.06-2.12-1.59-2.12h-1.06c-.71.09-1.06.44-1.06,1.06Zm4.24-84.71c-1.06,2.03-1.59,3.27-1.59,3.71.26,3.09,3.79,8.91,10.59,17.47.71,0,1.06-.35,1.06-1.06v-1.06c0-.62-1.06-1.5-3.18-2.65,0-.79-1.94-4.5-5.82-11.12l.53-2.65v-1.59c0-.71-.35-1.06-1.06-1.06h-.53Zm2.65,73.07l-.53,1.06v1.06c.09.71.44,1.06,1.06,1.06h.53c.35-1.24.53-1.94.53-2.12-.88-.71-1.41-1.06-1.59-1.06Zm1.59,4.24l1.06.53h1.06v-1.59h-1.06c-.71.09-1.06.44-1.06,1.06Zm4.77,83.13l-.53,1.06v1.06h2.12v-1.59c-.35,0-.88-.18-1.59-.53Zm16.41-69.89c7.76,2.65,11.65,6.88,11.65,12.71-1.15,6.71-4.32,10.06-9.53,10.06h-1.59c-7.41-2.56-11.12-6.44-11.12-11.65v-.53c1.41-7.06,4.94-10.59,10.59-10.59Zm1.59,36.53c5.38,0,9.27,3.18,11.65,9.53.35.62.53,1.5.53,2.65v1.59c-1.24,6.35-4.41,9.53-9.53,9.53h-2.12c-4.94,0-8.47-4.24-10.59-12.71,1.85-7.06,5.21-10.59,10.06-10.59Zm-9,12.18h1.06c1.06-.26,1.59-1.67,1.59-4.24v-1.06c-1.77.79-2.65,2.56-2.65,5.29Zm2.65,4.24v.53c.71,1.24,1.76,2.12,3.18,2.65l1.06-1.59c-1.77-1.15-2.65-1.85-2.65-2.12-.71.35-1.24.53-1.59.53Zm.53-43.95v1.59l2.65.53v-1.59c0-.71-.35-1.06-1.06-1.06-.71.35-1.24.53-1.59.53Zm2.65,9c.35.71.53,1.24.53,1.59h2.12l1.06-.53c-.35-.71-.53-1.24-.53-1.59h-2.12l-1.06.53Zm3.18,25.42c.35,2.12.88,3.18,1.59,3.18,1.59-.71,2.47-1.41,2.65-2.12,0-1.85-.53-2.91-1.59-3.18h-.53c-.53,0-1.24.71-2.12,2.12Zm3.18-35.48v.53c.09.71.44,1.06,1.06,1.06h1.06c0-.35.18-.88.53-1.59l-1.59-1.06c-.71.09-1.06.44-1.06,1.06Zm3.18,1.59c0,.18-.18.88-.53,2.12h1.06c.71,0,1.06-.35,1.06-1.06-.88-.71-1.41-1.06-1.59-1.06Zm.53,37.06v2.65c.09.71.44,1.06,1.06,1.06.71-1.06,1.24-2.29,1.59-3.71-.71,0-1.06-.53-1.06-1.59-.53,0-1.06.53-1.59,1.59Z"/>
  </g>
</svg>