<?xml version="1.0" encoding="utf-8"?>
<!-- Generator: Adobe Illustrator 26.0.1, SVG Export Plug-In . SVG Version: 6.00 Build 0)  -->
<svg version="1.1" id="Слой_1" xmlns="http://www.w3.org/2000/svg" xmlns:xlink="http://www.w3.org/1999/xlink" x="0px" y="0px"
	 viewBox="0 0 50 50" style="enable-background:new 0 0 50 50;" xml:space="preserve">
<style type="text/css">
	.st0{fill:#FFFFFF;}
	.st1{fill:#5B352D;}
	.st2{fill:#FCFCFC;}
</style>
<rect x="-2.2" y="-2.2" class="st0" width="54.3" height="54.3"/>
<g>
	<path class="st1" d="M0.5,25C0.6,11.5,11.5,0.5,25,0.5s24.5,11,24.5,24.5c-0.1,13.5-11,24.4-24.5,24.4C11.5,49.5,0.5,38.5,0.5,25z
		 M25,48.5C38,48.5,48.5,38,48.5,25S38,1.5,25,1.5S1.5,12,1.5,25S12.1,48.5,25,48.5z"/>
	<path class="st1" d="M9.2,25.4c0-8.7,7-15.8,15.8-15.8c8.7,0,15.8,7,15.8,15.8c0,8.7-7,15.8-15.8,15.8C16.3,41.3,9.2,34.2,9.2,25.4
		z M17.4,24.5c0,3.2,0.9,5.9,2.4,8.6c0.3,0.5,0.6,0.5,1.1,0.2c1.4-0.9,2.7-1.9,3.7-3.1c0.4-0.4,0.6-0.4,1-0.1c2,1.5,4.3,2.4,6.8,2.8
		c0.4,0.1,0.7,0,0.7-0.5c0.7-4.1,0.2-7.9-2-11.5c-0.8-1.3-1.9-2.3-3.4-2.8c-0.8-0.3-1.5-0.6-2.2-1c-0.3-0.2-0.6-0.4-0.6-0.9
		c0-0.3,0-0.7-0.4-0.8s-0.6,0.2-0.8,0.5c-0.2,0.3-0.3,0.6-0.8,0.6c-2,0.2-3.4,1.2-4.4,2.9C17.6,21.1,17.4,22.9,17.4,24.5z"/>
	<path class="st1" d="M6.2,25.4c0-5.1,1.8-9.4,5.3-13.1c0.2-0.2,0.3-0.6,0.6-0.3c0.3,0.2-0.1,0.4-0.3,0.6c-3.6,3.8-5.3,8.3-5.2,13.5
		c0.1,2.8,0.8,5.5,2.2,8.1c0.1,0.2,0.2,0.3,0.3,0.5s0.3,0.4,0.1,0.5S8.9,35,8.8,34.9c-1-1.8-1.7-3.6-2.1-5.7
		C6.3,27.9,6.2,26.7,6.2,25.4z"/>
	<path class="st1" d="M43.8,24.7c0,4-0.8,7.1-2.4,10c-0.1,0.2-0.2,0.6-0.4,0.4c-0.3-0.2,0-0.4,0.1-0.6c4-7.3,2.9-15.7-2.7-21.8
		c-0.1-0.1-0.1-0.1-0.2-0.2c-0.1-0.1-0.4-0.3-0.2-0.4c0.2-0.2,0.3,0.1,0.5,0.2c0.9,0.9,1.7,1.9,2.4,3C42.8,18.3,43.8,21.9,43.8,24.7
		z"/>
	<path class="st1" d="M35.4,11.4c-1.1,0-2-0.9-2-1.9c0-1.1,1-2.1,2-2.1s2,0.9,2,1.9C37.4,10.4,36.5,11.4,35.4,11.4z M36.9,9.2
		c0-0.7-0.7-1.4-1.4-1.4c-0.8,0-1.6,0.9-1.6,1.7c0,0.7,0.7,1.4,1.4,1.4C36.1,10.9,36.9,10.1,36.9,9.2z"/>
	<path class="st1" d="M16.4,10.3c-0.6-0.2-1.2-0.4-1.7-0.6c-0.2-0.1-0.3-0.2-0.5,0c-0.1,0.2-0.2,0.4,0,0.6c0.2,0.3,0.4,0.6,0.5,0.8
		c0.1,0.1,0.1,0.2,0,0.4c-0.2,0.2-0.3,0.1-0.4-0.1c-0.6-0.9-1.2-1.8-1.7-2.7c-0.1-0.2-0.2-0.3,0-0.4c0.2-0.1,0.3,0,0.4,0.1
		c0.2,0.3,0.4,0.6,0.5,0.8c0.1,0.1,0.2,0.2,0.3,0.2c0-0.1,0.1-0.2,0.1-0.3C14,8.6,14.1,8,14.2,7.4c0-0.2,0.2-0.4,0.4-0.3
		s0.1,0.3,0,0.5c-0.3,1.6-0.3,1.6,1.3,2.1c0.2,0.1,0.4,0.1,0.6,0.2c0.1,0.1,0.4,0,0.3,0.2C16.8,10.2,16.5,10.3,16.4,10.3z"/>
	<path class="st1" d="M24.1,7.5c0,0.2,0,0.3,0,0.5S24,8.3,23.8,8.3c-0.2,0-0.2-0.1-0.2-0.2c0-1.1,0-2.2-0.1-3.3
		c0-0.2,0.1-0.3,0.3-0.3C24,4.4,24,4.6,24,4.7v0.1c0,0.4,0,0.8,0.1,1.3c0.5-0.2,0.6-0.7,1-1c0.3-0.3,0.5-0.9,1-0.6
		c0.2,0.1-0.4,0.6-0.7,0.9c-0.5,0.5-0.6,0.9-0.1,1.4c0.3,0.3,0.5,0.6,0.7,1c0.1,0.1,0.4,0.3,0.2,0.5c-0.2,0.2-0.5,0-0.6-0.2
		c-0.3-0.3-0.5-0.7-0.8-1c-0.2-0.2-0.2-0.6-0.6-0.4C24,6.7,24,7,24,7.3C24.1,7.4,24,7.5,24.1,7.5L24.1,7.5z"/>
	<path class="st1" d="M18.4,8.8c0.1-1,0.1-2,0.2-3c0-0.2,0-0.5,0.3-0.6s0.5,0.1,0.6,0.3c0.6,0.8,1.3,1.6,1.9,2.5
		c0.1,0.1,0.4,0.2,0.1,0.5c-0.3,0.2-0.4,0-0.6-0.2c-0.3-0.4-0.5-0.8-1.2-0.6c-0.6,0.2-1,0.4-0.9,1.1c0,0.2,0,0.6-0.3,0.5
		C18.2,9.3,18.5,9,18.4,8.8z M19,6.7c0,0.8,0,0.9,0.2,0.8c0.3-0.1,0.9-0.1,0.8-0.4c-0.1-0.4-0.5-0.9-0.9-1.2
		C19.1,5.9,19.1,6.5,19,6.7z"/>
	<path class="st1" d="M31.3,8.6c-0.1,0.2,0.2,0.5-0.2,0.6c-0.4,0.1-0.3-0.3-0.4-0.5c-0.1-0.8-0.6-1.2-1.4-1.2C29,7.5,29,7.8,28.8,8
		s-0.3,0.6-0.6,0.3c-0.2-0.2,0.1-0.4,0.2-0.5C29,7,29.6,6.2,30.1,5.4c0.2-0.2,0.3-0.4,0.6-0.3C31.1,5.2,31,5.4,31,5.7
		C31.1,6.6,31.2,7.6,31.3,8.6z M30.7,6.8c-0.1-0.3-0.1-0.7-0.2-1.1c-0.3,0.4-0.7,0.8-0.9,1.3c-0.1,0.1,0.6,0.3,0.9,0.3
		C30.8,7.4,30.6,7,30.7,6.8z"/>
	<path class="st2" d="M17.4,24.5c0-1.7,0.2-3.4,1.2-5s2.4-2.7,4.4-2.9c0.5,0,0.6-0.3,0.8-0.6c0.2-0.2,0.4-0.6,0.8-0.5S25,16,25,16.3
		c0,0.5,0.2,0.6,0.6,0.9c0.7,0.5,1.4,0.8,2.2,1c1.5,0.5,2.6,1.5,3.4,2.8c2.2,3.5,2.7,7.4,2,11.5C33.1,33,32.9,33,32.5,33
		c-2.5-0.4-4.8-1.4-6.8-2.8c-0.4-0.3-0.6-0.4-1,0.1c-1.1,1.2-2.3,2.2-3.7,3.1c-0.5,0.3-0.7,0.3-1.1-0.2
		C18.2,30.5,17.4,27.7,17.4,24.5z M25.3,17.6c-0.1,0-0.1,0-0.2,0c0,0.1,0.1,0.1,0.1,0.2c0.8,1.6,1,3.3,0.7,5c-0.2,1.7-0.8,3.4-1.6,5
		c-0.1,0.2-0.1,0.6-0.4,0.4c-0.2-0.1,0-0.4,0.1-0.6c0.5-1.1,1-2.3,1.3-3.6c0.5-2,0.6-4-0.4-5.9c-0.3-0.6-0.8-1-1.6-1
		c-1.1,0-2,0.3-2.8,0.9c-1.3,0.9-2,2.2-2.4,3.7c-0.5,1.9-0.4,3.9-0.1,5.9c0.3,1.5,0.8,2.9,1.5,4.4c0-0.2,0-0.2,0-0.3
		c0-0.1-0.1-0.2-0.1-0.4c-0.6-2.8-0.6-5.6,0.5-8.3c0.1-0.2,0.1-0.5,0.3-0.4c0.3,0.1,0.1,0.3,0,0.5c-1.2,3.2-1,6.3-0.2,9.5
		c0.1,0.4,0.2,0.5,0.7,0.3c3.5-2.2,5.9-5.2,6.8-9.3C28.3,21.2,27.3,18.8,25.3,17.6z M32.9,31.1c0.4-3.5-0.2-6.7-2-9.7
		c-0.8-1.3-1.9-2.3-3.4-2.8c-0.1,0-0.4-0.1-0.4-0.1c-0.1,0.1,0.1,0.3,0.1,0.4c0.3,0.5,0.6,1.1,0.7,1.7c0.6,2.3,0,4.4-1.1,6.3
		c-0.3,0.5-0.2,0.8,0.2,1.1c0.2,0.1,0.3,0.2,0.5,0.4c0.2,0.3,0.8,0.4,0.6,0.7c-0.2,0.3-0.6-0.2-0.8-0.4c-1-0.8-0.9-0.8-1.7,0.2
		c-0.3,0.4-0.3,0.6,0.1,0.9c1.9,1.3,3.9,2.2,6.2,2.7c0.6,0.1,0.7-0.1,0.6-0.6c-0.3-3.3-1.3-6.3-3.6-8.8c-0.1-0.1-0.4-0.2-0.2-0.4
		c0.2-0.2,0.4,0.1,0.5,0.2c1.2,1.3,2.1,2.8,2.7,4.5C32.4,28.6,32.6,29.9,32.9,31.1z M24.6,16.4c-0.1-0.1,0-0.4-0.2-0.4
		c-0.3,0-0.4,0.3-0.5,0.5c0,0.2,0.2,0.2,0.4,0.2C24.5,16.8,24.6,16.7,24.6,16.4z"/>
	<path class="st2" d="M36.9,9.2c0,0.9-0.8,1.7-1.6,1.7c-0.7,0-1.4-0.6-1.4-1.4c0-0.8,0.8-1.7,1.6-1.7C36.2,7.8,36.9,8.5,36.9,9.2z"
		/>
	<path class="st2" d="M19,6.7c0.1-0.2,0.1-0.8,0.1-0.7c0.4,0.3,0.8,0.7,0.9,1.2c0.1,0.2-0.5,0.3-0.8,0.4C19,7.5,19,7.5,19,6.7z"/>
	<path class="st2" d="M30.7,6.8c-0.1,0.2,0.1,0.5-0.2,0.5c-0.3,0-1-0.2-0.9-0.3c0.2-0.5,0.6-0.8,0.9-1.3C30.6,6.1,30.6,6.5,30.7,6.8
		z"/>
	<path class="st1" d="M25.3,17.6c2,1.2,3,3.6,2.4,6c-1,4.1-3.4,7.1-6.8,9.3c-0.4,0.3-0.5,0.1-0.7-0.3c-0.8-3.2-1.1-6.4,0.2-9.5
		c0.1-0.2,0.3-0.4,0-0.5c-0.2-0.1-0.3,0.2-0.3,0.4c-1.1,2.7-1.1,5.5-0.5,8.3c0,0.1,0.1,0.2,0.1,0.4c0,0,0,0.1,0,0.3
		c-0.8-1.4-1.2-2.9-1.5-4.4c-0.4-2-0.4-3.9,0.1-5.9c0.4-1.5,1.1-2.8,2.4-3.7c0.8-0.6,1.8-0.9,2.8-0.9c0.8,0,1.2,0.3,1.6,1
		c1,1.9,0.9,3.9,0.4,5.9c-0.3,1.2-0.8,2.4-1.3,3.6c-0.1,0.2-0.3,0.5-0.1,0.6c0.3,0.1,0.3-0.2,0.4-0.4c0.8-1.6,1.4-3.2,1.6-5
		c0.2-1.7,0.1-3.4-0.7-5C25.2,17.7,25.3,17.6,25.3,17.6z"/>
	<path class="st1" d="M32.9,31.1c-0.3-1.2-0.5-2.5-1-3.7c-0.6-1.7-1.4-3.2-2.7-4.5c-0.1-0.1-0.3-0.4-0.5-0.2
		c-0.2,0.2,0.1,0.3,0.2,0.4c2.3,2.5,3.2,5.5,3.6,8.8c0.1,0.5,0,0.7-0.6,0.6c-2.2-0.5-4.3-1.4-6.2-2.7c-0.4-0.3-0.5-0.5-0.1-0.9
		c0.8-1,0.7-1,1.7-0.2c0.2,0.2,0.6,0.7,0.8,0.4c0.2-0.3-0.4-0.4-0.6-0.7c-0.1-0.2-0.3-0.3-0.5-0.4c-0.4-0.3-0.5-0.6-0.2-1.1
		c1-2,1.7-4.1,1.1-6.3c-0.2-0.6-0.4-1.1-0.7-1.7c-0.1-0.1-0.3-0.2-0.1-0.4c0-0.1,0.3,0,0.4,0.1c1.5,0.5,2.6,1.5,3.4,2.8
		C32.7,24.4,33.3,27.7,32.9,31.1z"/>
	<path class="st1" d="M24.6,16.4c0,0.3-0.1,0.4-0.3,0.3c-0.2,0-0.4,0-0.4-0.2s0.2-0.5,0.5-0.5C24.6,16,24.5,16.3,24.6,16.4z"/>
	<path class="st1" d="M25.2,17.7c0-0.1-0.1-0.1-0.1-0.2c0.1,0,0.1,0,0.2,0C25.3,17.6,25.2,17.7,25.2,17.7z"/>
</g>
</svg>
