<svg xmlns="http://www.w3.org/2000/svg" xmlns:xlink="http://www.w3.org/1999/xlink" width="1000" zoomAndPan="magnify" viewBox="0 0 750 749.999995" height="1000" preserveAspectRatio="xMidYMid meet" version="1.0"><path fill="#86cb3c" d="M 663.164062 1.242188 C 661.664062 1.160156 660.160156 1.527344 658.863281 2.257812 L 637.277344 14.753906 L 606.679688 32.484375 C 603.070312 34.554688 601.769531 39.140625 603.679688 42.832031 C 609.15625 53.261719 605.585938 65.71875 595.804688 71.398438 L 595.804688 71.441406 C 592.480469 73.347656 588.664062 74.28125 584.808594 74.160156 C 580.832031 74.039062 577.425781 76.878906 576.816406 80.773438 C 575.3125 90.511719 569.59375 98.953125 561.234375 103.78125 C 546.300781 112.421875 527.191406 107.636719 517.613281 92.664062 C 515.382812 89.132812 510.753906 87.996094 507.144531 90.105469 L 441.652344 128.003906 C 441.652344 128.003906 441.652344 128.003906 441.613281 128.046875 L 417.46875 142.003906 C 413.734375 144.15625 412.476562 148.902344 414.628906 152.636719 C 456.503906 225.390625 547.722656 251.765625 618.164062 210.984375 C 688.605469 170.207031 711.410156 77.890625 669.535156 5.136719 C 668.195312 2.824219 665.800781 1.363281 663.164062 1.242188 Z M 168.890625 10.210938 C 162.96875 10.453125 159.476562 16.90625 162.480469 21.976562 L 186.175781 62.839844 C 172.707031 62.230469 159.316406 66.855469 149.292969 76.757812 C 130.75 95.136719 130.058594 124.597656 147.019531 143.789062 C 145.882812 144.765625 144.503906 145.414062 143.410156 146.46875 C 124.132812 165.621094 123.972656 196.90625 143.164062 215.976562 C 148.277344 221.050781 154.648438 224.335938 161.382812 226.730469 C 154.082031 244.339844 157.570312 264.914062 171.042969 278.992188 C 171.285156 279.359375 171.570312 279.683594 171.851562 279.96875 L 171.894531 280.007812 C 185.851562 293.84375 206.507812 297.171875 224.5625 290.152344 C 226.226562 292.628906 227.605469 295.304688 229.757812 297.417969 C 229.757812 297.417969 229.757812 297.417969 229.757812 297.457031 C 244.527344 312.066406 266.765625 315.554688 285.308594 306.992188 C 286.484375 308.492188 287.417969 310.199219 288.757812 311.535156 C 288.757812 311.578125 288.757812 311.578125 288.796875 311.578125 C 307.992188 330.648438 339.355469 330.488281 358.671875 311.292969 C 369.871094 300.175781 374.578125 284.511719 372.304688 269.214844 C 374.984375 267.46875 377.785156 265.886719 380.054688 263.65625 C 397.464844 246.371094 399.128906 219.304688 385.25 200.152344 C 387.441406 198.609375 389.550781 196.945312 391.457031 195.039062 C 391.5 195.039062 391.5 195.039062 391.5 195.039062 C 410.773438 175.886719 410.933594 144.601562 391.742188 125.53125 C 382.246094 116.074219 369.382812 111.085938 356.277344 111.289062 C 359.035156 95.828125 354.453125 79.679688 342.96875 68.234375 L 342.925781 68.234375 C 328.886719 54.277344 307.949219 50.460938 289.972656 57.5625 C 287.5 51.394531 284.292969 45.550781 279.503906 40.84375 C 269.929688 31.308594 257.269531 26.5625 244.609375 26.644531 C 231.949219 26.683594 219.289062 31.511719 209.632812 41.089844 C 205.492188 45.1875 202.164062 49.976562 199.730469 55.167969 L 175.992188 14.144531 C 174.53125 11.589844 171.8125 10.046875 168.890625 10.128906 Z M 406.957031 18.8125 C 385.535156 18.8125 368.003906 36.339844 368.003906 57.726562 C 368.003906 79.148438 385.535156 96.679688 406.957031 96.679688 C 428.382812 96.679688 445.914062 79.148438 445.914062 57.726562 C 445.914062 36.339844 428.382812 18.8125 406.957031 18.8125 Z M 659.269531 20.027344 C 691.8125 84.507812 670.996094 162.414062 610.332031 197.515625 C 549.667969 232.65625 472.042969 211.757812 432.644531 151.214844 L 442.910156 145.292969 C 463.363281 176.210938 495.5 195.28125 529.664062 199.828125 C 536.402344 200.71875 543.21875 201.085938 550.074219 200.800781 C 550.847656 200.800781 551.578125 200.761719 552.308594 200.761719 C 552.632812 200.761719 552.957031 200.71875 553.242188 200.71875 C 553.566406 200.679688 553.890625 200.640625 554.214844 200.640625 C 568.335938 199.664062 582.414062 196.136719 595.804688 189.886719 C 595.925781 189.804688 596.050781 189.804688 596.128906 189.722656 C 596.78125 189.441406 597.386719 189.113281 598.039062 188.789062 C 598.242188 188.75 598.363281 188.667969 598.523438 188.507812 C 599.132812 188.222656 599.78125 187.898438 600.390625 187.574219 C 600.554688 187.492188 600.714844 187.410156 600.835938 187.371094 C 602.21875 186.640625 603.597656 185.867188 604.976562 185.097656 C 621.816406 175.320312 635.328125 162.050781 645.148438 146.671875 C 645.351562 146.347656 645.511719 146.101562 645.675781 145.820312 C 645.878906 145.453125 646.082031 145.210938 646.285156 144.886719 C 649.773438 139.203125 652.816406 133.238281 655.375 127.070312 C 668.480469 95.136719 668.113281 57.726562 651.601562 24.492188 Z M 637.925781 32.40625 C 651.964844 61.296875 652.289062 93.554688 640.96875 121.148438 C 633.582031 139.082031 621.449219 154.949219 604.9375 166.59375 C 604.773438 166.757812 604.609375 166.796875 604.449219 166.960938 C 604.042969 167.242188 603.636719 167.527344 603.230469 167.8125 C 602.949219 168.015625 602.664062 168.21875 602.378906 168.339844 C 602.015625 168.542969 601.691406 168.746094 601.363281 169.027344 C 600.878906 169.355469 600.433594 169.597656 599.984375 169.882812 C 599.742188 170.042969 599.539062 170.207031 599.296875 170.328125 C 598.605469 170.734375 597.875 171.179688 597.144531 171.585938 C 596.414062 172.03125 595.726562 172.4375 594.996094 172.804688 C 594.710938 172.964844 594.46875 173.128906 594.183594 173.25 C 593.777344 173.453125 593.289062 173.695312 592.84375 173.9375 C 592.519531 174.140625 592.152344 174.261719 591.789062 174.507812 C 591.464844 174.628906 591.097656 174.832031 590.773438 174.953125 C 590.328125 175.195312 589.921875 175.398438 589.515625 175.601562 C 589.273438 175.644531 589.109375 175.804688 588.867188 175.886719 C 570.566406 184.367188 550.847656 186.964844 531.734375 184.40625 C 502.234375 180.472656 474.519531 164.039062 456.585938 137.378906 L 509.132812 106.945312 C 524.066406 123.90625 549.101562 128.816406 569.023438 117.292969 C 569.023438 117.292969 569.023438 117.292969 569.066406 117.292969 C 579.738281 111.085938 587.242188 100.859375 590.613281 89.050781 C 595.15625 88.441406 599.578125 87.226562 603.597656 84.914062 C 618.449219 76.308594 624.898438 58.617188 620.273438 42.589844 Z M 406.957031 34.394531 C 419.945312 34.394531 430.332031 44.742188 430.332031 57.765625 C 430.332031 70.75 419.945312 81.097656 406.957031 81.097656 C 393.933594 81.097656 383.585938 70.75 383.585938 57.765625 C 383.585938 44.742188 393.933594 34.394531 406.957031 34.394531 Z M 244.648438 42.183594 C 253.292969 42.144531 261.933594 45.390625 268.550781 51.921875 C 273.417969 56.792969 276.664062 63.042969 277.800781 69.816406 C 278.773438 75.296875 285.023438 78.054688 289.691406 75.050781 C 303.203125 66.410156 320.773438 68.195312 331.972656 79.3125 C 342.035156 89.335938 344.589844 104.511719 338.34375 117.375 C 335.421875 123.460938 341.0625 130.117188 347.511719 128.25 C 359.402344 124.839844 372.144531 128.046875 380.785156 136.609375 C 393.933594 149.714844 393.894531 170.734375 380.542969 184.003906 C 377.539062 186.964844 373.96875 189.359375 370.074219 191.0625 C 364.839844 193.335938 363.742188 200.273438 368.046875 204.046875 C 368.53125 204.492188 368.976562 204.898438 369.34375 205.222656 C 382.53125 218.332031 382.449219 239.351562 369.101562 252.617188 C 366.585938 255.09375 363.703125 257.203125 360.539062 258.785156 C 357.25 260.492188 355.628906 264.222656 356.5625 267.753906 C 359.6875 279.320312 356.316406 291.695312 347.714844 300.296875 C 334.324219 313.523438 312.980469 313.605469 299.792969 300.582031 C 297.644531 298.429688 295.777344 295.957031 294.273438 293.316406 C 292.085938 289.382812 287.011719 288.125 283.238281 290.597656 C 269.726562 299.363281 252.035156 297.617188 240.753906 286.460938 C 238.15625 283.863281 236.007812 280.820312 234.421875 277.53125 C 232.433594 273.476562 227.484375 271.933594 223.550781 274.164062 C 210.199219 281.753906 193.601562 279.601562 182.890625 268.972656 C 171.449219 257.648438 169.824219 239.917969 179.035156 226.527344 C 182.363281 221.699219 179.359375 215.085938 173.597656 214.355469 C 166.214844 213.421875 159.355469 210.132812 154.160156 204.941406 C 140.972656 191.875 141.015625 170.816406 154.40625 157.546875 C 156.839844 155.152344 159.640625 153.082031 162.683594 151.5 C 167.796875 148.820312 168.324219 141.71875 163.65625 138.3125 C 162.4375 137.417969 161.222656 136.363281 160.046875 135.226562 C 146.859375 122.164062 146.9375 101.101562 160.289062 87.875 C 169.824219 78.460938 183.824219 75.5 196.078125 80.003906 L 214.539062 111.855469 L 169.703125 177.914062 C 167.1875 181.445312 168.078125 186.394531 171.691406 188.832031 C 175.261719 191.265625 180.210938 190.292969 182.566406 186.640625 L 223.222656 126.828125 L 253.292969 178.726562 L 208.414062 244.789062 C 205.9375 248.359375 206.832031 253.269531 210.441406 255.703125 C 214.011719 258.136719 218.921875 257.164062 221.316406 253.550781 L 261.976562 193.699219 L 300.644531 260.492188 C 302.757812 264.304688 307.585938 265.644531 311.359375 263.453125 C 315.132812 261.300781 316.390625 256.433594 314.117188 252.699219 L 275.488281 186.03125 L 347.59375 180.878906 C 357.699219 180.269531 357.171875 165.175781 347.027344 165.296875 C 346.824219 165.296875 346.660156 165.296875 346.457031 165.335938 L 266.84375 171.015625 L 236.777344 119.117188 L 308.84375 113.964844 C 319.027344 113.4375 318.5 98.222656 308.273438 98.425781 C 308.113281 98.425781 307.910156 98.425781 307.746094 98.464844 L 228.09375 104.144531 L 210.726562 74.160156 C 211.214844 65.921875 214.703125 58.089844 220.667969 52.207031 C 227.324219 45.59375 236.007812 42.265625 244.691406 42.226562 Z M 63.226562 128.613281 C 41.804688 128.613281 24.273438 146.101562 24.273438 167.527344 C 24.273438 188.953125 41.804688 206.480469 63.226562 206.480469 C 84.652344 206.480469 102.183594 188.953125 102.183594 167.527344 C 102.183594 146.101562 84.652344 128.613281 63.226562 128.613281 Z M 63.226562 144.15625 C 76.253906 144.15625 86.601562 154.542969 86.601562 167.527344 C 86.601562 180.511719 76.253906 190.902344 63.226562 190.902344 C 50.242188 190.902344 39.855469 180.511719 39.855469 167.527344 C 39.855469 154.542969 50.242188 144.15625 63.226562 144.15625 Z M 711.046875 203.804688 C 689.621094 203.804688 672.089844 221.332031 672.089844 242.757812 C 672.089844 264.144531 689.621094 281.671875 711.046875 281.671875 C 732.46875 281.671875 750 264.144531 750 242.757812 C 750 221.332031 732.46875 203.804688 711.046875 203.804688 Z M 711.046875 219.386719 C 724.03125 219.386719 734.417969 229.734375 734.417969 242.757812 C 734.417969 255.742188 724.03125 266.089844 711.046875 266.089844 C 698.0625 266.089844 687.671875 255.742188 687.671875 242.757812 C 687.671875 229.734375 698.0625 219.386719 711.046875 219.386719 Z M 109.484375 233.058594 C 108.511719 233.058594 107.578125 233.140625 106.644531 233.34375 C 99.21875 234.5625 92.726562 240.203125 91.183594 248.398438 L 88.667969 261.667969 L 83.191406 250.304688 C 78.402344 240.445312 66.191406 237.160156 57.140625 242.394531 L 44.480469 249.65625 C 35.390625 254.929688 32.023438 267.1875 38.433594 276.316406 L 47.28125 288.894531 L 30.96875 283.171875 C 20.460938 279.480469 9.503906 285.648438 6.664062 295.792969 L 2.765625 309.671875 C -0.0742188 319.773438 6.542969 330.648438 17.292969 332.597656 L 46.710938 337.914062 C 38.515625 351.34375 37.097656 368.34375 46.023438 382.304688 C 42.128906 383.886719 38.515625 385.507812 35.109375 387.214844 C 25.367188 392 17.496094 397.113281 11.734375 403.039062 C 5.933594 408.921875 2.078125 416.023438 2.078125 423.816406 C 2.078125 424.746094 2.117188 425.640625 2.238281 426.535156 C 2.117188 427.0625 2.078125 427.628906 2.078125 428.15625 C 2.078125 501.316406 44.722656 567.09375 112.285156 614.082031 C 144.625 636.601562 182.726562 654.902344 224.847656 667.886719 L 224.847656 720.3125 C 224.847656 720.515625 224.847656 720.761719 224.847656 721.003906 C 224.847656 724.492188 227.160156 727.578125 230.527344 728.511719 C 274.921875 741.574219 323.652344 748.757812 374.78125 748.757812 C 425.910156 748.757812 474.640625 741.574219 519.035156 728.511719 C 522.523438 727.535156 524.875 724.25 524.714844 720.636719 C 524.714844 720.558594 524.714844 720.433594 524.714844 720.355469 L 524.714844 667.929688 C 566.832031 654.945312 604.9375 636.644531 637.277344 614.121094 C 704.835938 567.132812 747.484375 501.359375 747.484375 428.195312 C 747.484375 427.628906 747.445312 427.0625 747.320312 426.535156 C 747.402344 425.640625 747.484375 424.746094 747.484375 423.855469 C 747.484375 416.105469 743.628906 408.964844 737.828125 403.078125 C 732.066406 397.15625 724.191406 392.042969 714.453125 387.253906 C 705.527344 382.832031 694.976562 378.734375 682.964844 374.878906 C 681.707031 356.414062 671.808594 339.171875 655.941406 328.578125 C 657.117188 325.941406 658.578125 323.464844 659.308594 320.667969 L 659.308594 320.625 C 667.789062 288.734375 648.433594 255.742188 616.378906 247.019531 C 611.144531 245.640625 605.867188 244.949219 600.59375 244.910156 C 586.878906 244.910156 573.691406 249.980469 562.9375 258.707031 C 559.042969 256.675781 555.027344 254.890625 550.765625 253.753906 C 550.722656 253.753906 550.722656 253.753906 550.722656 253.753906 C 521.101562 245.71875 490.832031 261.34375 479.671875 288.855469 C 476.0625 287.070312 472.328125 285.566406 468.433594 284.472656 C 436.378906 275.789062 403.183594 294.65625 394.746094 326.550781 C 393.566406 331.015625 392.960938 335.519531 392.835938 339.980469 C 386.871094 339.941406 380.828125 339.941406 374.78125 339.941406 C 349.460938 339.941406 324.789062 340.46875 300.890625 341.484375 C 277.03125 342.496094 254.023438 344 232.070312 345.945312 C 221.074219 346.921875 210.359375 348.015625 199.972656 349.191406 C 196.078125 349.597656 192.265625 350.085938 188.449219 350.53125 L 183.175781 339.453125 L 170.472656 312.835938 C 163.535156 298.308594 149.332031 290.394531 134.359375 289.542969 C 133.183594 289.503906 131.964844 289.503906 130.75 289.503906 L 140.851562 261.425781 C 144.542969 251.117188 138.457031 239.917969 128.273438 237.320312 L 114.273438 233.75 C 112.691406 233.34375 111.070312 233.140625 109.484375 233.222656 Z M 109.890625 248.683594 C 110.09375 248.683594 110.257812 248.683594 110.417969 248.722656 L 124.417969 252.292969 C 125.675781 252.660156 126.894531 254.121094 126.203125 255.988281 L 112.8125 293.277344 C 111.148438 293.96875 109.527344 294.777344 107.945312 295.710938 L 63.632812 321.277344 C 62.050781 322.167969 60.550781 323.183594 59.089844 324.277344 L 20.09375 317.21875 C 18.105469 316.894531 17.414062 315.109375 17.742188 313.851562 L 21.675781 299.933594 C 22.042969 298.675781 24.109375 297.171875 25.816406 297.78125 L 65.09375 311.617188 C 72.277344 314.09375 78.445312 305.976562 74.0625 299.769531 L 51.175781 267.265625 C 50.203125 265.929688 50.972656 263.859375 52.273438 263.085938 L 64.933594 255.824219 C 66.230469 255.054688 68.382812 255.378906 69.152344 257.042969 L 84.976562 289.707031 C 88.222656 296.441406 98.246094 295.101562 99.625 287.757812 L 106.484375 251.238281 C 106.808594 249.65625 108.59375 248.683594 109.890625 248.683594 Z M 600.554688 260.410156 C 604.488281 260.410156 608.425781 260.9375 612.28125 261.953125 C 636.300781 268.484375 650.542969 292.871094 644.253906 316.527344 C 643.242188 320.421875 641.660156 324.15625 639.589844 327.605469 C 637.234375 331.5 638.695312 336.53125 642.753906 338.5625 C 661.746094 348.179688 671.441406 369.523438 666.085938 389.769531 C 664.828125 394.476562 662.800781 398.898438 660.082031 402.917969 C 657.523438 406.648438 658.699219 411.722656 662.597656 413.996094 C 671.320312 419.148438 677.8125 426.777344 681.503906 435.582031 C 682.4375 437.773438 683.167969 440.046875 683.738281 442.359375 C 684.304688 444.710938 684.671875 447.066406 684.832031 449.460938 C 685.035156 451.527344 684.996094 453.597656 684.875 455.707031 C 669.941406 460.863281 651.84375 465.691406 631.230469 469.992188 C 597.308594 477.09375 556.527344 482.773438 511.082031 486.628906 L 537.210938 441.382812 L 639.101562 448.769531 C 643.402344 449.136719 647.175781 445.890625 647.5 441.585938 C 647.824219 437.246094 644.539062 433.511719 640.238281 433.230469 L 545.855469 426.371094 L 596.128906 339.332031 C 599.214844 334.179688 595.523438 327.605469 589.515625 327.566406 C 586.675781 327.566406 584.039062 329.066406 582.660156 331.542969 L 532.425781 418.5 L 479.429688 340.46875 C 477.96875 338.238281 475.492188 336.9375 472.816406 336.9375 C 466.566406 337.019531 462.957031 344.078125 466.527344 349.191406 L 523.78125 433.472656 L 495.78125 481.960938 L 492.210938 488.089844 C 486.367188 488.496094 480.445312 488.902344 474.4375 489.265625 L 460.722656 469.019531 L 445.710938 446.902344 L 430.695312 424.828125 C 429.234375 422.597656 426.761719 421.296875 424.082031 421.296875 C 417.832031 421.378906 414.222656 428.441406 417.792969 433.554688 L 447.820312 477.78125 L 456.300781 490.238281 C 443.476562 490.847656 430.414062 491.292969 417.144531 491.621094 C 417.101562 489.957031 417.0625 488.292969 416.941406 486.628906 C 416.65625 482.285156 416.167969 477.902344 415.480469 473.523438 C 414.75 469.097656 413.816406 464.714844 412.640625 460.335938 C 407.121094 439.800781 397.015625 421.703125 383.707031 406.8125 C 386.101562 403.203125 389.023438 399.996094 392.351562 397.277344 C 395.800781 394.4375 399.695312 392.082031 403.914062 390.417969 C 408.09375 388.714844 412.640625 387.660156 417.347656 387.296875 C 424.082031 386.808594 427.042969 378.570312 422.175781 373.90625 C 410.40625 362.625 405.660156 345.945312 409.800781 330.40625 C 416.046875 306.75 440.3125 292.871094 464.335938 299.40625 C 469.730469 300.863281 474.804688 303.339844 479.308594 306.667969 C 483.894531 310.078125 490.46875 307.519531 491.601562 301.921875 C 491.765625 301.109375 491.929688 300.335938 492.089844 299.6875 C 498.378906 275.992188 522.605469 262.152344 546.625 268.648438 C 551.128906 269.863281 555.429688 271.8125 559.367188 274.328125 C 562.453125 276.316406 566.507812 275.910156 569.105469 273.3125 C 577.503906 264.914062 588.867188 260.367188 600.554688 260.367188 Z M 131.722656 304.921875 C 142.070312 304.921875 151.929688 309.996094 156.394531 319.410156 L 162.683594 332.554688 L 100.640625 368.34375 C 96.867188 370.457031 95.527344 375.285156 97.679688 379.058594 C 99.867188 382.832031 104.699219 384.089844 108.429688 381.859375 L 169.417969 346.675781 L 181.835938 372.6875 L 194.535156 399.304688 C 191.613281 402.105469 188.816406 405.027344 186.136719 408.070312 C 180.617188 414.441406 175.707031 421.339844 171.488281 428.601562 C 167.308594 435.90625 163.777344 443.574219 161.019531 451.570312 C 158.261719 459.5625 156.273438 467.839844 155.09375 476.320312 C 155.054688 476.445312 155.054688 476.605469 155.015625 476.726562 C 146.128906 475.308594 137.523438 473.804688 129.328125 472.222656 C 129.125 471.859375 128.921875 471.492188 128.679688 471.167969 L 112.488281 448.527344 C 112.652344 448.445312 112.8125 448.324219 112.976562 448.242188 L 177.210938 411.15625 C 184.109375 407.339844 181.550781 396.832031 173.640625 396.585938 C 172.179688 396.546875 170.675781 396.910156 169.417969 397.683594 L 105.144531 434.769531 C 104.574219 435.09375 104.046875 435.5 103.5625 435.988281 L 59.859375 374.917969 C 51.90625 363.761719 55.558594 347.894531 66.269531 338.441406 L 66.3125 338.398438 C 67.894531 337.019531 69.597656 335.761719 71.425781 334.707031 L 115.734375 309.183594 C 116.179688 308.859375 116.628906 308.695312 117.113281 308.414062 C 118.492188 307.683594 119.953125 307.074219 121.414062 306.585938 L 121.457031 306.585938 C 124.824219 305.449219 128.273438 304.882812 131.722656 304.882812 Z M 374.78125 355.359375 C 381.070312 355.359375 387.277344 355.402344 393.488281 355.441406 C 393.851562 355.441406 394.21875 355.441406 394.542969 355.359375 C 396.207031 362.097656 399.046875 368.546875 402.902344 374.433594 C 401.277344 374.917969 399.65625 375.324219 398.113281 375.933594 C 392.390625 378.207031 387.117188 381.371094 382.449219 385.226562 C 378.757812 388.269531 375.390625 391.800781 372.507812 395.695312 C 346.902344 373.175781 312.941406 360.917969 277.71875 362.988281 C 268.996094 363.558594 260.191406 364.9375 251.425781 367.289062 C 242.660156 369.644531 234.34375 372.808594 226.511719 376.703125 C 219.53125 380.195312 212.957031 384.292969 206.832031 388.835938 L 195.914062 365.953125 L 195.550781 365.222656 C 197.578125 364.894531 199.648438 364.734375 201.71875 364.492188 C 211.984375 363.3125 222.574219 362.257812 233.410156 361.285156 C 255.117188 359.378906 277.921875 357.917969 301.578125 356.902344 C 325.234375 355.886719 349.703125 355.359375 374.78125 355.359375 Z M 284.457031 378.367188 C 336.191406 377.800781 383.585938 412.085938 397.625 464.390625 C 398.640625 468.246094 399.492188 472.140625 400.101562 475.996094 C 400.75 479.851562 401.15625 483.746094 401.398438 487.5625 C 401.480469 489.023438 401.519531 490.484375 401.5625 491.945312 C 393.40625 492.105469 385.128906 492.148438 376.808594 492.148438 C 376.324219 444.0625 337.773438 404.378906 289.242188 402.875 C 242.132812 401.414062 202.207031 436.476562 196.769531 482.449219 C 187.71875 481.394531 178.953125 480.21875 170.472656 479.039062 C 170.472656 478.835938 170.515625 478.675781 170.515625 478.472656 C 171.570312 471.007812 173.3125 463.703125 175.75 456.683594 C 178.183594 449.621094 181.265625 442.84375 185 436.433594 C 188.691406 429.980469 193.035156 423.9375 197.902344 418.296875 C 202.8125 412.65625 208.25 407.503906 214.175781 402.875 C 220.140625 398.25 226.59375 394.152344 233.492188 390.703125 C 240.347656 387.253906 247.691406 384.453125 255.484375 382.386719 C 265.140625 379.789062 274.878906 378.488281 284.457031 378.410156 Z M 681.828125 390.785156 C 691.769531 394.113281 700.414062 397.5625 707.554688 401.089844 C 716.28125 405.390625 722.773438 409.855469 726.707031 413.875 C 730.644531 417.890625 731.902344 421.015625 731.902344 423.773438 C 731.902344 426.492188 730.644531 429.65625 726.707031 433.675781 C 722.773438 437.691406 716.28125 442.113281 707.554688 446.457031 C 705.324219 447.550781 702.972656 448.648438 700.453125 449.703125 C 700.453125 449.214844 700.453125 448.769531 700.375 448.28125 C 700.128906 445.035156 699.644531 441.871094 698.871094 438.707031 C 698.140625 435.582031 697.128906 432.539062 695.871094 429.578125 C 691.851562 420 685.238281 411.519531 676.71875 404.988281 C 678.503906 401.375 680.085938 397.683594 681.097656 393.789062 L 681.140625 393.789062 C 681.382812 392.773438 681.628906 391.800781 681.828125 390.785156 Z M 55.273438 395.289062 L 106.929688 467.515625 C 79.582031 461.226562 57.382812 454.042969 42.003906 446.457031 C 33.28125 442.113281 26.789062 437.691406 22.851562 433.675781 C 18.917969 429.65625 17.660156 426.492188 17.660156 423.773438 C 17.660156 421.015625 18.917969 417.890625 22.851562 413.875 C 26.789062 409.855469 33.28125 405.390625 42.003906 401.089844 C 45.980469 399.144531 50.40625 397.195312 55.273438 395.289062 Z M 286.851562 418.378906 C 287.457031 418.417969 288.109375 418.417969 288.757812 418.417969 C 298.738281 418.703125 308.152344 420.972656 316.753906 424.746094 L 288.148438 474.210938 L 273.5 419.511719 C 277.839844 418.742188 282.265625 418.378906 286.851562 418.378906 Z M 258.484375 423.773438 L 273.09375 478.269531 L 225.007812 450.472656 C 233.246094 438.585938 244.894531 429.210938 258.484375 423.773438 Z M 330.265625 432.5 C 342.238281 441.140625 351.488281 453.234375 356.644531 467.273438 L 301.660156 482.003906 Z M 19.203125 450.960938 C 23.746094 454.328125 29.0625 457.414062 35.109375 460.414062 C 54.585938 469.992188 81.773438 478.269531 115.167969 485.25 C 181.957031 499.207031 273.582031 507.730469 374.78125 507.730469 C 475.980469 507.730469 567.605469 499.207031 634.394531 485.25 C 667.832031 478.269531 694.976562 469.992188 714.453125 460.414062 C 720.5 457.414062 725.816406 454.328125 730.359375 450.960938 C 722.609375 509.027344 685.441406 561.535156 628.347656 601.257812 C 563.832031 646.136719 474.074219 674.21875 374.78125 674.21875 C 275.488281 674.21875 185.730469 646.136719 121.210938 601.257812 C 64.121094 561.535156 26.992188 509.027344 19.203125 450.960938 Z M 217.503906 464.148438 L 259.214844 488.210938 C 243.027344 487.117188 227.324219 485.734375 212.226562 484.152344 C 213.078125 477.132812 214.867188 470.398438 217.503906 464.148438 Z M 360.457031 482.367188 C 360.945312 485.574219 361.1875 488.820312 361.226562 492.105469 C 349.5 492.023438 337.894531 491.824219 326.492188 491.457031 Z M 685.886719 500.992188 C 683.332031 501.074219 680.976562 502.453125 679.597656 504.605469 C 675.460938 510.976562 670.875 517.144531 665.882812 523.1875 C 663.003906 526.476562 663.449219 531.464844 666.777344 534.265625 C 670.144531 537.066406 675.132812 536.539062 677.851562 533.128906 C 683.25 526.679688 688.160156 519.984375 692.664062 513.085938 C 696.195312 507.808594 692.257812 500.75 685.886719 500.992188 Z M 655.007812 538.40625 C 653.019531 538.40625 651.074219 539.214844 649.652344 540.636719 C 643.808594 546.277344 637.601562 551.714844 631.027344 556.949219 C 624.414062 562.183594 617.472656 567.175781 610.171875 571.921875 C 580.914062 590.953125 546.179688 606.128906 507.710938 616.234375 C 503.492188 617.289062 500.976562 621.546875 502.070312 625.769531 C 503.167969 629.949219 507.46875 632.421875 511.648438 631.285156 C 551.617188 620.816406 587.894531 604.992188 618.652344 584.949219 C 626.359375 579.957031 633.707031 574.679688 640.683594 569.164062 C 647.664062 563.644531 654.277344 557.839844 660.484375 551.835938 C 665.640625 546.96875 662.148438 538.285156 655.007812 538.40625 Z M 240.429688 672.351562 C 282.144531 683.632812 327.425781 689.800781 374.78125 689.800781 C 422.132812 689.800781 467.417969 683.632812 509.132812 672.351562 L 509.132812 715.039062 C 467.703125 726.683594 422.335938 733.09375 374.78125 733.09375 C 327.222656 733.09375 281.859375 726.683594 240.429688 715.039062 Z M 240.429688 672.351562 " fill-opacity="1" fill-rule="nonzero"/></svg>