<svg xmlns="http://www.w3.org/2000/svg" xmlns:xlink="http://www.w3.org/1999/xlink" width="1920" zoomAndPan="magnify" viewBox="0 0 1440 809.999993" height="1080" preserveAspectRatio="xMidYMid meet" version="1.0"><defs><clipPath id="ea394607bd"><path d="M 0 746.25 L 1440 746.25 L 1440 810 L 0 810 Z M 0 746.25 " clip-rule="nonzero"/></clipPath><clipPath id="feeea02f72"><path d="M 0 797.777344 C 236.113281 763.820312 477.515625 746.25 723.023438 746.25 C 966.4375 746.25 1205.816406 763.523438 1440 796.910156 L 1440 810 L 0 810 Z M 0 797.777344 " clip-rule="evenodd"/></clipPath><clipPath id="551d5eb612"><path d="M 0 756.554688 L 1440 756.554688 L 1440 810 L 0 810 Z M 0 756.554688 " clip-rule="nonzero"/></clipPath><clipPath id="2f98dfe989"><path d="M 0 809.585938 C 239.421875 774.644531 484.308594 756.554688 733.421875 756.554688 C 973.234375 756.554688 1209.128906 773.320312 1440 805.742188 L 1440 810 L 0 810 Z M 0 809.585938 " clip-rule="evenodd"/></clipPath></defs><g clip-path="url(#ea394607bd)"><g clip-path="url(#feeea02f72)"><path fill="#86cb3c" d="M -4311.984375 746.25 L 5758.035156 746.25 L 5758.035156 10816.269531 L -4311.984375 10816.269531 Z M -4311.984375 746.25 " fill-opacity="1" fill-rule="nonzero"/></g></g><g clip-path="url(#551d5eb612)"><g clip-path="url(#2f98dfe989)"><path fill="#f5fbee" d="M -4301.589844 756.554688 L 5768.433594 756.554688 L 5768.433594 10826.574219 L -4301.589844 10826.574219 Z M -4301.589844 756.554688 " fill-opacity="1" fill-rule="nonzero"/></g></g></svg>